<svg width="24" height="24" viewBox="0 0 24 24" fill="none" xmlns="http://www.w3.org/2000/svg">
<path d="M1 1V16.4L12 23L23 16.4V1H1Z" fill="#B31AEC"/>
<path d="M8.55999 10.61C8.69999 8.98 8.78999 7.23 8.81999 5.38H14.87V7.26H10.87C10.87 7.88 10.84 8.47 10.8 9.01C10.96 8.89 11.08 8.8 11.18 8.74C11.5 8.55 11.89 8.46 12.36 8.46C13.22 8.46 13.92 8.73 14.46 9.28C15.04 9.87 15.33 10.68 15.33 11.73C15.33 14.01 14.15 15.15 11.78 15.15C10.58 15.15 9.70999 14.83 9.16999 14.19C8.80999 13.76 8.57999 13.12 8.48999 12.28L10.73 12.03C10.85 12.87 11.21 13.28 11.83 13.28C12.23 13.28 12.54 13.12 12.77 12.8C12.99 12.49 13.1 12.1 13.1 11.63C13.1 11.21 12.99 10.86 12.77 10.58C12.56 10.3 12.28 10.16 11.94 10.16C11.64 10.16 11.37 10.27 11.12 10.48C11.03 10.55 10.88 10.7 10.67 10.93L8.56999 10.63L8.55999 10.61Z" fill="white"/>
</svg>
