<svg width="24" height="24" viewBox="0 0 24 24" fill="none" xmlns="http://www.w3.org/2000/svg">
<path d="M1 1V16.4L12 23L23 16.4V1H1Z" fill="#1B9B2A"/>
<path d="M13.93 9.94C14.37 10.14 14.64 10.27 14.76 10.35C15.03 10.54 15.24 10.82 15.39 11.19C15.51 11.5 15.58 11.85 15.58 12.23C15.58 13.14 15.27 13.85 14.64 14.36C14.26 14.66 13.86 14.87 13.42 14.97C12.95 15.08 12.44 15.13 11.88 15.13C11.09 15.13 10.47 15.01 10 14.78C9.02 14.3 8.48 13.31 8.38 11.83L10.48 11.42C10.51 11.72 10.54 11.93 10.57 12.05C10.66 12.48 10.84 12.8 11.12 13.01C11.35 13.18 11.64 13.27 11.99 13.27C12.37 13.27 12.67 13.16 12.92 12.95C13.17 12.74 13.28 12.44 13.28 12.06C13.28 11.8 13.23 11.57 13.13 11.37C13.04 11.19 12.89 11.07 12.7 11.01C12.58 10.97 12.4 10.95 12.14 10.95H11.34V9.29H12.08C12.33 9.29 12.51 9.25 12.61 9.18C12.87 8.98 13 8.64 13 8.18C13 7.82 12.91 7.54 12.72 7.34C12.53 7.14 12.28 7.05 11.97 7.05C11.51 7.05 11.17 7.25 10.95 7.66C10.83 7.87 10.74 8.23 10.66 8.75L8.57 8.36C8.65 7.52 8.93001 6.82 9.43001 6.25C10.02 5.56 10.89 5.22 12.04 5.22C13.02 5.22 13.81 5.47 14.41 5.96C15 6.45 15.29 7.09 15.29 7.87C15.29 8.54 15.09 9.07 14.69 9.45C14.57 9.57 14.31 9.74 13.93 9.93V9.94Z" fill="white"/>
</svg>
