<svg width="24" height="24" viewBox="0 0 24 24" fill="none" xmlns="http://www.w3.org/2000/svg">
<path d="M1 1V16.4L12 23L23 16.4V1H1Z" fill="#2352CB"/>
<path d="M8.17001 8.93C8.23001 8.37 8.33001 7.91 8.45001 7.55C8.72001 6.75 9.22001 6.15 9.97001 5.75C10.6 5.41 11.38 5.23 12.31 5.23C13.47 5.23 14.39 5.53 15.08 6.12C15.73 6.67 16.05 7.44 16.05 8.42C16.05 9.4 15.71 10.12 15.03 10.63C14.76 10.83 14.02 11.29 12.82 12.01C12.16 12.4 11.64 12.74 11.27 13.04H16.15V14.99H7.85001C7.94001 14.37 8.05001 13.87 8.19001 13.49C8.46001 12.76 8.92001 12.12 9.57001 11.58C9.84001 11.35 10.46 10.95 11.43 10.4C12.2 9.95 12.68 9.67 12.87 9.54C13.21 9.32 13.43 9.11 13.55 8.92C13.66 8.74 13.71 8.55 13.71 8.35C13.71 8.01 13.59 7.73 13.33 7.52C13.06 7.29 12.72 7.18 12.3 7.18C11.24 7.18 10.62 7.87 10.44 9.24L8.15001 8.94L8.17001 8.93Z" fill="white"/>
</svg>
