<svg width="24" height="24" viewBox="0 0 24 24" fill="none" xmlns="http://www.w3.org/2000/svg">
<g clip-path="url(#clip0_54_159)">
<path d="M19.2 0H4.8C2.14903 0 0 2.14903 0 4.8V19.2C0 21.851 2.14903 24 4.8 24H19.2C21.851 24 24 21.851 24 19.2V4.8C24 2.14903 21.851 0 19.2 0Z" fill="#9633CA"/>
<path d="M6.59002 13.6C6.56002 15.61 6.42002 17.03 6.14002 18.56L4.58002 17.73C4.89002 16.51 5.02002 15.41 5.03002 13.46L6.59002 13.6ZM4.67002 10.92C4.94002 10.97 5.11002 10.98 5.50002 10.98H6.00002C6.20002 10.7 6.27002 10.62 6.51002 10.28C5.96002 9.52 5.29002 8.7 4.62002 7.99L5.67002 5.99L6.08002 6.44C6.50002 5.69 6.75002 5.1 6.98002 4.35L9.01002 5.07C8.87002 5.3 8.85002 5.32 8.48002 6.07C8.15002 6.69 7.68002 7.49 7.36002 7.99C7.45335 8.11666 7.57668 8.27333 7.73002 8.46C8.49002 7.23 8.92002 6.49 9.09002 6.04L10.95 6.99C10.78 7.21 10.62 7.44 10.17 8.14C9.89002 8.58 9.80002 8.72 9.06002 9.73L10.37 9.26C10.68 10.15 10.81 10.52 11.06 11.49V6.95C11.06 6.2 11.04 5.72 11 5.08C11.62 5.14 12.09 5.16 13.11 5.16H16.71C18 5.16 18.47 5.14 18.97 5.08C18.92 5.64 18.91 6.25 18.91 7.23V16.93C18.91 18.05 18.94 18.61 19 19.08H16.68V18.32H13.22V19.08H10.97C11.03 18.5 11.06 17.96 11.06 17.08V12.82L9.84002 13.27L9.76002 12.74C9.31002 12.8 9.29002 12.8 9.00002 12.82V17.47C9.00002 18.39 9.02002 18.67 9.09002 19.2H6.84002C6.92002 18.65 6.93002 18.37 6.93002 17.47V12.95C6.01002 13 5.84002 13.01 5.57002 13.01C5.21002 13.03 5.04002 13.04 4.84002 13.09L4.67002 10.91V10.92ZM8.18002 10.92C8.40002 10.9 8.77002 10.89 9.30002 10.86C9.26002 10.7067 9.15002 10.37 8.97002 9.85C8.63002 10.32 8.36002 10.68 8.17002 10.93L8.18002 10.92ZM10.49 13.45C10.65 14.67 10.71 15.7 10.76 17.29L9.50002 17.6V16.84C9.50002 15.97 9.42002 14.8 9.28002 13.7L10.5 13.45H10.49ZM13.16 10.63H14V7.35H13.16V10.63ZM13.16 16.18H14V12.78H13.16V16.18ZM15.84 10.64H16.7V7.36H15.84V10.64ZM15.84 16.19H16.7V12.79H15.84V16.19Z" fill="white"/>
</g>
<defs>
<clipPath id="clip0_54_159">
<rect width="24" height="24" rx="4" fill="white"/>
</clipPath>
</defs>
</svg>
