<svg width="24" height="24" viewBox="0 0 24 24" fill="none" xmlns="http://www.w3.org/2000/svg">
<g clip-path="url(#clip0_54_150)">
<path d="M19.2 0H4.8C2.14903 0 0 2.14903 0 4.8V19.2C0 21.851 2.14903 24 4.8 24H19.2C21.851 24 24 21.851 24 19.2V4.8C24 2.14903 21.851 0 19.2 0Z" fill="#2C6A97"/>
<path d="M16.4 16.06C15.21 14.84 14.73 14.39 13.45 13.3C12.14 14.58 11.16 15.28 9.27001 16.31H17.13C18.13 16.31 18.67 16.28 19.05 16.23V18.63C18.61 18.57 18.04 18.54 17.15 18.54H7.63V19.16H5.13C5.19 18.61 5.21 18.13 5.21 17.26V6.73C5.21 6.06 5.19 5.56 5.15 5.04C5.66 5.09 6.04 5.1 6.88 5.1H16.88C17.91 5.1 18.36 5.08 18.89 5.01V7.41C18.38 7.35 17.92 7.33 16.96 7.33H15.38L17.3 8.22C17.02 8.63 16.96 8.72 16.75 9.06C16.25 9.9 15.72 10.68 15.11 11.45C16.23 12.31 17 12.96 18.32 14.15L16.39 16.05L16.4 16.06ZM7.63 14.34C9.1 13.7 10.27 12.94 11.55 11.78C10.4 10.91 9.65 10.41 8.32 9.6L10.04 7.93C11.55 8.88 11.96 9.15 13.22 10.04C13.91 9.18 14.61 8.04 14.86 7.34H7.64V14.35L7.63 14.34ZM9.14001 16.31C8.73001 15.67 8.39 15.26 7.63 14.55V16.31H9.14001Z" fill="white"/>
</g>
<defs>
<clipPath id="clip0_54_150">
<rect width="24" height="24" rx="4" fill="white"/>
</clipPath>
</defs>
</svg>
