<svg width="24" height="24" viewBox="0 0 24 24" fill="none" xmlns="http://www.w3.org/2000/svg">
<g clip-path="url(#clip0_54_153)">
<path d="M19.2 0H4.8C2.14903 0 0 2.14903 0 4.8V19.2C0 21.851 2.14903 24 4.8 24H19.2C21.851 24 24 21.851 24 19.2V4.8C24 2.14903 21.851 0 19.2 0Z" fill="#5BA402"/>
<path d="M7.70001 7.97C6.73001 7.97 6.19001 7.99 5.47001 8.06V5.53C6.03001 5.59 6.69001 5.62 7.73001 5.62H16.22C17.25 5.62 17.76 5.6 18.45 5.53V8.06C17.7 7.98 17.19 7.97 16.23 7.97H13.11V15.74H16.79C17.79 15.74 18.43 15.71 19.18 15.63V18.2C18.51 18.12 17.71 18.09 16.78 18.09H7.09001C6.19001 18.09 5.50001 18.12 4.70001 18.2V15.63C5.48001 15.71 6.07001 15.74 7.13001 15.74H10.55V7.97H7.70001Z" fill="white"/>
</g>
<defs>
<clipPath id="clip0_54_153">
<rect width="24" height="24" rx="4" fill="white"/>
</clipPath>
</defs>
</svg>
