<svg width="24" height="24" viewBox="0 0 24 24" fill="none" xmlns="http://www.w3.org/2000/svg">
<g clip-path="url(#clip0_54_147)">
<path d="M19.2 0H4.8C2.14903 0 0 2.14903 0 4.8V19.2C0 21.851 2.14903 24 4.8 24H19.2C21.851 24 24 21.851 24 19.2V4.8C24 2.14903 21.851 0 19.2 0Z" fill="#D92753"/>
<path d="M13.89 10.24C14.34 11.41 14.9 12.42 15.58 13.29C16.2 14.11 16.91 14.82 17.7 15.4C18.2 15.78 18.87 16.2 19.7 16.68L18.06 19.3C16.98 18.64 16.12 18.05 15.48 17.52C14.46 16.66 13.55 15.57 12.75 14.25C12.51 13.85 12.33 13.52 12.2 13.25C11.56 14.48 10.69 15.63 9.59 16.69C8.81001 17.43 7.63 18.29 6.04 19.27L4.38 16.66C5.5 16 6.35 15.46 6.93 15.02C8.02 14.2 8.87 13.27 9.46 12.24C9.79 11.67 10.06 11 10.27 10.24H4.79V7.55H10.59V4.66H13.45V7.55H19.22V10.24H13.89Z" fill="white"/>
</g>
<defs>
<clipPath id="clip0_54_147">
<rect width="24" height="24" rx="4" fill="white"/>
</clipPath>
</defs>
</svg>
