<svg width="24" height="24" viewBox="0 0 24 24" fill="none" xmlns="http://www.w3.org/2000/svg">
<g clip-path="url(#clip0_54_156)">
<path d="M19.2 0H4.8C2.14903 0 0 2.14903 0 4.8V19.2C0 21.851 2.14903 24 4.8 24H19.2C21.851 24 24 21.851 24 19.2V4.8C24 2.14903 21.851 0 19.2 0Z" fill="#FDD001"/>
<path d="M10.07 12.52C9.73003 13.13 9.63003 13.35 9.31003 14.44C8.95003 13.94 8.95003 13.93 8.65003 13.38C8.67003 13.69 8.68003 14.18 8.68003 14.72V17.33C8.68003 18.23 8.70003 18.69 8.76003 19.2H6.36003C6.42003 18.61 6.45003 18.08 6.45003 17.34V15.75C6.45003 15.31 6.47003 14.64 6.50003 14.35C6.13003 15.35 5.88003 15.8 5.28003 16.63C5.03003 15.69 4.77003 14.99 4.34003 14.24C5.17003 13.34 5.90003 11.99 6.27003 10.73H5.72003C5.35003 10.73 5.03003 10.76 4.71003 10.81V8.52C5.07003 8.58 5.38003 8.6 5.79003 8.6H6.45003V7.46C6.06003 7.54 5.86003 7.57 5.30003 7.66C5.05003 6.82 4.88003 6.35 4.54003 5.57C6.37003 5.35 8.28003 4.85 9.02003 4.42L10.13 6.43C10.0567 6.45 9.95336 6.48666 9.82003 6.54C9.43003 6.68 9.18003 6.76 8.70003 6.9V8.6H8.81003C9.18003 8.6 9.45003 8.58 9.67003 8.55V7.08C9.98003 7.11 10.53 7.14 11.15 7.14H13.22V6.7C12.28 6.73 11.88 6.73 10.55 6.75C10.36 6.05 10.18 5.6 9.83003 5.03C10.52 5.05 11.08 5.06 11.33 5.06C13.87 5.06 16.84 4.78 17.68 4.45L18.97 6.2C18.8967 6.22 18.76 6.24667 18.56 6.28C17.84 6.4 16.53 6.53 15.35 6.61V7.14H17.63C18.21 7.14 18.77 7.11 19.21 7.05V8.91C18.85 8.86 18.41 8.85 17.81 8.85H15.36V9.3H17.06C17.95 9.3 18.25 9.28 18.65 9.25C18.6 9.69 18.59 9.95 18.59 10.58V13.08C18.59 13.75 18.61 14.09 18.65 14.52C18.26 14.49 18.01 14.47 17.36 14.47H15.36V14.95H17.25C18.05 14.95 18.34 14.93 18.78 14.89V16.64C18.31 16.59 17.81 16.58 17.25 16.58H15.36V17.09H17.47C18.17 17.09 18.83 17.06 19.22 17.03V18.98C18.74 18.92 18.14 18.89 17.35 18.89H11.19C10.41 18.89 9.79003 18.92 9.32003 18.98V17.03C9.68003 17.06 10.4 17.09 11.13 17.09H13.24V16.58H11.43C10.65 16.58 10.35 16.6 9.85003 16.63V14.9C10.27 14.95 10.61 14.96 11.46 14.96H13.24V14.48H11.34C10.65 14.48 10.39 14.5 10.08 14.53C10.11 14.09 10.11 13.86 10.11 13.05V12.55L10.07 12.52ZM10.07 10.65C10.07 9.87 10.07 9.7 10.04 9.25C10.41 9.28 10.7 9.3 11.49 9.3H13.21V8.85H11.18C10.59 8.85 10.01 8.87 9.71003 8.9V10.8C9.40003 10.75 9.16003 10.74 8.73003 10.74C9.24003 11.61 9.48003 11.89 10.07 12.41V10.66V10.65ZM12.11 10.65V11.23H13.2V10.65H12.11ZM12.11 12.49V13.08H13.2V12.49H12.11ZM16.49 11.23V10.65H15.34V11.23H16.49ZM16.49 13.09V12.5H15.34V13.09H16.49Z" fill="white"/>
</g>
<defs>
<clipPath id="clip0_54_156">
<rect width="24" height="24" rx="4" fill="white"/>
</clipPath>
</defs>
</svg>
