<?xml version="1.0" encoding="UTF-8"?>
<svg id="Layer_1" data-name="Layer 1" xmlns="http://www.w3.org/2000/svg" viewBox="0 0 60 60">
  <defs>
    <style>
      .cls-1 {
        fill: #fff;
      }

      .cls-2 {
        fill: #6a6a6a;
      }
    </style>
  </defs>
  <circle class="cls-2" cx="30.07" cy="30" r="22.8"/>
  <path class="cls-1" d="M37.24,29.97c1.44,1.2,3.02,2.21,4.7,2.93-.84.72-1.97,2.14-2.54,3.07-.74-.41-1.46-.84-2.16-1.34v6.7h-3.65v-10.03c-.94-1.06-1.8-2.21-2.59-3.43-1.82,6.41-5.02,10.87-9.17,13.27-.58-.77-1.92-2.09-2.79-2.62,2.52-1.3,4.58-3.22,6.19-5.76-.82-.77-1.97-1.63-3.02-2.35-.34.41-.67.82-1.03,1.18-.62-.6-2.09-1.75-2.9-2.26,2.64-2.38,4.58-6.43,5.59-10.78l3.48.72c-.24.91-.5,1.82-.82,2.71h2.69l.6-.12,2.3.77c-.12.74-.24,1.46-.38,2.18l.91-.34c.26.53.58,1.03.94,1.54v-7.37h3.65v11.33ZM25.24,25.26c-.38.86-.79,1.68-1.25,2.45.98.6,2.02,1.27,2.83,1.92.53-1.32.98-2.78,1.32-4.37h-2.9Z"/>
</svg>