<svg width="24" height="24" viewBox="0 0 24 24" fill="none" xmlns="http://www.w3.org/2000/svg">
<path d="M12 21.45C6.78999 21.45 2.54999 17.21 2.54999 12C2.54999 6.79 6.78999 2.55 12 2.55C17.21 2.55 21.45 6.79 21.45 12C21.45 17.21 17.21 21.45 12 21.45ZM12 4.05C7.61999 4.05 4.04999 7.62 4.04999 12C4.04999 16.38 7.61999 19.95 12 19.95C16.38 19.95 19.95 16.38 19.95 12C19.95 7.62 16.38 4.05 12 4.05Z" fill="#FF0000"/>
<path d="M15.16 10.61C15.82 10.79 16.64 10.94 17.63 11.07L17.01 12.64L16.42 12.53V17.37H14.74V15.74H11.61C11.47 16.05 11.3 16.33 11.11 16.58C10.91 16.83 10.6 17.13 10.18 17.49L8.78999 16.38C9.32999 15.94 9.70998 15.53 9.93998 15.15C10.26 14.62 10.42 13.94 10.42 13.11V12.5L9.77998 12.59L9.15999 11.14L8.46999 12.1C7.81999 11.62 7.11999 11.18 6.35999 10.78L7.44999 9.4C8.14999 9.78 8.83999 10.19 9.50999 10.64L9.20999 11.07C10.26 10.93 11.11 10.78 11.76 10.61C11.26 10.19 10.79 9.63 10.34 8.93H9.64998V7.99L8.68998 9.22C7.95998 8.67 7.26999 8.23 6.62999 7.9L7.71999 6.49C8.46999 6.9 9.10998 7.29 9.64998 7.67V7.34H12.56V6.51H14.31V7.34H17.38V8.92H16.56C16.09 9.65 15.63 10.2 15.17 10.58L15.16 10.61ZM6.53999 16.36C7.07999 15.12 7.56999 13.8 8.01999 12.4L9.42999 13.17C9.04999 14.65 8.58999 16.06 8.04999 17.39L6.54999 16.36H6.53999ZM14.75 13.84H12.02C12.02 13.84 12.01 13.9 12.01 13.95C12.01 14.11 11.98 14.29 11.95 14.48H14.75V13.85V13.84ZM13.48 11.67C13.03 11.87 12.55 12.05 12.04 12.19V12.58H14.75V12.13C14.31 12 13.89 11.84 13.48 11.67ZM12.18 8.94C12.58 9.37 13.01 9.71 13.48 9.96C13.95 9.72 14.36 9.38 14.72 8.94H12.18Z" fill="#FF0000"/>
</svg>
