<svg width="24" height="24" viewBox="0 0 24 24" fill="none" xmlns="http://www.w3.org/2000/svg">
<path d="M12 21.37C17.1749 21.37 21.37 17.1749 21.37 12C21.37 6.82509 17.1749 2.63 12 2.63C6.8251 2.63 2.63 6.82509 2.63 12C2.63 17.1749 6.8251 21.37 12 21.37Z" fill="white"/>
<path d="M12 22.12C6.42 22.12 1.88 17.58 1.88 12C1.88 6.42 6.42 1.88 12 1.88C17.58 1.88 22.12 6.42 22.12 12C22.12 17.58 17.58 22.12 12 22.12ZM12 3.38C7.25 3.38 3.38001 7.25 3.38001 12C3.38001 16.75 7.25 20.62 12 20.62C16.75 20.62 20.62 16.75 20.62 12C20.62 7.25 16.75 3.38 12 3.38Z" fill="black"/>
<path d="M16.16 12.75H7.94997C7.54997 12.75 7.21997 12.41 7.21997 12C7.21997 11.59 7.54997 11.25 7.94997 11.25H16.16C16.56 11.25 16.89 11.59 16.89 12C16.89 12.41 16.56 12.75 16.16 12.75Z" fill="black"/>
</svg>
