<svg width="24" height="24" viewBox="0 0 24 24" fill="none" xmlns="http://www.w3.org/2000/svg">
<path d="M12 21.37C17.1749 21.37 21.37 17.1749 21.37 12C21.37 6.82509 17.1749 2.63 12 2.63C6.8251 2.63 2.63 6.82509 2.63 12C2.63 17.1749 6.8251 21.37 12 21.37Z" fill="white"/>
<path d="M12 22.12C6.42 22.12 1.88 17.58 1.88 12C1.88 6.42 6.42 1.88 12 1.88C17.58 1.88 22.12 6.42 22.12 12C22.12 17.58 17.58 22.12 12 22.12ZM12 3.38C7.25 3.38 3.38001 7.25 3.38001 12C3.38001 16.75 7.25 20.62 12 20.62C16.75 20.62 20.62 16.75 20.62 12C20.62 7.25 16.75 3.38 12 3.38Z" fill="black"/>
<path d="M16.2 11.25H12.81V7.86C12.81 7.47 12.47 7.15 12.06 7.15C11.65 7.15 11.31 7.47 11.31 7.86V11.25H7.92002C7.53002 11.25 7.21002 11.59 7.21002 12C7.21002 12.41 7.53002 12.75 7.92002 12.75H11.31V16.14C11.31 16.53 11.65 16.85 12.06 16.85C12.47 16.85 12.81 16.53 12.81 16.14V12.75H16.2C16.59 12.75 16.91 12.41 16.91 12C16.91 11.59 16.59 11.25 16.2 11.25Z" fill="black"/>
</svg>
