<svg width="24" height="24" viewBox="0 0 24 24" fill="none" xmlns="http://www.w3.org/2000/svg">
<path fill-rule="evenodd" clip-rule="evenodd" d="M20.42 3.38001C20.21 3.24001 19.95 3.21001 19.72 3.30001L14.97 5.20001L9.23 3.29001C9.15 3.26001 9.08 3.25001 9 3.25001H8.97C8.91 3.25001 8.84 3.25001 8.78 3.28001L3.78 4.78001C3.46 4.88001 3.25 5.17001 3.25 5.50001V19.5C3.25 19.74 3.36 19.96 3.55 20.1C3.74 20.24 3.99 20.28 4.21 20.22L8.95 18.8L14.7 21.2C14.79 21.24 14.89 21.26 14.99 21.26C15.1 21.26 15.21 21.23 15.3 21.19H15.32L20.32 18.69C20.57 18.56 20.74 18.3 20.74 18.02V4.00001C20.74 3.75001 20.62 3.52001 20.41 3.38001H20.42ZM19.25 17.54L15.75 19.29V17.25H14.25V19.38L9.75 17.5V17.25H8.25V17.44L4.75 18.49V6.06001L8.25 5.01001V6.75001H9.75V5.04001L14.25 6.54001V6.75001H15.75V6.51001L19.25 5.11001V17.54ZM9.902 11.8139C9.92342 11.823 9.94581 11.8323 9.96905 11.8419L9.96906 11.8419C10.0365 11.8697 10.1111 11.9005 10.19 11.94C10.52 12.08 10.76 12.27 10.91 12.51C11.13 12.85 11.24 13.26 11.24 13.73C11.24 14.48 10.99 15.07 10.48 15.48C10.19 15.71 9.85999 15.87 9.50999 15.96C9.14999 16.05 8.73999 16.1 8.29999 16.1C7.14999 16.1 6.35999 15.75 5.94999 15.04C5.69999 14.61 5.55999 14.08 5.50999 13.45L7.04999 13.16L7.05717 13.22L7.05717 13.22C7.08334 13.439 7.10245 13.599 7.12999 13.7C7.20999 14.06 7.36999 14.34 7.61999 14.52C7.81999 14.67 8.07999 14.74 8.38999 14.74C8.72999 14.74 9.01999 14.65 9.23999 14.46C9.45999 14.26 9.56999 13.99 9.56999 13.63C9.56999 13.23 9.45999 12.94 9.24999 12.76C9.09999 12.64 8.85999 12.57 8.51999 12.57H7.82999V11.34H8.47999C8.68999 11.34 8.83999 11.3 8.94999 11.23C9.20999 11.04 9.33999 10.74 9.33999 10.33C9.33999 10 9.24999 9.74 9.06999 9.55C8.88999 9.37 8.65999 9.29 8.37999 9.29C7.95999 9.29 7.64999 9.47 7.44999 9.82C7.33999 10 7.24999 10.32 7.18999 10.76L5.65999 10.49C5.72999 9.8 5.94999 9.23 6.33999 8.77C6.80999 8.22 7.49999 7.94 8.41999 7.94C9.21999 7.94 9.85999 8.15 10.32 8.56C10.78 8.96 11.01 9.48 11.01 10.13C11.01 10.7 10.84 11.14 10.5 11.45C10.4034 11.537 10.204 11.6613 9.902 11.8139ZM12.58 8.04999V15.96H15.18C17.38 15.96 18.48 14.66 18.48 12.06C18.48 11.23 18.36 10.5 18.11 9.86999C17.82 9.09999 17.33 8.57999 16.65 8.29999C16.24 8.12999 15.72 8.04999 15.09 8.04999H12.58ZM15.16 14.5H14.19V14.49V9.52999H15.09C15.34 9.52999 15.54 9.54999 15.69 9.59999C15.96 9.69999 16.18 9.88999 16.36 10.16C16.67 10.62 16.82 11.25 16.82 12.06C16.82 12.87 16.66 13.48 16.35 13.92C16.08 14.31 15.69 14.5 15.16 14.5Z" fill="black"/>
</svg>
