<svg width="24" height="24" viewBox="0 0 24 24" fill="none" xmlns="http://www.w3.org/2000/svg">
<path fill-rule="evenodd" clip-rule="evenodd" d="M20 12C20 7.59 16.41 4 12 4C7.59 4 4 7.59 4 12C4 14.0277 4.75896 15.882 6.00763 17.2937C7.59885 15.8676 9.69755 15 12 15H12.02C14.3171 15 16.4113 15.8635 18.0012 17.2837C19.2446 15.8733 20 14.0229 20 12ZM12 20C10.1616 20 8.46578 19.3762 7.11306 18.3291C8.42699 17.1922 10.1403 16.5 12.01 16.5C13.8762 16.5 15.5805 17.1896 16.8954 18.3226C15.5413 19.3736 13.8422 20 12 20ZM12 21.5C14.2478 21.5 16.3123 20.7209 17.9383 19.4179L17.94 19.42C18.2914 19.1407 18.6266 18.8289 18.9382 18.4919C20.5275 16.7939 21.5 14.5114 21.5 12C21.5 6.75 17.25 2.5 12 2.5C6.75 2.5 2.5 6.75 2.5 12C2.5 17.25 6.75 21.5 12 21.5ZM14.5 10C14.5 8.62 13.38 7.5 12 7.5C10.62 7.5 9.5 8.62 9.5 10C9.5 11.38 10.62 12.5 12 12.5C13.38 12.5 14.5 11.38 14.5 10ZM8 10C8 7.79 9.79 6 12 6C14.21 6 16 7.79 16 10C16 12.21 14.21 14 12 14C9.79 14 8 12.21 8 10Z" fill="black"/>
</svg>
