<svg width="24" height="24" viewBox="0 0 24 24" fill="none" xmlns="http://www.w3.org/2000/svg">
<path fill-rule="evenodd" clip-rule="evenodd" d="M18.25 8.5C18.25 10.76 17.04 12.74 15.23 13.84H15.21C18.57 15.1 21.01 18.25 21.21 22H19.71C19.45 17.96 16.09 14.75 11.99 14.75C7.89002 14.75 4.53002 17.96 4.27002 22H2.77002C2.98002 18.25 5.41002 15.1 8.77002 13.84C6.96002 12.74 5.75002 10.76 5.75002 8.5C5.75002 5.05 8.55002 2.25 12 2.25C15.45 2.25 18.25 5.05 18.25 8.5ZM12 3.75C9.38002 3.75 7.25002 5.88 7.25002 8.5C7.25002 11.12 9.38002 13.25 12 13.25C14.62 13.25 16.75 11.12 16.75 8.5C16.75 5.88 14.62 3.75 12 3.75Z" fill="black"/>
</svg>
