<svg width="24" height="24" viewBox="0 0 24 24" fill="none" xmlns="http://www.w3.org/2000/svg">
<path fill-rule="evenodd" clip-rule="evenodd" d="M12.74 12V7.23C14.14 5.68 18.31 4.98 20.59 6.32V12.01H22V5.91C22 5.66 21.89 5.43 21.69 5.29C19.18 3.45 14.22 3.88 12 5.93C9.78001 3.87 4.81001 3.45 2.31001 5.29C2.12001 5.43 2.01001 5.66 2.01001 5.91V18C2.01001 18.24 2.12001 18.47 2.31001 18.61C2.50001 18.75 2.74001 18.79 2.95001 18.71C4.28001 18.22 5.58001 17.99 6.93001 17.99C6.96001 17.99 9.94001 18 11.58 19.2C11.7 19.29 11.84 19.33 11.98 19.33H12.02H12.06C12.2 19.33 12.34 19.29 12.46 19.2C12.5304 19.1453 12.6191 19.1028 12.7023 19.0629L12.7023 19.0629C12.7255 19.0518 12.7482 19.0409 12.77 19.03V12.02L12.74 12ZM11.33 17.36C9.45001 16.51 7.20001 16.48 6.91001 16.48C5.73001 16.48 4.57001 16.64 3.41001 16.98V6.31C5.73001 4.95 10.02 5.7 11.33 7.32V17.36ZM21.29 17.25H18.75V14.71C18.75 14.32 18.41 14 18 14C17.59 14 17.25 14.32 17.25 14.71V17.25H14.71C14.32 17.25 14 17.59 14 18C14 18.41 14.32 18.75 14.71 18.75H17.25V21.29C17.25 21.68 17.59 22 18 22C18.41 22 18.75 21.68 18.75 21.29V18.75H21.29C21.68 18.75 22 18.41 22 18C22 17.59 21.68 17.25 21.29 17.25Z" fill="black"/>
</svg>
