<?xml version="1.0" encoding="UTF-8"?>
<svg id="Layer_1" data-name="Layer 1" xmlns="http://www.w3.org/2000/svg" viewBox="0 0 60 60">
  <defs>
    <style>
      .cls-1 {
        fill: #2e7d32;
        fill-rule: evenodd;
      }
    </style>
  </defs>
  <path class="cls-1" d="M30.98,44.36c.66.66.66,1.74,0,2.4h-.02c-.66.66-1.74.66-2.4,0l-15.57-15.54s-.06-.08-.09-.13c-.02-.03-.03-.05-.05-.07-.02-.02-.03-.04-.05-.06-.07-.09-.14-.17-.18-.28-.09-.2-.14-.43-.14-.66s.05-.45.14-.66.2-.38.36-.54l15.57-15.57c.66-.66,1.74-.66,2.4,0,.66.66.66,1.74,0,2.4l-12.67,12.67h27.51c.93,0,1.7.77,1.7,1.7s-.77,1.7-1.7,1.7h-27.49l12.67,12.65Z"/>
</svg>