<svg width="24" height="24" viewBox="0 0 24 24" fill="none" xmlns="http://www.w3.org/2000/svg">
<path fill-rule="evenodd" clip-rule="evenodd" d="M18.3401 11.03C18.6301 10.74 19.1101 10.74 19.4001 11.03V11.04C19.6901 11.33 19.6901 11.81 19.4001 12.1L12.5301 18.98C12.5167 18.9933 12.4945 19.0067 12.4723 19.02C12.4612 19.0267 12.4501 19.0333 12.4401 19.04C12.4308 19.0474 12.4219 19.0548 12.4132 19.0621C12.3746 19.0941 12.339 19.1237 12.2901 19.14C12.2001 19.18 12.1001 19.2 12.0001 19.2C11.9001 19.2 11.8001 19.18 11.7101 19.14C11.6201 19.1 11.5401 19.05 11.4701 18.98L4.59006 12.1C4.30006 11.81 4.30006 11.33 4.59006 11.04C4.88006 10.75 5.36006 10.75 5.65006 11.04L11.2501 16.64V4.48999C11.2501 4.07999 11.5901 3.73999 12.0001 3.73999C12.4101 3.73999 12.7501 4.07999 12.7501 4.48999V16.63L18.3401 11.03Z" fill="black"/>
</svg>
