<svg width="24" height="24" viewBox="0 0 24 24" fill="none" xmlns="http://www.w3.org/2000/svg">
<path fill-rule="evenodd" clip-rule="evenodd" d="M18.3401 12.9C18.6301 13.19 19.1101 13.19 19.4001 12.9C19.6901 12.61 19.6901 12.13 19.4001 11.84L12.5301 4.95999C12.5167 4.94666 12.4945 4.93332 12.4723 4.91999C12.4612 4.91332 12.4501 4.90666 12.4401 4.89999C12.4308 4.89259 12.4219 4.8852 12.4132 4.87792C12.3746 4.84588 12.339 4.81629 12.2901 4.79999C12.2001 4.75999 12.1001 4.73999 12.0001 4.73999C11.9001 4.73999 11.8001 4.75999 11.7101 4.79999C11.6201 4.83999 11.5401 4.88999 11.4701 4.95999L4.59007 11.84C4.30007 12.13 4.30007 12.61 4.59007 12.9C4.88007 13.19 5.36007 13.19 5.65007 12.9L11.2501 7.29999V19.45C11.2501 19.86 11.5901 20.2 12.0001 20.2C12.4101 20.2 12.7501 19.86 12.7501 19.45V7.29999L18.3401 12.9Z" fill="black"/>
</svg>
