<svg width="24" height="24" viewBox="0 0 24 24" fill="none" xmlns="http://www.w3.org/2000/svg">
<path fill-rule="evenodd" clip-rule="evenodd" d="M5.22 8.89H15.53V8.88C18.24 8.88 21.26 11.2 21.26 14.53C21.26 17.64 18.54 20.48 15.56 20.48H6.6C6.19 20.48 5.85 20.14 5.85 19.73C5.85 19.32 6.19 18.98 6.6 18.98H15.57C17.73 18.98 19.77 16.9 19.77 14.53C19.77 12.16 17.54 10.38 15.54 10.38H5.22L9.06001 14.73C9.33001 15.04 9.3 15.52 8.99 15.79C8.84 15.92 8.67 15.98 8.49 15.98C8.29 15.98 8.08 15.9 7.93 15.73L2.79 9.9C2.66 9.75 2.66 9.52 2.79 9.37L7.93 3.56C8.21 3.25 8.68 3.23 8.99 3.5C9.3 3.78 9.32 4.25 9.05 4.56L5.22 8.89Z" fill="black"/>
</svg>
