<?xml version="1.0" encoding="UTF-8"?>
<svg id="a" data-name="レイヤー 2" xmlns="http://www.w3.org/2000/svg" width="24" height="24" viewBox="0 0 24 24">
  <path d="M17.6,7h-.7c-.22,0-.4.18-.4.4v7.6c0,2.48-2.02,4.5-4.5,4.5s-4.5-2.02-4.5-4.5v-7.75c0-1.52,1.23-2.75,2.75-2.75s2.75,1.23,2.75,2.75v7.25c0,.55-.45,1-1,1s-1-.45-1-1v-7.1c0-.22-.18-.4-.4-.4h-.7c-.22,0-.4.18-.4.4v7.1c0,1.38,1.12,2.5,2.5,2.5s2.5-1.12,2.5-2.5v-7.25c0-2.35-1.9-4.25-4.25-4.25s-4.25,1.9-4.25,4.25v7.75c0,3.31,2.69,6,6,6s6-2.69,6-6v-7.6c0-.22-.18-.4-.4-.4Z"/>
</svg>