<?xml version="1.0" encoding="UTF-8"?>
<svg id="a" data-name="レイヤー 2" xmlns="http://www.w3.org/2000/svg" width="24" height="24" viewBox="0 0 24 24">
  <path d="M20.35,16.25h-2.35v-2.35c0-.22-.18-.4-.4-.4h-.7c-.22,0-.4.18-.4.4v2.35h-2.35c-.22,0-.4.18-.4.4v.7c0,.22.18.4.4.4h2.35v2.35c0,.22.18.4.4.4h.7c.22,0,.4-.18.4-.4v-2.35h2.35c.22,0,.4-.18.4-.4v-.7c0-.22-.18-.4-.4-.4Z"/>
  <g>
    <path d="M14.5,7.25c0-2.35-1.9-4.25-4.25-4.25s-4.25,1.9-4.25,4.25v7.75c0,3.31,2.69,6,6,6,.7,0,1.37-.14,2-.36v-1.63c-.6.31-1.28.49-2,.49-2.48,0-4.5-2.02-4.5-4.5v-7.75c0-1.52,1.23-2.75,2.75-2.75s2.75,1.23,2.75,2.75v6.75h1.5v-6.75Z"/>
    <path d="M11,14v-6.6c0-.22-.18-.4-.4-.4h-.7c-.22,0-.4.18-.4.4v7.1c0,1.02.62,1.9,1.5,2.28v-2.78Z"/>
    <path d="M17.6,7h-.7c-.22,0-.4.18-.4.4v3.85h1.5v-3.85c0-.22-.18-.4-.4-.4Z"/>
  </g>
</svg>