<svg width="24" height="24" viewBox="0 0 24 24" fill="none" xmlns="http://www.w3.org/2000/svg">
<path fill-rule="evenodd" clip-rule="evenodd" d="M13.5 3.5V4.18958C16.0858 4.85682 18 7.20782 18 10V16.5H19.25C19.6642 16.5 20 16.8358 20 17.25C20 17.6642 19.6642 18 19.25 18H18H6H4.75C4.33579 18 4 17.6642 4 17.25C4 16.8358 4.33579 16.5 4.75 16.5H6V10C6 7.20782 7.91419 4.85682 10.5 4.18957V3.5C10.5 2.67 11.17 2 12 2C12.83 2 13.5 2.67 13.5 3.5ZM16.5 10C16.5 7.52 14.48 5.5 12 5.5C9.52 5.5 7.5 7.52 7.5 10V16.5H16.5V10ZM14 19C14 20.1 13.1 21 12 21C10.9 21 10 20.1 10 19H14Z" fill="black"/>
</svg>
