<svg width="24" height="24" viewBox="0 0 24 24" fill="none" xmlns="http://www.w3.org/2000/svg">
<path fill-rule="evenodd" clip-rule="evenodd" d="M12 4C16.41 4 20 7.59 20 12C20 16.41 16.41 20 12 20C7.59 20 4 16.41 4 12C4 7.59 7.59 4 12 4ZM12 2.5C6.75 2.5 2.5 6.75 2.5 12C2.5 17.25 6.75 21.5 12 21.5C17.25 21.5 21.5 17.25 21.5 12C21.5 6.75 17.25 2.5 12 2.5ZM11.58 9.49L9.19001 7.1C10.48 6.5 12.06 6.72 13.13 7.79C14.2031 8.86308 14.4357 10.4515 13.8277 11.748L17.2239 15.1442C17.3801 15.3004 17.3801 15.5537 17.2239 15.7099L16.0925 16.8412C15.9363 16.9974 15.6831 16.9974 15.5268 16.8412L12.128 13.4424C10.8334 14.0444 9.25034 13.8103 8.18002 12.74C7.11001 11.68 6.89001 10.09 7.49001 8.8L9.88001 11.19C10.04 11.35 10.29 11.35 10.45 11.19L11.58 10.06C11.74 9.9 11.74 9.65 11.58 9.49Z" fill="black"/>
</svg>
