<svg width="24" height="24" viewBox="0 0 24 24" fill="none" xmlns="http://www.w3.org/2000/svg">
<path fill-rule="evenodd" clip-rule="evenodd" d="M19.5 3.5H4.5V20.5H8V17.65C8 17.4291 8.17909 17.25 8.4 17.25H15.6C15.8209 17.25 16 17.4291 16 17.65V20.5H19.5V3.5ZM21 20.5V2.4C21 2.18 20.82 2 20.6 2H3.4C3.18 2 3 2.18 3 2.4V20.5H2.4C2.17909 20.5 2 20.6791 2 20.9V21.6C2 21.8209 2.17909 22 2.4 22H3.4H20.6H21.6C21.8209 22 22 21.8209 22 21.6V20.9C22 20.6791 21.8209 20.5 21.6 20.5H21ZM9.6 6H6.4C6.17909 6 6 6.17909 6 6.4V7.6C6 7.82091 6.17909 8 6.4 8H9.6C9.82091 8 10 7.82091 10 7.6V6.4C10 6.17909 9.82091 6 9.6 6ZM14.4 6H17.6C17.8209 6 18 6.17909 18 6.4V7.6C18 7.82091 17.8209 8 17.6 8H14.4C14.1791 8 14 7.82091 14 7.6V6.4C14 6.17909 14.1791 6 14.4 6ZM9.6 10H6.4C6.17909 10 6 10.1791 6 10.4V11.6C6 11.8209 6.17909 12 6.4 12H9.6C9.82091 12 10 11.8209 10 11.6V10.4C10 10.1791 9.82091 10 9.6 10ZM14.4 10H17.6C17.8209 10 18 10.1791 18 10.4V11.6C18 11.8209 17.8209 12 17.6 12H14.4C14.1791 12 14 11.8209 14 11.6V10.4C14 10.1791 14.1791 10 14.4 10ZM9.6 14H6.4C6.17909 14 6 14.1791 6 14.4V15.6C6 15.8209 6.17909 16 6.4 16H9.6C9.82091 16 10 15.8209 10 15.6V14.4C10 14.1791 9.82091 14 9.6 14ZM17.6 14H14.4C14.1791 14 14 14.1791 14 14.4V15.6C14 15.8209 14.1791 16 14.4 16H17.6C17.8209 16 18 15.8209 18 15.6V14.4C18 14.1791 17.8209 14 17.6 14Z" fill="black"/>
</svg>
