<svg width="24" height="24" viewBox="0 0 24 24" fill="none" xmlns="http://www.w3.org/2000/svg">
<path fill-rule="evenodd" clip-rule="evenodd" d="M6.37 5.25C6.37 5.66 6.71 6 7.12 6C7.52999 6 7.87 5.66 7.87 5.25V3.25C7.87 2.84 7.52999 2.5 7.12 2.5C6.71 2.5 6.37 2.84 6.37 3.25V5.25ZM21.59 4.52H18.34V5.23C18.34 6.06 17.67 6.73 16.84 6.73C16.01 6.73 15.34 6.06 15.34 5.23V4.52H8.62V5.23C8.62 6.06 7.95 6.73 7.12 6.73C6.29 6.73 5.62 6.06 5.62 5.23V4.52H2.41C2.19 4.52 2 4.7 2 4.93V20.85C2 21.07 2.18 21.25 2.4 21.25H21.6C21.82 21.25 22 21.07 22 20.85V4.93C22 4.71 21.82 4.52 21.59 4.52ZM20.53 19.75H3.46V9.12H20.53V19.75ZM12.67 10.24H14.76V12.33H12.67V10.24ZM16.03 10.24H18.12V12.33H16.03V10.24ZM14.76 13.21H12.67V15.3H14.76V13.21ZM16.03 13.21H18.12V15.3H16.03V13.21ZM8.04001 13.21H5.95001V15.3H8.04001V13.21ZM9.31 13.21H11.4V15.3H9.31V13.21ZM14.76 16.25H12.67V18.34H14.76V16.25ZM16.03 16.25H18.12V18.34H16.03V16.25ZM8.04001 16.25H5.95001V18.34H8.04001V16.25ZM9.31 16.25H11.4V18.34H9.31V16.25ZM16.85 6C16.44 6 16.1 5.66 16.1 5.25V3.25C16.1 2.84 16.44 2.5 16.85 2.5C17.26 2.5 17.6 2.84 17.6 3.25V5.25C17.6 5.66 17.26 6 16.85 6Z" fill="black"/>
</svg>
