<svg width="24" height="24" viewBox="0 0 24 24" fill="none" xmlns="http://www.w3.org/2000/svg">
<path fill-rule="evenodd" clip-rule="evenodd" d="M4.37647 4H19.6235C19.8306 4 20 4.16941 20 4.37647V19.6235C20 19.8306 19.8306 20 19.6235 20H4.37647C4.16941 20 4 19.8306 4 19.6235V4.37647C4 4.16941 4.16941 4 4.37647 4ZM10.9365 15.4918L16.8282 9.6H16.8188C17.0918 9.32706 17.0918 8.87529 16.8188 8.60235C16.5459 8.32941 16.0941 8.32941 15.8212 8.60235L10.6635 13.76L8.16941 11.2659C7.89647 10.9929 7.44471 10.9929 7.17176 11.2659C6.89882 11.5388 6.89882 11.9906 7.17176 12.2635L10.4 15.4918C10.5506 15.6424 10.7859 15.6424 10.9365 15.4918Z" fill="black"/>
</svg>
