<svg width="24" height="24" viewBox="0 0 24 24" fill="none" xmlns="http://www.w3.org/2000/svg">
<path fill-rule="evenodd" clip-rule="evenodd" d="M2 12C2 6.48 6.48 2 12 2C17.52 2 22 6.48 22 12C22 17.52 17.52 22 12 22C6.48 22 2 17.52 2 12ZM9.7 18.39C9.92 18.39 10.13 18.31 10.3 18.14L19.38 9.06C19.71 8.73 19.71 8.19 19.38 7.86C19.05 7.53 18.51 7.53 18.18 7.86L9.7 16.34L5.23 11.87C4.9 11.54 4.36 11.54 4.03 11.87C3.7 12.2 3.7 12.74 4.03 13.07L9.1 18.14C9.26 18.31 9.48 18.39 9.7 18.39Z" fill="black"/>
</svg>
