<svg width="24" height="24" viewBox="0 0 24 24" fill="none" xmlns="http://www.w3.org/2000/svg">
<path fill-rule="evenodd" clip-rule="evenodd" d="M18.8 18.8V5.2H5.2V18.8H18.8ZM4.4 4H19.6C19.82 4 20 4.18 20 4.4V19.6C20 19.82 19.82 20 19.6 20H4.4C4.18 20 4 19.82 4 19.6V4.4C4 4.18 4.18 4 4.4 4ZM16.0702 8.39066L10.5827 13.8782L7.92903 11.2246C7.63912 10.9347 7.15829 10.9347 6.86837 11.2246C6.57846 11.5145 6.57846 11.9953 6.86837 12.2853L10.2978 15.7147C10.4299 15.8468 10.6333 15.8667 10.7869 15.7746C10.8178 15.7572 10.8468 15.7354 10.873 15.7092L17.1309 9.45132C17.4208 9.16141 17.4208 8.68057 17.1309 8.39066C16.841 8.10075 16.3602 8.10075 16.0702 8.39066Z" fill="black"/>
</svg>
