<svg id="Outline" xmlns="http://www.w3.org/2000/svg" width="40" height="40" viewBox="0 0 40 40">
  <defs>
    <style>
      .cls-1 {
        fill: none;
      }
    </style>
  </defs>
  <g>
    <rect class="cls-1" width="40" height="40"/>
    <g>
      <path d="M20,36A16,16,0,1,1,36,20,16.01833,16.01833,0,0,1,20,36ZM20,6A14,14,0,1,0,34,20,14.01572,14.01572,0,0,0,20,6Z"/>
      <path d="M25,26a.99676.99676,0,0,1-.707-.293l-5-5A1.00012,1.00012,0,0,1,19,20V10a1,1,0,0,1,2,0v9.58594l4.707,4.707A1,1,0,0,1,25,26Z"/>
    </g>
  </g>
</svg>
