<svg width="24" height="24" viewBox="0 0 24 24" fill="none" xmlns="http://www.w3.org/2000/svg">
<path fill-rule="evenodd" clip-rule="evenodd" d="M2.25 12C2.25 6.62 6.62 2.25 12 2.25C17.38 2.25 21.75 6.62 21.75 12C21.75 17.38 17.38 21.75 12 21.75C6.62 21.75 2.25 17.38 2.25 12ZM15.67 16.45C15.86 16.45 16.05 16.38 16.2 16.23C16.49 15.94 16.49 15.46 16.2 15.17L13.05 12.02L16.2 8.87C16.49 8.58 16.49 8.1 16.2 7.81C15.91 7.52 15.43 7.52 15.14 7.81L11.99 10.96L8.84 7.81C8.55 7.52 8.07 7.52 7.78 7.81C7.49 8.1 7.49 8.58 7.78 8.87L10.93 12.02L7.78 15.17C7.63 15.32 7.56 15.51 7.56 15.7C7.56 15.89 7.63 16.08 7.78 16.23C8.07 16.52 8.55 16.52 8.84 16.23L11.99 13.08L15.14 16.23C15.29 16.38 15.48 16.45 15.67 16.45Z" fill="black"/>
</svg>
