<svg width="24" height="24" viewBox="0 0 24 24" fill="none" xmlns="http://www.w3.org/2000/svg">
<path fill-rule="evenodd" clip-rule="evenodd" d="M12 21.75C6.62 21.75 2.25 17.38 2.25 12C2.25 6.62 6.62 2.25 12 2.25C17.38 2.25 21.75 6.62 21.75 12C21.75 17.38 17.38 21.75 12 21.75ZM12 3.75C7.45 3.75 3.75 7.45 3.75 12C3.75 16.55 7.45 20.25 12 20.25C16.55 20.25 20.25 16.55 20.25 12C20.25 7.45 16.55 3.75 12 3.75ZM13.04 12.02L16.19 8.87C16.48 8.58 16.48 8.1 16.19 7.81C15.9 7.52 15.42 7.52 15.13 7.81L11.98 10.96L8.82999 7.81C8.53999 7.52 8.05999 7.52 7.76999 7.81C7.47999 8.1 7.47999 8.58 7.76999 8.87L10.92 12.02L7.76999 15.17C7.61999 15.32 7.54999 15.51 7.54999 15.7C7.54999 15.89 7.61999 16.08 7.76999 16.23C8.05999 16.52 8.53999 16.52 8.82999 16.23L11.98 13.08L15.13 16.23C15.28 16.38 15.47 16.45 15.66 16.45C15.85 16.45 16.04 16.38 16.19 16.23C16.48 15.94 16.48 15.46 16.19 15.17L13.04 12.02Z" fill="black"/>
</svg>
