<svg width="24" height="24" viewBox="0 0 24 24" fill="none" xmlns="http://www.w3.org/2000/svg">
<path fill-rule="evenodd" clip-rule="evenodd" d="M20.04 5.01999L13.08 11.98L20.04 18.94C20.33 19.23 20.33 19.71 20.04 20C19.89 20.15 19.7 20.22 19.51 20.22C19.32 20.22 19.13 20.15 18.98 20L12.02 13.04L5.06 20C4.91 20.15 4.72 20.22 4.53 20.22C4.34 20.22 4.15 20.15 4 20C3.71 19.71 3.71 19.23 4 18.94L10.96 11.98L4 5.01999C3.71 4.72999 3.71 4.24999 4 3.95999C4.29 3.66999 4.77 3.66999 5.06 3.95999L12.02 10.92L18.98 3.95999C19.27 3.66999 19.75 3.66999 20.04 3.95999C20.33 4.24999 20.33 4.72999 20.04 5.01999Z" fill="black"/>
</svg>
