<svg width="24" height="24" viewBox="0 0 24 24" fill="none" xmlns="http://www.w3.org/2000/svg">
<path fill-rule="evenodd" clip-rule="evenodd" d="M6.51001 17.55C6.89923 17.56 8.23463 17.56 9.89001 17.56C11.0376 17.56 12.3404 17.5573 13.5867 17.5547C14.7296 17.5523 15.8251 17.55 16.71 17.55H18.49C19.96 17.55 22.11 16.16 22.11 13.99C22.11 12.14 20.42 11.21 19.41 10.83C19.24 8.68001 18.05 6.46001 15.13 6.01001C13.71 4.51001 11.56 4.04001 9.56001 4.82001C7.67001 5.56001 6.42001 7.22001 6.24001 9.17001C5.34001 9.27001 3.96001 9.59001 3.02001 10.6C2.32001 11.35 2.00001 12.32 2.08001 13.47C2.28001 16.39 4.59001 17.5 6.51001 17.55ZM10.11 6.21001C10.53 6.04001 11.02 5.94001 11.53 5.94001L11.54 5.93001C12.45 5.93001 13.42 6.27001 14.2 7.19001C14.32 7.33001 14.5 7.43001 14.69 7.45001C17.53 7.75001 17.95 10.03 17.95 11.36C17.95 11.69 18.17 11.99 18.49 12.08L18.4934 12.081C18.8609 12.1933 20.63 12.7338 20.63 13.98C20.63 15.23 19.24 16.04 18.51 16.04H16.73C15.7657 16.04 14.4667 16.0431 13.1173 16.0463C10.2547 16.0531 7.16488 16.0604 6.56001 16.04C5.71001 16.02 3.74001 15.71 3.58001 13.36C3.53001 12.62 3.71001 12.05 4.12001 11.61C4.80001 10.88 6.05001 10.62 6.98001 10.62C7.18001 10.62 7.38001 10.54 7.52001 10.39C7.66001 10.24 7.73001 10.05 7.73001 9.84001C7.64001 7.89001 8.90001 6.68001 10.11 6.21001Z" fill="black"/>
</svg>
