<svg width="24" height="24" viewBox="0 0 24 24" fill="none" xmlns="http://www.w3.org/2000/svg">
<path fill-rule="evenodd" clip-rule="evenodd" d="M6.95 2C6.76 2 6.57 2.07 6.42 2.22C6.13 2.51 6.13 2.99 6.42 3.28L11.74 8.6C11.9 8.76 12.15 8.76 12.31 8.6L17.58 3.33C17.87 3.04 17.87 2.56 17.58 2.27C17.29 1.98 16.81 1.98 16.52 2.27L12.02 6.77L7.48 2.22C7.33 2.07 7.14 2 6.95 2ZM17.05 22C17.24 22 17.43 21.93 17.58 21.78C17.87 21.49 17.87 21.01 17.58 20.72L12.26 15.4C12.1 15.24 11.85 15.24 11.69 15.4L6.42 20.67C6.13 20.96 6.13 21.44 6.42 21.73C6.71 22.02 7.19 22.02 7.48 21.73L11.98 17.23L16.52 21.77C16.67 21.92 16.86 21.99 17.05 21.99V22Z" fill="black"/>
</svg>
