<svg width="24" height="24" viewBox="0 0 24 24" fill="none" xmlns="http://www.w3.org/2000/svg">
<path fill-rule="evenodd" clip-rule="evenodd" d="M3.5 20.75C3.44 20.75 3.37 20.75 3.31 20.73C2.98 20.64 2.75 20.34 2.75 20V3.5C2.75 3.09 3.09 2.75 3.5 2.75H20.5C20.91 2.75 21.25 3.09 21.25 3.5V16.5C21.25 16.91 20.91 17.25 20.5 17.25H5.94L4.16 20.37C4.02 20.61 3.77 20.75 3.51 20.75H3.5ZM4.25 4.25V17.18L4.85 16.13C4.98 15.9 5.23 15.75 5.5 15.75H19.75V4.25H4.25ZM15.29 9.25H12.75V6.71C12.75 6.32 12.41 6 12 6C11.59 6 11.25 6.32 11.25 6.71V9.25H8.71C8.32 9.25 8 9.59 8 10C8 10.41 8.32 10.75 8.71 10.75H11.25V13.29C11.25 13.68 11.59 14 12 14C12.41 14 12.75 13.68 12.75 13.29V10.75H15.29C15.68 10.75 16 10.41 16 10C16 9.59 15.68 9.25 15.29 9.25Z" fill="black"/>
</svg>
