<svg width="24" height="24" viewBox="0 0 24 24" fill="none" xmlns="http://www.w3.org/2000/svg">
<path fill-rule="evenodd" clip-rule="evenodd" d="M12 21.45C6.78999 21.45 2.54999 17.21 2.54999 12C2.54999 6.78999 6.78999 2.54999 12 2.54999C17.21 2.54999 21.45 6.78999 21.45 12C21.45 17.21 17.21 21.45 12 21.45ZM12 4.04999C7.61999 4.04999 4.04999 7.61999 4.04999 12C4.04999 16.38 7.61999 19.95 12 19.95C16.38 19.95 19.95 16.38 19.95 12C19.95 7.61999 16.38 4.04999 12 4.04999ZM14.29 13.52V15.37C14.29 15.5 14.34 15.58 14.44 15.6C14.52 15.62 14.69 15.64 14.94 15.64C15.28 15.64 15.5 15.6 15.6 15.51C15.67 15.44 15.72 15.28 15.74 15.03L15.83 14.02L17.49 14.49L17.35 15.91C17.29 16.52 17.1 16.91 16.78 17.08C16.5 17.23 15.82 17.3 14.73 17.3C13.88 17.3 13.34 17.26 13.11 17.18C12.69 17.04 12.48 16.69 12.48 16.13V13.51H11.32C11.25 14.17 11.14 14.68 10.98 15.06C10.68 15.79 10.13 16.35 9.33999 16.76C8.87999 17 8.22999 17.24 7.38999 17.46L6.48999 15.8C7.58999 15.55 8.35999 15.27 8.78999 14.96C9.12999 14.73 9.35999 14.41 9.47999 14C9.50999 13.89 9.54999 13.73 9.59999 13.52H6.74999V11.9H17.45V13.52H14.29ZM16.08 10.23V11.19H8.10999V10.22H6.79999V7.56999H11.12V6.54999H13.07V7.56999H17.37V10.23H16.08ZM8.53999 9.72999H15.63V9.04999H8.53999V9.72999Z" fill="black"/>
</svg>
