<svg width="24" height="24" viewBox="0 0 24 24" fill="none" xmlns="http://www.w3.org/2000/svg">
<path fill-rule="evenodd" clip-rule="evenodd" d="M19.28 2.03H4.72001C4.50001 2.03 4.32001 2.21 4.32001 2.43V21.55C4.32001 21.77 4.50001 21.95 4.72001 21.95H19.29C19.51 21.95 19.69 21.77 19.69 21.55V2.43C19.69 2.21 19.51 2.03 19.29 2.03H19.28ZM9.46001 16.09V20.44H5.82001V3.53H18.19V20.45H14.63V16.1H9.47001L9.46001 16.09ZM9.04001 5.68H7.15001V7.57H9.04001V5.68ZM12.94 5.68H11.05V7.57H12.94V5.68ZM14.95 5.68H16.84V7.57H14.95V5.68ZM9.04001 8.97H7.15001V10.86H9.04001V8.97ZM11.05 8.97H12.94V10.86H11.05V8.97ZM16.84 8.97H14.95V10.86H16.84V8.97ZM7.15001 12.25H9.04001V14.14H7.15001V12.25ZM12.94 12.25H11.05V14.14H12.94V12.25ZM14.95 12.25H16.84V14.14H14.95V12.25Z" fill="black"/>
</svg>
