<svg width="24" height="24" viewBox="0 0 24 24" fill="none" xmlns="http://www.w3.org/2000/svg">
<path fill-rule="evenodd" clip-rule="evenodd" d="M11.31 19.5H5.5V4.5H13.38L13.4 4.52V9.2C13.4 9.42 13.58 9.6 13.8 9.6H18.48L18.5 9.62V10.85C19.04 11.04 19.54 11.31 20 11.63V9L14 3H4.4C4.18 3 4 3.18 4 3.4V20.6C4 20.82 4.18 21 4.4 21H12.54C12.05 20.57 11.64 20.07 11.31 19.5ZM10.6 6.25H6.9C6.67909 6.25 6.5 6.42909 6.5 6.65V7.35C6.5 7.57091 6.67909 7.75 6.9 7.75H10.6C10.8209 7.75 11 7.57091 11 7.35V6.65C11 6.42909 10.8209 6.25 10.6 6.25ZM10.6 11.25H6.9C6.67909 11.25 6.5 11.4291 6.5 11.65V12.35C6.5 12.5709 6.67909 12.75 6.9 12.75H10.6C10.8209 12.75 11 12.5709 11 12.35V11.65C11 11.4291 10.8209 11.25 10.6 11.25ZM10.51 16.25C10.5 16.33 10.5 16.42 10.5 16.5V16.51C10.5 16.93 10.55 17.35 10.63 17.75H10.6H6.9C6.68 17.75 6.5 17.57 6.5 17.35V16.65C6.5 16.43 6.68 16.25 6.9 16.25H10.51ZM19.5 16.5C19.5 14.85 18.15 13.5 16.5 13.5C14.85 13.5 13.5 14.85 13.5 16.5C13.5 18.15 14.85 19.5 16.5 19.5C18.15 19.5 19.5 18.15 19.5 16.5ZM12 16.5C12 14.01 14.01 12 16.5 12C18.99 12 21 14.01 21 16.5C21 17.4721 20.6937 18.371 20.1721 19.1057L21.4492 20.3828C21.6054 20.539 21.6054 20.7923 21.4492 20.9485L20.9542 21.4435C20.798 21.5997 20.5447 21.5997 20.3885 21.4435L19.1124 20.1673C18.3764 20.6918 17.475 21 16.5 21C14.01 21 12 18.99 12 16.5Z" fill="black"/>
</svg>
