<svg width="24" height="24" viewBox="0 0 24 24" fill="none" xmlns="http://www.w3.org/2000/svg">
<path fill-rule="evenodd" clip-rule="evenodd" d="M10.6 17.74H10.63V17.73C10.9 19.02 11.59 20.15 12.54 20.99H4.4C4.18 20.99 4 20.81 4 20.59V3.38999C4 3.16999 4.18 2.98999 4.4 2.98999H14L20 8.98999V11.62C19.01 10.91 17.81 10.49 16.5 10.49C13.27 10.49 10.64 13.04 10.51 16.24H6.9C6.68 16.24 6.5 16.42 6.5 16.64V17.34C6.5 17.56 6.68 17.74 6.9 17.74H10.6ZM18.5 9.59999L13.4 4.49999V9.19999C13.4 9.41999 13.58 9.59999 13.8 9.59999H18.5ZM6.9 6.24999C6.68 6.24999 6.5 6.42999 6.5 6.64999V7.34999C6.5 7.56999 6.68 7.74999 6.9 7.74999H10.6C10.82 7.74999 11 7.56999 11 7.34999V6.64999C11 6.42999 10.82 6.24999 10.6 6.24999H6.9ZM6.9 11.25C6.68 11.25 6.5 11.43 6.5 11.65V12.35C6.5 12.57 6.68 12.75 6.9 12.75H10.6C10.82 12.75 11 12.57 11 12.35V11.65C11 11.43 10.82 11.25 10.6 11.25H6.9ZM19.5 16.5C19.5 14.85 18.15 13.5 16.5 13.5C14.85 13.5 13.5 14.85 13.5 16.5C13.5 18.15 14.85 19.5 16.5 19.5C18.15 19.5 19.5 18.15 19.5 16.5ZM12 16.5C12 14.01 14.01 12 16.5 12C18.99 12 21 14.01 21 16.5C21 17.4721 20.6937 18.371 20.1721 19.1057L21.4492 20.3828C21.6054 20.539 21.6054 20.7923 21.4492 20.9485L20.9542 21.4435C20.798 21.5997 20.5447 21.5997 20.3885 21.4435L19.1124 20.1673C18.3764 20.6918 17.475 21 16.5 21C14.01 21 12 18.99 12 16.5Z" fill="black"/>
</svg>
