<svg width="24" height="24" viewBox="0 0 24 24" fill="none" xmlns="http://www.w3.org/2000/svg">
<path fill-rule="evenodd" clip-rule="evenodd" d="M19.25 4.57001C19.25 4.16001 19.59 3.82001 20 3.82001H20.01C20.42 3.82001 20.76 4.16001 20.76 4.57001V20.77C20.76 21.18 20.42 21.52 20.01 21.52C19.9365 21.52 19.6195 21.5215 19.1267 21.5238C17.4066 21.5319 13.5447 21.55 10.42 21.55H10.4196C8.31978 21.55 6.55996 21.55 5.98 21.52C3.78 21.42 3 19.93 3 18.56V16.17V16.15V2.57001C3 2.35001 3.18 2.17001 3.4 2.17001H16.59C16.81 2.17001 16.99 2.35001 16.99 2.57001V17.27C16.99 17.49 16.81 17.67 16.59 17.67H4.49V18.56C4.49 19.5 5 19.97 6.04 20.02C7.45 20.08 16.56 20.04 19.25 20.02V4.57001ZM5.32 3.66001C5.13 3.66001 4.98 3.81001 4.98 4.00001V4.01001V15.82C4.98 16.01 5.13 16.16 5.32 16.16H6.69C6.88 16.16 7.03 16.01 7.03 15.82V4.00001C7.03 3.81001 6.88 3.66001 6.69 3.66001H5.32Z" fill="black"/>
</svg>
