<svg width="24" height="24" viewBox="0 0 24 24" fill="none" xmlns="http://www.w3.org/2000/svg">
<path fill-rule="evenodd" clip-rule="evenodd" d="M18.58 9.41C18.58 9.82 18.92 10.16 19.33 10.16V10.17C19.74 10.17 20.08 9.83 20.08 9.42V6.75H22.75C23.16 6.75 23.5 6.41 23.5 6C23.5 5.59 23.16 5.25 22.75 5.25H20.08V2.59C20.08 2.18 19.74 1.84 19.33 1.84C18.92 1.84 18.58 2.18 18.58 2.59V5.25H15.92C15.51 5.25 15.17 5.59 15.17 6C15.17 6.41 15.51 6.75 15.92 6.75H18.58V9.41ZM17.75 8.93999V11.1V11.11V11.43H3.5V18H20.5V11.5H21.85H22V22H20.5V19.5H3.5V22.01H2V2.40999C2 2.18999 2.18 2.00999 2.4 2.00999H17.74V3.50999H13.3L6.88 9.92999H10.76L14.5 6.18999V8.15999L12.88 9.92999H16.76L17.75 8.93999ZM3.5 7.31V9.91999H3.51H4.77L11.19 3.49999H3.5V5.19L5.19 3.5H7.31L3.5 7.31Z" fill="black"/>
</svg>
