<svg width="24" height="24" viewBox="0 0 24 24" fill="none" xmlns="http://www.w3.org/2000/svg">
<path fill-rule="evenodd" clip-rule="evenodd" d="M17.5 19.5V9H13V4.5H6.5V19.5H17.5ZM17.8 7.8L19 9V20.6C19 20.82 18.82 21 18.6 21H5.4C5.18 21 5 20.82 5 20.6V3.4C5 3.18 5.18 3 5.4 3H13L14.2 4.2L17.8 7.8ZM8.4 12H15.6C15.82 12 16 12.22 16 12.5V13C16 13.28 15.82 13.5 15.6 13.5H8.4C8.18 13.5 8 13.28 8 13V12.5C8 12.22 8.18 12 8.4 12ZM8.4 16H15.6C15.82 16 16 16.22 16 16.5V17C16 17.28 15.82 17.5 15.6 17.5H8.4C8.18 17.5 8 17.28 8 17V16.5C8 16.22 8.18 16 8.4 16Z" fill="black"/>
</svg>
