<svg width="24" height="24" viewBox="0 0 24 24" fill="none" xmlns="http://www.w3.org/2000/svg">
<path fill-rule="evenodd" clip-rule="evenodd" d="M18.5 17.25H8.5C8.09 17.25 7.75 16.91 7.75 16.5V3.5C7.75 3.09 8.09 2.75 8.5 2.75H18.5C18.91 2.75 19.25 3.09 19.25 3.5V16.5C19.25 16.91 18.91 17.25 18.5 17.25ZM9.25 15.75H17.75V4.25H9.25V15.75ZM16.5 21.75H4C3.59 21.75 3.25 21.41 3.25 21V6.5C3.25 6.09 3.59 5.75 4 5.75C4.41 5.75 4.75 6.09 4.75 6.5V20.25H16.5C16.91 20.25 17.25 20.59 17.25 21C17.25 21.41 16.91 21.75 16.5 21.75Z" fill="black"/>
</svg>
