<svg width="24" height="24" viewBox="0 0 24 24" fill="none" xmlns="http://www.w3.org/2000/svg">
<path fill-rule="evenodd" clip-rule="evenodd" d="M10.4 4H4.4C4.17909 4 4 4.17909 4 4.4V12.4C4 12.6209 4.17909 12.8 4.4 12.8H10.4C10.6209 12.8 10.8 12.6209 10.8 12.4V4.4C10.8 4.17909 10.6209 4 10.4 4ZM10.4 15.2H4.4C4.17909 15.2 4 15.3791 4 15.6V19.6C4 19.8209 4.17909 20 4.4 20H10.4C10.6209 20 10.8 19.8209 10.8 19.6V15.6C10.8 15.3791 10.6209 15.2 10.4 15.2ZM19.6 20H13.6C13.3791 20 13.2 19.8209 13.2 19.6V11.6C13.2 11.3791 13.3791 11.2 13.6 11.2H19.6C19.8209 11.2 20 11.3791 20 11.6V19.6C20 19.8209 19.8209 20 19.6 20ZM13.6 8.8H19.6C19.8209 8.8 20 8.62091 20 8.4V4.4C20 4.17909 19.8209 4 19.6 4H13.6C13.3791 4 13.2 4.17909 13.2 4.4V8.4C13.2 8.62091 13.3791 8.8 13.6 8.8Z" fill="black"/>
</svg>
