<svg width="24" height="24" viewBox="0 0 24 24" fill="none" xmlns="http://www.w3.org/2000/svg">
<path fill-rule="evenodd" clip-rule="evenodd" d="M9.3 5.5V11.3H5.5V5.5H9.3ZM10.4 4H4.4C4.18 4 4 4.18 4 4.4V12.4C4 12.62 4.18 12.8 4.4 12.8H10.4C10.62 12.8 10.8 12.62 10.8 12.4V4.4C10.8 4.18 10.62 4 10.4 4ZM9.3 16.7V18.5H5.5V16.7H9.3ZM10.4 15.2H4.4C4.18 15.2 4 15.38 4 15.6V19.6C4 19.82 4.18 20 4.4 20H10.4C10.62 20 10.8 19.82 10.8 19.6V15.6C10.8 15.38 10.62 15.2 10.4 15.2ZM14.7 18.5H18.5V12.7H14.7V18.5ZM13.6 11.2H19.6C19.82 11.2 20 11.38 20 11.6V19.6C20 19.82 19.82 20 19.6 20H13.6C13.38 20 13.2 19.82 13.2 19.6V11.6C13.2 11.38 13.38 11.2 13.6 11.2ZM18.5 5.5V7.3H14.7V5.5H18.5ZM19.6 4H13.6C13.38 4 13.2 4.18 13.2 4.4V8.4C13.2 8.62 13.38 8.8 13.6 8.8H19.6C19.82 8.8 20 8.62 20 8.4V4.4C20 4.18 19.82 4 19.6 4Z" fill="black"/>
</svg>
