<svg width="24" height="24" viewBox="0 0 24 24" fill="none" xmlns="http://www.w3.org/2000/svg">
<path fill-rule="evenodd" clip-rule="evenodd" d="M20.82 9.14998C19.6 9.63998 16.75 10.31 12.03 10.31C6.71999 10.31 4.08999 9.46998 3.17999 8.83998V5.33998C3.52999 4.00998 12 3.91998 12 3.91998C12 3.91998 20.25 3.95998 20.82 5.33998V9.14998ZM3.17999 13.4V10.53C4.57999 11.16 7.18999 11.81 12.03 11.81C16.05 11.81 19.03 11.34 20.82 10.74V13.71C19.6 14.2 16.75 14.87 12.03 14.87C6.71999 14.87 4.08999 14.03 3.17999 13.4ZM20.82 15.31C19.03 15.91 16.05 16.38 12.03 16.38C7.18999 16.38 4.57999 15.73 3.17999 15.1V18.63H3.18999C3.77999 20.01 12.01 20.05 12.01 20.05C12.01 20.05 20.48 19.96 20.83 18.63H20.82V15.31Z" fill="black"/>
</svg>
