<svg width="24" height="24" viewBox="0 0 24 24" fill="none" xmlns="http://www.w3.org/2000/svg">
<path fill-rule="evenodd" clip-rule="evenodd" d="M11.99 3.39001C14.38 3.39001 20.05 3.56001 21.1 5.08001H21.09C21.17 5.20001 21.22 5.35001 21.22 5.50001V18.54C21.22 18.71 21.17 18.88 21.06 19.01C20.05 20.28 13.22 20.57 12.01 20.57C8.9 20.57 3.58 20.35 2.83 18.85C2.78 18.74 2.75 18.63 2.75 18.51V5.51001C2.75 5.43001 2.76 5.36001 2.78 5.29001C3.34 3.44001 11.11 3.39001 11.99 3.39001ZM11.99 14.86C13.34 14.86 17.76 14.56 19.73 13.99V13.98V11.01C17.27 11.61 13.04 11.83 11.99 11.83C11.93 11.83 7.11 11.8 4.25 10.91V13.85C6.15 14.61 10.19 14.86 11.99 14.86ZM19.73 5.82001C18.92 5.31001 15.48 4.89001 11.99 4.89001C9.79 4.89001 5.23 5.26001 4.25 5.79001V9.33001C6.15 10.09 10.19 10.34 11.99 10.34C13.34 10.34 17.76 10.04 19.73 9.47001V5.82001ZM4.25 18.22C4.9 18.62 8.06 19.06 12.01 19.06C15.01 19.06 18.71 18.55 19.73 18.13V15.54C17.27 16.14 13.04 16.36 11.99 16.36C11.93 16.36 7.11 16.33 4.25 15.44V18.22Z" fill="black"/>
</svg>
