<svg width="24" height="24" viewBox="0 0 24 24" fill="none" xmlns="http://www.w3.org/2000/svg">
<path fill-rule="evenodd" clip-rule="evenodd" d="M15 4H19.6C19.82 4 20 4.18 20 4.4V5.6C20 5.82 19.82 6 19.6 6H19.01V20.6C19.01 20.82 18.83 21 18.61 21H5.43C5.21 21 5.03 20.82 5.03 20.6V6H4.4C4.18 6 4 5.82 4 5.6V4.4C4 4.18 4.18 4 4.4 4H9V3.4C9 3.18 9.18 3 9.4 3H14.6C14.82 3 15 3.18 15 3.4V4ZM10 17C10.41 17 10.75 16.68 10.75 16.29V8.71C10.75 8.32 10.41 8 10 8C9.59 8 9.25 8.32 9.25 8.71V16.29C9.25 16.68 9.59 17 10 17ZM14 17C14.41 17 14.75 16.68 14.75 16.29V8.71C14.75 8.32 14.41 8 14 8C13.59 8 13.25 8.32 13.25 8.71V16.29C13.25 16.68 13.59 17 14 17Z" fill="black"/>
</svg>
