<svg width="24" height="24" viewBox="0 0 24 24" fill="none" xmlns="http://www.w3.org/2000/svg">
<path fill-rule="evenodd" clip-rule="evenodd" d="M15 4.22H19.6C19.82 4.22 20 4.4 20 4.62V5.32C20 5.54 19.82 5.72 19.6 5.72H19.25V19.6C19.25 20.23 18.73 20.75 18.1 20.75H5.90001C5.27001 20.75 4.75001 20.23 4.75001 19.6V5.72H4.44001C4.22001 5.72 4.04001 5.54 4.04001 5.32V4.62C4.04001 4.4 4.22001 4.22 4.44001 4.22H8.93001V3.15C8.93001 2.93 9.11001 2.75 9.33001 2.75H14.6C14.82 2.75 15 2.93 15 3.15V4.22ZM6.25001 19.25H17.75V5.75H6.25001V19.25ZM9.29001 16.5C9.29001 16.89 9.61001 17.21 10 17.21C10.39 17.21 10.71 16.89 10.71 16.5V8.50001C10.71 8.11001 10.39 7.79001 10 7.79001C9.61001 7.79001 9.29001 8.11001 9.29001 8.50001V16.5ZM14 17.21C13.61 17.21 13.29 16.89 13.29 16.5V8.50001C13.29 8.11001 13.61 7.79001 14 7.79001C14.39 7.79001 14.71 8.11001 14.71 8.50001V16.5C14.71 16.89 14.39 17.21 14 17.21Z" fill="black"/>
</svg>
