<svg width="24" height="24" viewBox="0 0 24 24" fill="none" xmlns="http://www.w3.org/2000/svg">
<path fill-rule="evenodd" clip-rule="evenodd" d="M12 5.92001C14.22 3.87001 19.18 3.44001 21.69 5.28001H21.73C21.93 5.42001 22.04 5.65001 22.04 5.90001V17.99C22.04 18.23 21.93 18.46 21.74 18.6C21.55 18.74 21.32 18.78 21.1 18.7C19.76 18.22 18.46 17.98 17.12 17.98C16.08 17.98 13.78 18.23 12.46 19.19C12.34 19.28 12.2 19.32 12.06 19.32H12.02H11.98C11.84 19.32 11.7 19.28 11.58 19.19C9.94001 17.99 6.96001 17.98 6.93001 17.98C5.58001 17.98 4.28001 18.21 2.95001 18.7C2.74001 18.78 2.50001 18.74 2.31001 18.6C2.12001 18.46 2.01001 18.23 2.01001 17.99V5.90001C2.01001 5.65001 2.12001 5.42001 2.31001 5.28001C4.81001 3.44001 9.78001 3.86001 12 5.92001ZM3.41001 6.31001V16.97V16.98C4.57001 16.64 5.73001 16.48 6.91001 16.48C7.20001 16.48 9.45001 16.51 11.33 17.36V7.32001C10.02 5.70001 5.73001 4.95001 3.41001 6.31001ZM17.09 16.47C18.27 16.47 19.43 16.63 20.59 16.97V6.32001C18.31 4.98001 14.14 5.68001 12.74 7.23001V17.32C14.61 16.5 16.8 16.47 17.09 16.47Z" fill="black"/>
</svg>
