<svg width="24" height="24" viewBox="0 0 24 24" fill="none" xmlns="http://www.w3.org/2000/svg">
<path fill-rule="evenodd" clip-rule="evenodd" d="M16.13 9.07C15.86 8.76 15.38 8.72 15.07 9L12.75 11.02V3.44C12.75 3.03 12.41 2.69 12 2.69C11.59 2.69 11.25 3.03 11.25 3.44V10.91L8.90999 8.99C8.58998 8.73 8.11999 8.77 7.84999 9.09C7.58999 9.41 7.62998 9.88 7.94999 10.15L11.61 13.16C11.75 13.27 11.92 13.33 12.09 13.33C12.26 13.33 12.44 13.27 12.58 13.15L16.05 10.14C16.36 9.87 16.4 9.39 16.12 9.08L16.13 9.07ZM19.06 17.5H4.94C4.53 17.5 4.19 17.16 4.19 16.75V12.81C4.19 12.4 4.53 12.06 4.94 12.06C5.35 12.06 5.69 12.4 5.69 12.81V16H18.32V12.81C18.32 12.4 18.66 12.06 19.07 12.06C19.48 12.06 19.82 12.4 19.82 12.81V16.75C19.82 17.16 19.48 17.5 19.07 17.5H19.06Z" fill="black"/>
</svg>
