<svg width="24" height="24" viewBox="0 0 24 24" fill="none" xmlns="http://www.w3.org/2000/svg">
<path fill-rule="evenodd" clip-rule="evenodd" d="M18.85 11.12L14.65 14.48C14.39 14.69 14 14.5 14 14.17V5.19001C14 5.07001 14.06 4.95001 14.15 4.88001L18.35 1.52001C18.61 1.31001 19 1.50001 19 1.83001V10.81C19 10.93 18.94 11.05 18.85 11.12ZM21.69 5.28C21.36 5.04 20.99 4.84 20.59 4.67V12H22V5.9C22 5.65 21.89 5.42 21.69 5.28ZM12 5.92001C12.22 5.71001 12.47 5.53001 12.74 5.36001L12.77 5.37001V12.01V19.02C12.7482 19.0309 12.7255 19.0418 12.7023 19.0529C12.6191 19.0928 12.5304 19.1353 12.46 19.19C12.34 19.28 12.2 19.32 12.06 19.32H12.02H11.98C11.84 19.32 11.7 19.28 11.58 19.19C9.94001 17.99 6.96001 17.98 6.93001 17.98C5.58001 17.98 4.28001 18.21 2.95001 18.7C2.74001 18.78 2.50001 18.74 2.31001 18.6C2.12001 18.46 2.01001 18.23 2.01001 17.99V5.90001C2.01001 5.65001 2.12001 5.42001 2.31001 5.28001C4.81001 3.44001 9.78001 3.86001 12 5.92001ZM6.91001 16.48C7.20001 16.48 9.45001 16.51 11.33 17.36V7.32001C10.02 5.70001 5.73001 4.95001 3.41001 6.31001V16.98C4.57001 16.64 5.73001 16.48 6.91001 16.48ZM21.29 17.25H18.75V14.71C18.75 14.32 18.41 14 18 14C17.59 14 17.25 14.32 17.25 14.71V17.25H14.71C14.32 17.25 14 17.59 14 18C14 18.41 14.32 18.75 14.71 18.75H17.25V21.29C17.25 21.68 17.59 22 18 22C18.41 22 18.75 21.68 18.75 21.29V18.75H21.29C21.68 18.75 22 18.41 22 18C22 17.59 21.68 17.25 21.29 17.25Z" fill="black"/>
</svg>
