<svg width="24" height="24" viewBox="0 0 24 24" fill="none" xmlns="http://www.w3.org/2000/svg">
<path fill-rule="evenodd" clip-rule="evenodd" d="M19.71 2.97998L21.12 4.38998C21.29 4.55998 21.29 4.83998 21.12 5.00998L20.33 5.79998L18.3 3.76998L19.09 2.97998C19.26 2.80998 19.54 2.80998 19.71 2.97998ZM2.67002 21.77H19.89L19.88 21.76C20.1 21.76 20.28 21.58 20.28 21.36L20.19 12.18C20.18 11.77 19.88 11.46 19.43 11.44C19.02 11.45 18.69 11.79 18.69 12.2L18.77 20.27H3.77002V5.19997H11.7C12.11 5.19997 12.45 4.85997 12.45 4.44997C12.45 4.03997 12.11 3.69997 11.7 3.69997H2.67002C2.45002 3.69997 2.27002 3.87997 2.27002 4.09997V21.37C2.27002 21.59 2.45002 21.77 2.67002 21.77ZM17.24 4.83997L17.235 4.84497L17.23 4.83997H17.24ZM17.235 4.84497L9.20002 12.88L9.00002 15.01C9.00002 15.06 9.04002 15.11 9.09002 15.1L11.22 14.9L19.26 6.86997L17.235 4.84497Z" fill="black"/>
</svg>
