<svg width="24" height="24" viewBox="0 0 24 24" fill="none" xmlns="http://www.w3.org/2000/svg">
<path fill-rule="evenodd" clip-rule="evenodd" d="M3 12C3 7.03 7.03 3 12 3C16.97 3 21 7.03 21 12C21 16.97 16.97 21 12 21C7.03 21 3 16.97 3 12ZM11.11 16C11.11 16.49 11.51 16.89 12 16.89C12.49 16.89 12.89 16.49 12.89 16C12.89 15.51 12.49 15.11 12 15.11C11.51 15.11 11.11 15.51 11.11 16ZM12.01 14.21C12.51 14.21 12.91 13.87 12.91 13.46V7.99C12.91 7.58 12.51 7.24 12.01 7.24C11.51 7.24 11.11 7.58 11.11 7.99V13.46C11.11 13.87 11.51 14.21 12.01 14.21Z" fill="black"/>
</svg>
