<?xml version="1.0" encoding="UTF-8"?>
<svg id="_レイヤー_2" data-name="レイヤー 2" xmlns="http://www.w3.org/2000/svg" width="24" height="24" viewBox="0 0 24 24">
  <path d="M20.25,21.25H3.75c-.41,0-.75-.34-.75-.75V3.5c0-.41.34-.75.75-.75h16.5c.41,0,.75.34.75.75v17c0,.41-.34.75-.75.75ZM4.5,19.75h15V4.25H4.5v15.5Z" style="fill: #000; stroke-width: 0px;"/>
  <g>
    <path d="M5.19,14.2l1.28-2.32-1.13-2.09h1.17l.56,1.25.55-1.25h1.11l-1.17,2.14,1.31,2.26h-1.2l-.69-1.39-.65,1.39h-1.13Z" style="fill: #000; stroke-width: 0px;"/>
    <path d="M9.11,14.2v-4.4h1.01v3.51h1.65v.89h-2.66Z" style="fill: #000; stroke-width: 0px;"/>
    <path d="M11.87,12.78l.97-.1c.01.24.05.42.11.54.09.16.25.24.5.24.15,0,.27-.04.37-.12.1-.08.15-.2.15-.36,0-.18-.06-.32-.17-.41-.05-.04-.22-.11-.51-.22-.3-.11-.5-.19-.61-.25-.18-.09-.32-.2-.4-.32-.13-.19-.2-.43-.2-.72,0-.43.14-.76.41-1.01.23-.21.56-.32.97-.32.54,0,.94.18,1.19.55.13.2.21.45.23.75l-.94.13c-.02-.17-.04-.3-.07-.38-.07-.16-.2-.24-.39-.24-.12,0-.21.04-.27.11-.07.09-.11.2-.11.33,0,.16.05.27.15.33.05.04.21.11.47.21.31.12.5.19.57.23.26.13.45.3.55.51.09.19.14.42.14.69,0,.44-.14.78-.42,1-.14.11-.29.19-.47.25-.18.05-.39.08-.64.08-.38,0-.68-.06-.91-.19-.2-.11-.36-.28-.47-.5-.09-.17-.15-.44-.18-.8Z" style="fill: #000; stroke-width: 0px;"/>
    <path d="M15.14,14.2l1.28-2.32-1.13-2.09h1.17l.56,1.25.55-1.25h1.11l-1.17,2.14,1.31,2.26h-1.2l-.69-1.39-.65,1.39h-1.13Z" style="fill: #000; stroke-width: 0px;"/>
  </g>
</svg>