<svg width="24" height="24" viewBox="0 0 24 24" fill="none" xmlns="http://www.w3.org/2000/svg">
<path fill-rule="evenodd" clip-rule="evenodd" d="M20 8.25C20 6.18 18.32 4.5 16.25 4.5C15.04 4.5 13.94 5.07 13.22 6.07L12 7.76L10.78 6.07C10.06 5.07 8.96 4.5 7.75 4.5C5.68 4.5 4 6.18 4 8.25C4 9.45 4.7 11.58 8.06 14.94C9.02 15.9 10.86 17.53 12 18.52C13.14 17.53 14.98 15.9 15.94 14.94C19.3 11.58 20 9.45 20 8.25ZM12 5.19C12.95 3.87 14.5 3 16.25 3C19.15 3 21.5 5.35 21.5 8.25C21.5 11.5 18 15 17 16C15.5 17.5 12 20.5 12 20.5C12 20.5 8.5 17.5 7 16C6 15 2.5 11.5 2.5 8.25C2.5 5.35 4.85 3 7.75 3C9.5 3 11.05 3.87 12 5.19Z" fill="black"/>
</svg>
