<svg width="24" height="24" viewBox="0 0 24 24" fill="none" xmlns="http://www.w3.org/2000/svg">
<path fill-rule="evenodd" clip-rule="evenodd" d="M19.32 12.63H21.7C21.91 12.63 22.04 12.77 21.98 12.95L19.37 21.22C19.35 21.29 19.3 21.35 19.24 21.4C19.17 21.48 19.07 21.54 18.96 21.54H2.35C2.2 21.54 2.09 21.46 2.07 21.35C2.05 21.3 2.03 21.25 2.03 21.19V11.38V9.47C2.03 9.28 2.19 9.12 2.38 9.12H3.75V2.15C3.75 1.93 3.93 1.75 4.15 1.75H12.83L18.75 8.21V11.03H18.97C19.16 11.03 19.32 11.18 19.32 11.38V12.63ZM16.29 7.75L13.25 4.43V7.75H16.29ZM11.75 8.85V3.25H5.25V12.63H17.25V9.25H12.15C11.93 9.25 11.75 9.07 11.75 8.85Z" fill="black"/>
</svg>
