<svg width="24" height="24" viewBox="0 0 24 24" fill="none" xmlns="http://www.w3.org/2000/svg">
<path fill-rule="evenodd" clip-rule="evenodd" d="M9.81 19.22L13.23 22.55H13.24C13.62 22.92 14.26 22.65 14.26 22.12V13.8C14.26 13.76 14.3 13.68 14.3 13.68L21 4.96C21.61 4.16 21.04 3 20.03 3H3.96C2.96 3 2.39 4.15 3 4.95L9.71 13.69C9.74 13.72 9.75 13.81 9.75 13.81V19.08C9.75 19.13 9.81 19.22 9.81 19.22ZM11.31 18.61C11.27 18.58 11.25 18.52 11.25 18.47V13.32C11.25 13.28 11.21 13.2 11.21 13.2L4.75 4.79C4.65 4.66 4.74 4.47 4.91 4.47H19.09C19.25 4.47 19.35 4.66 19.25 4.79L12.79 13.2C12.76 13.23 12.75 13.32 12.75 13.32V20.02L11.31 18.61Z" fill="black"/>
</svg>
