<svg width="24" height="24" viewBox="0 0 24 24" fill="none" xmlns="http://www.w3.org/2000/svg">
<path fill-rule="evenodd" clip-rule="evenodd" d="M2.91004 8.12001C3.01004 7.58001 3.49004 7.19001 4.04004 7.19001H20.04V5.94001C20.04 5.71001 19.86 5.53001 19.63 5.53001H11.51L10.15 3.32001H2.45004C2.23004 3.32001 2.04004 3.51001 2.04004 3.73001V5.94001V12.63L2.91004 8.12001ZM19.21 20.69H2.53004C2.28004 20.69 2.09004 20.46 2.14004 20.21L4.49004 9.01C4.53004 8.82 4.69004 8.69 4.88004 8.69H21.57C21.82 8.69 22.01 8.92 21.96 9.17L19.61 20.37C19.57 20.56 19.41 20.69 19.22 20.69H19.21Z" fill="black"/>
</svg>
