<svg width="24" height="24" viewBox="0 0 24 24" fill="none" xmlns="http://www.w3.org/2000/svg">
<path fill-rule="evenodd" clip-rule="evenodd" d="M21.2 19.6H2.79999C2.57999 19.6 2.39999 19.42 2.39999 19.2V4.30002C2.39999 4.08002 2.57999 3.90002 2.79999 3.90002H9.07999C9.18999 3.90002 9.28999 3.94002 9.35999 4.02002L11.63 6.29002C11.71 6.37002 11.81 6.41002 11.91 6.41002H21.2C21.42 6.41002 21.6 6.59002 21.6 6.81002V19.21C21.6 19.43 21.42 19.61 21.2 19.61V19.6ZM3.59999 18.4H20.4V7.60002H11.25L8.74999 5.10002H3.59999V18.4ZM18.36 12.1H15.82V9.56004C15.82 9.17004 15.48 8.85004 15.07 8.85004C14.66 8.85004 14.32 9.17004 14.32 9.56004V12.1H11.78C11.39 12.1 11.07 12.44 11.07 12.85C11.07 13.26 11.39 13.6 11.78 13.6H14.32V16.14C14.32 16.53 14.66 16.85 15.07 16.85C15.48 16.85 15.82 16.53 15.82 16.14V13.6H18.36C18.75 13.6 19.07 13.26 19.07 12.85C19.07 12.44 18.75 12.1 18.36 12.1Z" fill="black"/>
</svg>
