<svg width="24" height="24" viewBox="0 0 24 24" fill="none" xmlns="http://www.w3.org/2000/svg">
<path fill-rule="evenodd" clip-rule="evenodd" d="M7.35 7.75H3.4C3.18 7.75 3 7.57 3 7.35V6.65C3 6.43 3.18 6.25 3.4 6.25H5.85C6.07 6.25 6.25 6.07 6.25 5.85V3.4C6.25 3.18 6.43 3 6.65 3H7.35C7.57 3 7.75 3.18 7.75 3.4V7.35C7.75 7.57 7.57 7.75 7.35 7.75ZM7.35 21H6.65C6.43 21 6.25 20.82 6.25 20.6V18.15C6.25 17.93 6.07 17.75 5.85 17.75H3.4C3.18 17.75 3 17.57 3 17.35V16.65C3 16.43 3.18 16.25 3.4 16.25H7.35C7.57 16.25 7.75 16.43 7.75 16.65V20.6C7.75 20.82 7.57 21 7.35 21ZM16.65 7.75H20.6C20.82 7.75 21 7.57 21 7.35V6.65C21 6.43 20.82 6.25 20.6 6.25H18.15C17.93 6.25 17.75 6.07 17.75 5.85V3.4C17.75 3.18 17.57 3 17.35 3H16.65C16.43 3 16.25 3.18 16.25 3.4V7.35C16.25 7.57 16.43 7.75 16.65 7.75ZM17.35 21H16.65C16.43 21 16.25 20.82 16.25 20.6V16.65C16.25 16.43 16.43 16.25 16.65 16.25H20.6C20.82 16.25 21 16.43 21 16.65V17.35C21 17.57 20.82 17.75 20.6 17.75H18.15C17.93 17.75 17.75 17.93 17.75 18.15V20.6C17.75 20.82 17.57 21 17.35 21Z" fill="black"/>
</svg>
