<svg width="24" height="24" viewBox="0 0 24 24" fill="none" xmlns="http://www.w3.org/2000/svg">
<path fill-rule="evenodd" clip-rule="evenodd" d="M13.5 3.75H19.5L19.51 3.76C19.92 3.76 20.26 4.1 20.26 4.51V10.51C20.26 10.92 19.92 11.26 19.51 11.26C19.1 11.26 18.76 10.92 18.76 10.51V6.32L6.32 18.76H10.51C10.92 18.76 11.26 19.1 11.26 19.51C11.26 19.92 10.92 20.26 10.51 20.26H4.51C4.41 20.26 4.31 20.24 4.22 20.2C4.03 20.12 3.89 19.97 3.81 19.79C3.77 19.69 3.75 19.6 3.75 19.5V13.5C3.75 13.09 4.09 12.75 4.5 12.75C4.91 12.75 5.25 13.09 5.25 13.5V17.69L17.69 5.25H13.5C13.09 5.25 12.75 4.91 12.75 4.5C12.75 4.09 13.09 3.75 13.5 3.75Z" fill="black"/>
</svg>
