<svg width="24" height="24" viewBox="0 0 24 24" fill="none" xmlns="http://www.w3.org/2000/svg">
<path fill-rule="evenodd" clip-rule="evenodd" d="M4.25 7.6V4.65C4.25 4.43 4.43 4.25 4.65 4.25H7.6C7.82 4.25 8 4.07 8 3.85V3.15C8 2.93 7.82 2.75 7.6 2.75H3.15C2.93 2.75 2.75 2.93 2.75 3.15V7.6C2.75 7.82 2.93 8 3.15 8H3.85C4.07 8 4.25 7.82 4.25 7.6ZM16.42 4.25H19.85C20.07 4.25 20.25 4.43 20.25 4.65V7.6C20.25 7.82 20.43 8 20.65 8H21.35C21.57 8 21.75 7.82 21.75 7.6V3.15C21.75 2.93 21.57 2.75 21.35 2.75H16.42C16.2 2.75 16.02 2.93 16.02 3.15V3.85C16.02 4.07 16.2 4.25 16.42 4.25ZM20.25 19.85V16.42C20.25 16.2 20.43 16.02 20.65 16.02H21.35C21.57 16.02 21.75 16.2 21.75 16.42V21.35C21.75 21.57 21.57 21.75 21.35 21.75H16.42C16.2 21.75 16.02 21.57 16.02 21.35V20.65C16.02 20.43 16.2 20.25 16.42 20.25H19.85C20.07 20.25 20.25 20.07 20.25 19.85ZM7.6 20.25H4.65C4.43 20.25 4.25 20.07 4.25 19.85V16.42C4.25 16.2 4.07 16.02 3.85 16.02H3.15C2.93 16.02 2.75 16.2 2.75 16.42V21.35C2.75 21.57 2.93 21.75 3.15 21.75H7.6C7.82 21.75 8 21.57 8 21.35V20.65C8 20.43 7.82 20.25 7.6 20.25Z" fill="black"/>
</svg>
