<svg width="24" height="24" viewBox="0 0 24 24" fill="none" xmlns="http://www.w3.org/2000/svg">
<path fill-rule="evenodd" clip-rule="evenodd" d="M21.35 21.75H2.65C2.43 21.75 2.25 21.57 2.25 21.35V2.65C2.25 2.43 2.43 2.25 2.65 2.25H21.35C21.57 2.25 21.75 2.43 21.75 2.65V21.35C21.75 21.57 21.57 21.75 21.35 21.75ZM3.75 20.25H20.25V3.75H3.75V20.25ZM6.4 6.8H10.8C11.0209 6.8 11.2 6.97909 11.2 7.2V10.4C11.2 10.6209 11.0209 10.8 10.8 10.8H6.4C6.17909 10.8 6 10.6209 6 10.4V7.2C6 6.97909 6.17909 6.8 6.4 6.8ZM13.2 6.8H17.6C17.8209 6.8 18 6.97909 18 7.2V10.4C18 10.6209 17.8209 10.8 17.6 10.8H13.2C12.9791 10.8 12.8 10.6209 12.8 10.4V7.2C12.8 6.97909 12.9791 6.8 13.2 6.8ZM10.8 13.2H6.4C6.17909 13.2 6 13.3791 6 13.6V16.8C6 17.0209 6.17909 17.2 6.4 17.2H10.8C11.0209 17.2 11.2 17.0209 11.2 16.8V13.6C11.2 13.3791 11.0209 13.2 10.8 13.2ZM13.2 13.2H17.6C17.8209 13.2 18 13.3791 18 13.6V16.8C18 17.0209 17.8209 17.2 17.6 17.2H13.2C12.9791 17.2 12.8 17.0209 12.8 16.8V13.6C12.8 13.3791 12.9791 13.2 13.2 13.2Z" fill="black"/>
</svg>
