<svg width="24" height="24" viewBox="0 0 24 24" fill="none" xmlns="http://www.w3.org/2000/svg">
<path fill-rule="evenodd" clip-rule="evenodd" d="M15.6 6.25003V6.25441L15.59 6.25003H15.6ZM15.6 6.25441V7.74003C15.6 8.15003 15.26 8.49003 14.85 8.49003C14.44 8.49003 14.1 8.15003 14.1 7.74003V5.75003C13.65 5.64003 13.2 5.57003 12.73 5.53003V7.06003C12.73 7.47003 12.39 7.81003 11.98 7.81003C11.57 7.81003 11.23 7.47003 11.23 7.06003V5.53003C10.76 5.57003 10.3 5.65003 9.86 5.76003V7.74003C9.86 8.15003 9.52 8.49003 9.11 8.49003C8.7 8.49003 8.36 8.15003 8.36 7.74003V6.27003C5.21 7.67003 3 10.82 3 14.5C3 14.54 3.0025 14.5825 3.005 14.625C3.0075 14.6675 3.01 14.71 3.01 14.75H20.98C20.98 14.71 20.9825 14.6675 20.985 14.625L20.985 14.6249C20.9875 14.5825 20.99 14.54 20.99 14.5C20.99 10.8139 18.7747 7.64668 15.6 6.25441ZM12.02 13.34C11.12 13.34 10.4 12.61 10.4 11.72C10.4 10.83 11.13 10.1 12.02 10.1C12.91 10.1 13.64 10.83 13.64 11.72C13.64 12.61 12.91 13.34 12.02 13.34ZM21.5 17.75H2.5C2.09 17.75 1.75 17.41 1.75 17C1.75 16.59 2.09 16.25 2.5 16.25H21.5C21.91 16.25 22.25 16.59 22.25 17C22.25 17.41 21.91 17.75 21.5 17.75Z" fill="black"/>
</svg>
