<svg width="24" height="24" viewBox="0 0 24 24" fill="none" xmlns="http://www.w3.org/2000/svg">
<path fill-rule="evenodd" clip-rule="evenodd" d="M20 12C20 7.59 16.41 4 12 4C7.59 4 4 7.59 4 12C4 16.41 7.59 20 12 20C16.41 20 20 16.41 20 12ZM2.5 12C2.5 6.75 6.75 2.5 12 2.5C17.25 2.5 21.5 6.75 21.5 12C21.5 17.25 17.25 21.5 12 21.5C6.75 21.5 2.5 17.25 2.5 12ZM12.7 16.45C12.7 17.0023 12.2523 17.45 11.7 17.45C11.1477 17.45 10.7 17.0023 10.7 16.45C10.7 15.8977 11.1477 15.45 11.7 15.45C12.2523 15.45 12.7 15.8977 12.7 16.45ZM12.41 14.45H10.95V13.37C10.95 12.99 10.99 12.67 11.08 12.39C11.16 12.12 11.29 11.86 11.44 11.64C11.59 11.42 11.78 11.22 11.98 11.04C12.0306 10.9974 12.0826 10.9534 12.1358 10.9083L12.1358 10.9083C12.2825 10.7841 12.4386 10.6521 12.6 10.52L12.62 10.5033C12.7322 10.4099 12.8356 10.3239 12.93 10.22C13.02 10.12 13.11 10.02 13.18 9.90999C13.25 9.80999 13.3 9.68999 13.34 9.55999C13.38 9.43999 13.39 9.30999 13.39 9.16999C13.39 9.02999 13.36 8.89999 13.29 8.75999C13.21 8.60999 13.12 8.47999 13 8.36999C12.88 8.25999 12.74 8.16999 12.59 8.09999C12.21 7.92999 11.86 7.98999 11.55 8.11999C11.37 8.19999 11.21 8.30999 11.07 8.43999C10.93 8.57999 10.82 8.73999 10.74 8.92999C10.66 9.11999 10.61 9.32999 10.6 9.55999L10.58 9.93999H9.12L9.14999 9.51999C9.17999 9.10999 9.25999 8.70999 9.41 8.35999C9.56 7.99999 9.76999 7.67999 10.03 7.40999C10.29 7.13999 10.61 6.92999 10.97 6.76999C11.64 6.48999 12.51 6.45999 13.21 6.72999C13.54 6.85999 13.83 7.03999 14.07 7.27999C14.32 7.51999 14.51 7.79999 14.65 8.11999C14.79 8.43999 14.86 8.79999 14.86 9.16999C14.86 9.48999 14.82 9.76999 14.74 10.03C14.66 10.28 14.55 10.52 14.41 10.72C14.27 10.92 14.11 11.11 13.93 11.28C13.76 11.44 13.58 11.59 13.38 11.75L12.96 12.11C12.84 12.22 12.74 12.33 12.65 12.45C12.57 12.56 12.51 12.69 12.46 12.82C12.41 12.95 12.39 13.1 12.39 13.26V14.43L12.41 14.45Z" fill="black"/>
</svg>
