<svg width="24" height="24" viewBox="0 0 24 24" fill="none" xmlns="http://www.w3.org/2000/svg">
<path fill-rule="evenodd" clip-rule="evenodd" d="M12 2C6.48 2 2 6.48 2 12C2 17.52 6.48 22 12 22C17.52 22 22 17.52 22 12C22 6.48 17.52 2 12 2ZM10.57 9.93H9.13143L9.16 9.53C9.19 9.12 9.27 8.72 9.42 8.37C9.57 8.01 9.78 7.69 10.04 7.42C10.3 7.15 10.62 6.94 10.98 6.78C11.34 6.63 11.75 6.55 12.16 6.55C12.53 6.55 12.89 6.61 13.22 6.74C13.55 6.87 13.84 7.05 14.08 7.29C14.33 7.53 14.52 7.81 14.66 8.13C14.8 8.45 14.87 8.81 14.87 9.18C14.87 9.5 14.83 9.78 14.75 10.04C14.67 10.29 14.56 10.53 14.42 10.73C14.28 10.93 14.12 11.12 13.94 11.29C13.77 11.45 13.59 11.6 13.39 11.76L12.97 12.12C12.85 12.23 12.75 12.34 12.66 12.46C12.58 12.57 12.52 12.7 12.47 12.83C12.42 12.96 12.4 13.11 12.4 13.27V14.44H10.94V13.36C10.94 12.98 10.98 12.66 11.07 12.38C11.15 12.11 11.28 11.85 11.43 11.63C11.58 11.41 11.77 11.21 11.97 11.03C12.0206 10.9874 12.0726 10.9434 12.1258 10.8983L12.1258 10.8983L12.1258 10.8983C12.2725 10.7741 12.4286 10.6421 12.59 10.51L12.61 10.4933L12.61 10.4933C12.7223 10.3999 12.8256 10.3139 12.92 10.21C13.01 10.11 13.1 10.01 13.17 9.9C13.24 9.8 13.29 9.68 13.33 9.55C13.37 9.43 13.38 9.3 13.38 9.16C13.38 9.02 13.35 8.89 13.28 8.75C13.2 8.6 13.11 8.47 12.99 8.36C12.87 8.25 12.73 8.16 12.58 8.09C12.42 8.02 12.26 7.99 12.1 7.99C11.9 7.99 11.71 8.04 11.54 8.11C11.36 8.19 11.2 8.3 11.06 8.43C10.92 8.57 10.81 8.73 10.73 8.92C10.65 9.11 10.6 9.32 10.59 9.55L10.57 9.93ZM11.7 17.45C11.15 17.45 10.7 17 10.7 16.45C10.7 15.9 11.15 15.45 11.7 15.45C12.25 15.45 12.7 15.9 12.7 16.45C12.7 17 12.25 17.45 11.7 17.45Z" fill="black"/>
</svg>
