<?xml version="1.0" encoding="UTF-8"?>
<svg id="_レイヤー_2" data-name="レイヤー 2" xmlns="http://www.w3.org/2000/svg" width="24" height="24" viewBox="0 0 24 24">
  <path d="M3.53,3.96c-.29-.29-.77-.29-1.06,0s-.29.77,0,1.06l1.28,1.28v13.19c0,.41.34.75.75.75h13.19l1.28,1.28c.15.15.34.22.53.22s.38-.07.53-.22c.29-.29.29-.77,0-1.06L3.53,3.96ZM5.25,18.74V7.8l6.68,6.68-.89,1.21-1.68-2.27c-.16-.22-.48-.22-.64,0l-2.17,2.93c-.2.26,0,.64.32.64h7.57l1.75,1.75H5.25Z" style="fill: #000; stroke-width: 0px;"/>
  <path d="M19.5,3.74H5.31l1.5,1.5h11.94v11.94l1.5,1.5V4.49c0-.41-.34-.75-.75-.75Z" style="fill: #000; stroke-width: 0px;"/>
</svg>