<svg width="24" height="24" viewBox="0 0 24 24" fill="none" xmlns="http://www.w3.org/2000/svg">
<path fill-rule="evenodd" clip-rule="evenodd" d="M12 3.25C9.04 3.25 6.36 4.7 4.75 7.1V4.5C4.75 4.09 4.41 3.75 4 3.75C3.59 3.75 3.25 4.09 3.25 4.5V9C3.25 9.41 3.59 9.75 4 9.75H8.5C8.91 9.75 9.25 9.41 9.25 9C9.25 8.59 8.91 8.25 8.5 8.25H5.81C7.12 6.08 9.43 4.75 12 4.75C16 4.75 19.25 8 19.25 12C19.25 16 16 19.25 12 19.25C8.69 19.25 5.8 17.01 4.98 13.81C4.88 13.41 4.46 13.17 4.07 13.27C3.67 13.37 3.43 13.78 3.53 14.18C4.52 18.04 8.01 20.74 12 20.74C16.82 20.74 20.75 16.82 20.75 11.99C20.75 7.16 16.82 3.25 12 3.25ZM15.5 16.25C15.31 16.25 15.12 16.18 14.97 16.03L11.47 12.53C11.33 12.39 11.25 12.2 11.25 12V7.5C11.25 7.09 11.59 6.75 12 6.75C12.41 6.75 12.75 7.09 12.75 7.5V11.69L16.03 14.97C16.32 15.26 16.32 15.74 16.03 16.03C15.88 16.18 15.69 16.25 15.5 16.25Z" fill="black"/>
</svg>
