<svg width="24" height="24" viewBox="0 0 24 24" fill="none" xmlns="http://www.w3.org/2000/svg">
<path fill-rule="evenodd" clip-rule="evenodd" d="M18.5 9.21L12 4.81L5.5 9.21V17.51H8.5V12.21C8.5 12.2056 8.5 12.201 8.49999 12.1962C8.49979 11.9674 8.4993 11.4207 8.95 10.97C9.16 10.76 9.53 10.51 10.11 10.51H13.8H13.88C14.46 10.51 14.83 10.76 15.04 10.97C15.49 11.43 15.49 11.99 15.49 12.17V17.51H18.5V9.21ZM4 8.42L12 3L20.01 8.42V18.62C20.01 18.84 19.83 19.02 19.61 19.02H14V12.22C14 12.1948 14.0004 12.1728 14.0007 12.1536C14.0027 12.0275 14.0028 12.02 13.89 12.02H13.8H10.2H10.11C9.99919 12.02 9.99923 12.0285 9.99989 12.1794C9.99994 12.1919 10 12.2054 10 12.22V19.02H4.4C4.18 19.02 4 18.84 4 18.62V8.42Z" fill="black"/>
</svg>
