<svg width="24" height="24" viewBox="0 0 24 24" fill="none" xmlns="http://www.w3.org/2000/svg">
<path fill-rule="evenodd" clip-rule="evenodd" d="M2 12C2 6.48 6.48 2 12 2C17.52 2 22 6.48 22 12C22 17.52 17.52 22 12 22C6.48 22 2 17.52 2 12ZM12.6 17C12.82 17 13 16.82 13 16.6V11.4C13 11.18 12.82 11 12.6 11H11.4C11.18 11 11 11.18 11 11.4V16.6C11 16.82 11.18 17 11.4 17H12.6ZM10.9 8C10.9 8.61 11.39 9.1 12 9.1C12.61 9.1 13.1 8.61 13.1 8C13.1 7.39 12.61 6.9 12 6.9C11.39 6.9 10.9 7.39 10.9 8Z" fill="black"/>
</svg>
