<svg width="24" height="24" viewBox="0 0 24 24" fill="none" xmlns="http://www.w3.org/2000/svg">
<path fill-rule="evenodd" clip-rule="evenodd" d="M10.6 3H3.4C3.17909 3 3 3.17909 3 3.4V10.6C3 10.8209 3.17909 11 3.4 11H10.6C10.8209 11 11 10.8209 11 10.6V3.4C11 3.17909 10.8209 3 10.6 3ZM20.6 3H13.4C13.1791 3 13 3.17909 13 3.4V10.6C13 10.8209 13.1791 11 13.4 11H20.6C20.8209 11 21 10.8209 21 10.6V3.4C21 3.17909 20.8209 3 20.6 3ZM3.4 13H10.6C10.8209 13 11 13.1791 11 13.4V20.6C11 20.8209 10.8209 21 10.6 21H3.4C3.17909 21 3 20.8209 3 20.6V13.4C3 13.1791 3.17909 13 3.4 13ZM20.6 13H13.4C13.1791 13 13 13.1791 13 13.4V20.6C13 20.8209 13.1791 21 13.4 21H20.6C20.8209 21 21 20.8209 21 20.6V13.4C21 13.1791 20.8209 13 20.6 13Z" fill="black"/>
</svg>
