<svg width="24" height="24" viewBox="0 0 24 24" fill="none" xmlns="http://www.w3.org/2000/svg">
<path fill-rule="evenodd" clip-rule="evenodd" d="M6.1 4.5H3.9C3.67909 4.5 3.5 4.67909 3.5 4.9V7.1C3.5 7.32091 3.67909 7.5 3.9 7.5H6.1C6.32091 7.5 6.5 7.32091 6.5 7.1V4.9C6.5 4.67909 6.32091 4.5 6.1 4.5ZM6.1 10.5H3.9C3.67909 10.5 3.5 10.6791 3.5 10.9V13.1C3.5 13.3209 3.67909 13.5 3.9 13.5H6.1C6.32091 13.5 6.5 13.3209 6.5 13.1V10.9C6.5 10.6791 6.32091 10.5 6.1 10.5ZM3.9 16.5H6.1C6.32091 16.5 6.5 16.6791 6.5 16.9V19.1C6.5 19.3209 6.32091 19.5 6.1 19.5H3.9C3.67909 19.5 3.5 19.3209 3.5 19.1V16.9C3.5 16.6791 3.67909 16.5 3.9 16.5ZM20.5 6.75H9.5C9.09 6.75 8.75 6.41 8.75 6C8.75 5.59 9.09 5.25 9.5 5.25H20.5C20.91 5.25 21.25 5.59 21.25 6C21.25 6.41 20.91 6.75 20.5 6.75ZM9.5 12.75H20.5C20.91 12.75 21.25 12.41 21.25 12C21.25 11.59 20.91 11.25 20.5 11.25H9.5C9.09 11.25 8.75 11.59 8.75 12C8.75 12.41 9.09 12.75 9.5 12.75ZM20.5 18.75H9.5C9.09 18.75 8.75 18.41 8.75 18C8.75 17.59 9.09 17.25 9.5 17.25H20.5C20.91 17.25 21.25 17.59 21.25 18C21.25 18.41 20.91 18.75 20.5 18.75Z" fill="black"/>
</svg>
