<?xml version="1.0" encoding="UTF-8"?>
<svg id="a" data-name="レイヤー 2" xmlns="http://www.w3.org/2000/svg" width="24" height="24" viewBox="0 0 24 24">
  <path d="M16,17h-2c-.41,0-.75-.34-.75-.75s.34-.75.75-.75h2c1.93,0,3.5-1.57,3.5-3.5s-1.57-3.5-3.5-3.5h-2c-.41,0-.75-.34-.75-.75s.34-.75.75-.75h2c2.76,0,5,2.24,5,5s-2.24,5-5,5Z"/>
  <path d="M10,17h-2c-2.76,0-5-2.24-5-5s2.24-5,5-5h2c.41,0,.75.34.75.75s-.34.75-.75.75h-2c-1.93,0-3.5,1.57-3.5,3.5s1.57,3.5,3.5,3.5h2c.41,0,.75.34.75.75s-.34.75-.75.75Z"/>
  <path d="M15,12.75h-6c-.41,0-.75-.34-.75-.75s.34-.75.75-.75h6c.41,0,.75.34.75.75s-.34.75-.75.75Z"/>
</svg>