<svg width="24" height="24" viewBox="0 0 24 24" fill="none" xmlns="http://www.w3.org/2000/svg">
<path fill-rule="evenodd" clip-rule="evenodd" d="M3.85 7.93001C3.67 8.08001 3.39 8.04001 3.26 7.84001L2.12 6.11001C1.89 5.76001 1.99 5.30001 2.33 5.07001C2.68 4.84001 3.14 4.94001 3.37 5.28001L3.84 5.99001L5.53 4.61001C5.85 4.35001 6.32 4.39001 6.58 4.72001C6.84 5.04001 6.79 5.51001 6.47 5.77001L3.84 7.91001L3.85 7.93001ZM21.25 6.94001H9.25C8.84 6.94001 8.5 6.60001 8.5 6.19001C8.5 5.78001 8.84 5.44001 9.25 5.44001H21.25C21.66 5.44001 22 5.78001 22 6.19001C22 6.60001 21.66 6.94001 21.25 6.94001ZM9.25 12.47H21.25C21.66 12.47 22 12.13 22 11.72C22 11.31 21.66 10.97 21.25 10.97H9.25C8.84 10.97 8.5 11.31 8.5 11.72C8.5 12.13 8.84 12.47 9.25 12.47ZM3.85 13.46C3.67 13.61 3.39 13.57 3.26 13.37L2.12 11.64C1.89 11.29 1.99 10.83 2.33 10.6C2.68 10.37 3.14 10.47 3.37 10.81L3.84 11.52L5.53 10.14C5.85 9.88001 6.32 9.92001 6.58 10.25C6.84 10.57 6.79 11.04 6.47 11.3L3.84 13.44L3.85 13.46ZM9.25 18.47H21.25C21.66 18.47 22 18.13 22 17.72C22 17.31 21.66 16.97 21.25 16.97H9.25C8.84 16.97 8.5 17.31 8.5 17.72C8.5 18.13 8.84 18.47 9.25 18.47ZM3.85 19.46C3.67 19.61 3.39 19.57 3.26 19.37L2.12 17.64C1.89 17.29 1.99 16.83 2.33 16.6C2.68 16.37 3.14 16.47 3.37 16.81L3.84 17.52L5.53 16.14C5.85 15.88 6.32 15.92 6.58 16.25C6.84 16.57 6.79 17.04 6.47 17.3L3.84 19.44L3.85 19.46Z" fill="black"/>
</svg>
