<svg width="24" height="24" viewBox="0 0 24 24" fill="none" xmlns="http://www.w3.org/2000/svg">
<path fill-rule="evenodd" clip-rule="evenodd" d="M19.72 3.30001C19.95 3.21001 20.21 3.24001 20.42 3.38001H20.41C20.62 3.52001 20.74 3.75001 20.74 4.00001V18.02C20.74 18.3 20.57 18.56 20.32 18.69L15.32 21.19H15.3C15.21 21.23 15.1 21.26 14.99 21.26C14.89 21.26 14.79 21.24 14.7 21.2L8.95 18.8L4.21 20.22C3.99 20.28 3.74 20.24 3.55 20.1C3.36 19.96 3.25 19.74 3.25 19.5V5.50001C3.25 5.17001 3.46 4.88001 3.78 4.78001L8.78 3.28001C8.84 3.25001 8.91 3.25001 8.97 3.25001H9C9.08 3.25001 9.15 3.26001 9.23 3.29001L14.97 5.20001L19.72 3.30001ZM14.25 6.54001L9.75 5.04001V17.49L14.25 19.37V6.54001ZM8.25 5.01001L4.75 6.06001V18.49L8.25 17.44V5.01001ZM15.75 19.29L19.25 17.54V5.11001L15.75 6.51001V19.29Z" fill="black"/>
</svg>
