<svg width="24" height="24" viewBox="0 0 24 24" fill="none" xmlns="http://www.w3.org/2000/svg">
<path fill-rule="evenodd" clip-rule="evenodd" d="M11.42 7.98999C11.42 6.60999 10.3 5.48999 8.92001 5.48999C7.54001 5.48999 6.42001 6.60999 6.42001 7.98999C6.42001 9.36999 7.54001 10.49 8.92001 10.49C10.3 10.49 11.42 9.36999 11.42 7.98999ZM4.92001 7.98999C4.92001 5.77999 6.71001 3.98999 8.92001 3.98999C11.13 3.98999 12.92 5.77999 12.92 7.98999C12.92 10.2 11.13 11.99 8.92001 11.99C6.71001 11.99 4.92001 10.2 4.92001 7.98999ZM18.66 8.83999H21.33C21.74 8.83999 22.08 9.17999 22.08 9.58999C22.08 9.99999 21.74 10.34 21.33 10.34H18.66V13.01C18.66 13.42 18.32 13.76 17.91 13.76C17.5 13.76 17.16 13.42 17.16 13.01V10.34H14.49C14.08 10.34 13.74 9.99999 13.74 9.58999C13.74 9.17999 14.08 8.83999 14.49 8.83999H17.16V6.17999C17.16 5.76999 17.5 5.42999 17.91 5.42999C18.32 5.42999 18.66 5.76999 18.66 6.17999V8.83999ZM9.32001 14.51C11.75 14.51 13.8 16.22 14.3 18.51H3.54001C4.04001 16.22 6.09001 14.51 8.52001 14.51H9.32001ZM9.32001 13.01H8.52001C4.87001 13.01 1.92001 15.96 1.92001 19.61C1.92001 19.83 2.10001 20.01 2.32001 20.01H15.52C15.74 20.01 15.92 19.83 15.92 19.61C15.92 15.96 12.97 13.01 9.32001 13.01Z" fill="black"/>
</svg>
