<svg width="24" height="24" viewBox="0 0 24 24" fill="none" xmlns="http://www.w3.org/2000/svg">
<path fill-rule="evenodd" clip-rule="evenodd" d="M9 5.48999C10.38 5.48999 11.5 6.60999 11.5 7.98999C11.5 9.36999 10.38 10.49 9 10.49C7.62 10.49 6.5 9.36999 6.5 7.98999C6.5 6.60999 7.62 5.48999 9 5.48999ZM9 3.98999C6.79 3.98999 5 5.77999 5 7.98999C5 10.2 6.79 11.99 9 11.99C11.21 11.99 13 10.2 13 7.98999C13 5.77999 11.21 3.98999 9 3.98999ZM9.4 14.51C11.83 14.51 13.88 16.22 14.38 18.51H3.62C4.12 16.22 6.17 14.51 8.6 14.51H9.4ZM9.4 13.01H8.6C4.95 13.01 2 15.96 2 19.61C2 19.83 2.18 20.01 2.4 20.01H15.6C15.82 20.01 16 19.83 16 19.61C16 15.96 13.05 13.01 9.4 13.01ZM13.38 11.64C14.37 10.73 15 9.43999 15 7.98999C15 6.53999 14.38 5.23999 13.39 4.32999C13.88 4.11999 14.42 3.98999 15 3.98999C17.21 3.98999 19 5.77999 19 7.98999C19 10.2 17.21 11.99 15 11.99C14.42 11.99 13.88 11.86 13.38 11.64ZM15.4 13.01H14.6C14.4589 13.01 14.3177 13.0189 14.1682 13.0282L14.14 13.03C16.43 14.34 18 16.78 18 19.61C18 19.75 17.97 19.88 17.93 20.01H21.6C21.82 20.01 22 19.83 22 19.61C22 15.96 19.05 13.01 15.4 13.01Z" fill="black"/>
</svg>
