<svg width="24" height="24" viewBox="0 0 24 24" fill="none" xmlns="http://www.w3.org/2000/svg">
<path fill-rule="evenodd" clip-rule="evenodd" d="M12 4.88C11.6159 4.88 11.2388 4.91043 10.8712 4.96899C10.7662 5.31837 10.6653 5.71537 10.57 6.16001C11.03 6.13001 11.5 6.10001 11.99 6.10001C12.48 6.10001 12.95 6.12001 13.41 6.16001C13.3144 5.71396 13.2132 5.31585 13.1078 4.96568C12.7468 4.90928 12.3768 4.88 12 4.88ZM8.50233 5.7969C8.8947 5.57518 9.3102 5.38962 9.74432 5.24473C9.65996 5.57289 9.58231 5.91845 9.50999 6.28001C9.03999 6.35001 8.58999 6.43001 8.14999 6.54001C8.26043 6.28118 8.37801 6.03306 8.50233 5.7969ZM5.24642 9.73926C5.39106 9.30698 5.57604 8.89318 5.7969 8.50234C6.03305 8.37802 6.28116 8.26044 6.53999 8.15001C6.42999 8.59001 6.34999 9.04001 6.27999 9.51001C5.92047 9.57678 5.57414 9.6541 5.24642 9.73926ZM4.88 12C4.88 11.6159 4.91043 11.2388 4.96899 10.8712C5.31836 10.7662 5.71536 10.6653 6.15999 10.57C6.11999 11.03 6.09999 11.5 6.09999 11.99C6.09999 12.48 6.12999 12.95 6.15999 13.41C5.71396 13.3144 5.31585 13.2132 4.96568 13.1079C4.90928 12.7468 4.88 12.3768 4.88 12ZM5.78092 15.4692C5.56256 15.0787 5.37994 14.6654 5.23747 14.2338C5.56779 14.3189 5.91577 14.3972 6.27999 14.47C6.34999 14.94 6.42999 15.39 6.53999 15.83C6.27532 15.7171 6.02186 15.5967 5.78092 15.4692ZM9.74496 18.7555C9.31616 18.6124 8.90551 18.4297 8.51738 18.2116C8.38749 17.9669 8.26488 17.7093 8.14999 17.44C8.58999 17.55 9.03999 17.63 9.50999 17.7C9.57825 18.0676 9.65754 18.4213 9.74496 18.7555ZM12 19.12C11.6181 19.12 11.2431 19.0899 10.8775 19.032C10.7702 18.6776 10.6672 18.2736 10.57 17.82C11.03 17.86 11.5 17.88 11.99 17.88C12.48 17.88 12.95 17.85 13.41 17.82C13.3125 18.275 13.2091 18.6801 13.1015 19.0353C12.7425 19.0911 12.3746 19.12 12 19.12ZM15.4541 18.2275C15.0663 18.4431 14.6562 18.6235 14.2282 18.7644C14.3154 18.4276 14.3955 18.0723 14.47 17.7C14.94 17.63 15.39 17.55 15.83 17.44C15.7126 17.7151 15.5872 17.9781 15.4541 18.2275ZM18.7628 14.2331C18.6221 14.6594 18.4423 15.0678 18.2275 15.4541C17.9781 15.5872 17.7151 15.7126 17.44 15.83C17.55 15.39 17.63 14.94 17.7 14.47C18.0702 14.4013 18.4264 14.3213 18.7628 14.2331ZM19.12 12C19.12 12.3746 19.0911 12.7425 19.0353 13.1015C18.6801 13.2091 18.275 13.3125 17.82 13.41C17.86 12.95 17.88 12.48 17.88 11.99C17.88 11.5 17.85 11.03 17.82 10.57C18.2736 10.6672 18.6776 10.7702 19.032 10.8775C19.0899 11.2432 19.12 11.6181 19.12 12ZM18.2116 8.51741C18.4305 8.90705 18.6139 9.31938 18.7572 9.74998C18.4225 9.66343 18.0696 9.58393 17.7 9.51001C17.63 9.04001 17.55 8.59001 17.44 8.15001C17.7093 8.2649 17.9669 8.38752 18.2116 8.51741ZM14.2388 5.23913C14.6686 5.38135 15.0801 5.5634 15.4692 5.7809C15.5967 6.02185 15.7171 6.27533 15.83 6.54001C15.39 6.43001 14.94 6.35001 14.47 6.28001C14.4027 5.91782 14.3248 5.56901 14.2388 5.23913ZM3.38 12C3.38 7.23931 7.23931 3.38 12 3.38C16.7607 3.38 20.62 7.23931 20.62 12C20.62 16.7607 16.7607 20.62 12 20.62C7.23931 20.62 3.38 16.7607 3.38 12ZM16.88 12C16.88 12.55 16.85 13.08 16.79 13.61C16.22 13.7 15.59 13.78 14.91 13.84C14.94 13.23 14.96 12.61 14.96 12C14.96 11.39 14.94 10.77 14.91 10.16C15.6 10.22 16.22 10.3 16.79 10.39C16.84 10.91 16.88 11.45 16.88 12ZM10.04 12C10.04 11.33 10.06 10.69 10.09 10.09C10.69 10.06 11.32 10.04 12 10.04C12.68 10.04 13.31 10.06 13.91 10.09C13.94 10.69 13.96 11.32 13.96 12C13.96 12.68 13.94 13.31 13.91 13.91C13.31 13.94 12.68 13.96 12 13.96C11.32 13.96 10.69 13.94 10.09 13.91C10.06 13.31 10.04 12.68 10.04 12ZM16.26 7.73001C16.42 8.24001 16.55 8.79001 16.65 9.35001C16.07 9.27001 15.46 9.20001 14.84 9.15001C14.79 8.53001 14.72 7.92001 14.64 7.34001C15.21 7.44001 15.75 7.57001 16.26 7.73001ZM11.99 7.11001C12.54 7.11001 13.07 7.14001 13.6 7.20001C13.69 7.77001 13.77 8.40001 13.83 9.08001C13.22 9.05001 12.6 9.03001 11.99 9.03001C11.38 9.03001 10.76 9.05001 10.15 9.08001C10.21 8.39001 10.29 7.77001 10.38 7.20001C10.9 7.15001 11.44 7.11001 11.99 7.11001ZM7.71999 7.73001C8.22999 7.57001 8.77999 7.44001 9.33999 7.34001C9.25999 7.92001 9.18999 8.53001 9.13999 9.15001C8.51999 9.20001 7.90999 9.27001 7.32999 9.35001C7.42999 8.78001 7.55999 8.24001 7.71999 7.73001ZM7.09999 12C7.09999 11.45 7.12999 10.92 7.18999 10.39C7.75999 10.3 8.38999 10.22 9.06999 10.16C9.03999 10.77 9.01999 11.39 9.01999 12C9.01999 12.61 9.03999 13.23 9.06999 13.84C8.37999 13.78 7.75999 13.7 7.18999 13.61C7.13999 13.09 7.09999 12.55 7.09999 12ZM7.71999 16.27C7.55999 15.76 7.42999 15.21 7.32999 14.65C7.90999 14.73 8.51999 14.8 9.13999 14.85C9.18999 15.47 9.25999 16.08 9.33999 16.66C8.76999 16.56 8.22999 16.43 7.71999 16.27ZM11.99 16.89C11.44 16.89 10.91 16.86 10.38 16.8C10.29 16.23 10.21 15.6 10.15 14.92C10.76 14.95 11.38 14.97 11.99 14.97C12.6 14.97 13.22 14.95 13.83 14.92C13.77 15.61 13.69 16.23 13.6 16.8C13.08 16.85 12.54 16.89 11.99 16.89ZM14.64 16.66C14.72 16.08 14.79 15.47 14.84 14.85C15.46 14.8 16.07 14.73 16.65 14.65C16.55 15.22 16.42 15.76 16.26 16.27C15.75 16.43 15.2 16.56 14.64 16.66Z" fill="black"/>
</svg>
