<svg width="24" height="24" viewBox="0 0 24 24" fill="none" xmlns="http://www.w3.org/2000/svg">
<path fill-rule="evenodd" clip-rule="evenodd" d="M4.75 14C5.85457 14 6.75 13.1046 6.75 12C6.75 10.8954 5.85457 10 4.75 10C3.64543 10 2.75 10.8954 2.75 12C2.75 13.1046 3.64543 14 4.75 14ZM14.25 12C14.25 13.1046 13.3546 14 12.25 14C11.1454 14 10.25 13.1046 10.25 12C10.25 10.8954 11.1454 10 12.25 10C13.3546 10 14.25 10.8954 14.25 12ZM21.25 12C21.25 13.1046 20.3546 14 19.25 14C18.1454 14 17.25 13.1046 17.25 12C17.25 10.8954 18.1454 10 19.25 10C20.3546 10 21.25 10.8954 21.25 12Z" fill="black"/>
</svg>
