<svg width="24" height="24" viewBox="0 0 24 24" fill="none" xmlns="http://www.w3.org/2000/svg">
<path fill-rule="evenodd" clip-rule="evenodd" d="M14 5C14 6.10457 13.1046 7 12 7C10.8954 7 10 6.10457 10 5C10 3.89543 10.8954 3 12 3C13.1046 3 14 3.89543 14 5ZM14 12C14 13.1046 13.1046 14 12 14C10.8954 14 10 13.1046 10 12C10 10.8954 10.8954 10 12 10C13.1046 10 14 10.8954 14 12ZM12 21.5C13.1046 21.5 14 20.6046 14 19.5C14 18.3954 13.1046 17.5 12 17.5C10.8954 17.5 10 18.3954 10 19.5C10 20.6046 10.8954 21.5 12 21.5Z" fill="black"/>
</svg>
