<svg width="24" height="24" viewBox="0 0 24 24" fill="none" xmlns="http://www.w3.org/2000/svg">
<path fill-rule="evenodd" clip-rule="evenodd" d="M20 12.4C20 12.18 19.82 12 19.6 12H18.9C18.68 12 18.5 12.18 18.5 12.4V18.5H5.5V5.5H11.6C11.82 5.5 12 5.32 12 5.1V4.4C12 4.18 11.82 4 11.6 4H4.4C4.18 4 4 4.18 4 4.4V19.6C4 19.82 4.18 20 4.4 20H19.6C19.82 20 20 19.82 20 19.6V12.4ZM14.4 4H18.5H20V5.5V9.6C20 9.82 19.82 10 19.6 10H18.9C18.68 10 18.5 9.82 18.5 9.6V6.55468L10.5415 14.5132C10.2516 14.8031 9.77073 14.8031 9.48082 14.5132C9.1909 14.2233 9.1909 13.7425 9.48082 13.4525L17.4334 5.5H14.4C14.18 5.5 14 5.32 14 5.1V4.4C14 4.18 14.18 4 14.4 4Z" fill="black"/>
</svg>
