<?xml version="1.0" encoding="UTF-8"?>
<svg id="Layer_1" data-name="Layer 1" xmlns="http://www.w3.org/2000/svg" viewBox="0 0 24 24">
  <defs>
    <style>
      .cls-1 {
        fill: #fff;
      }
    </style>
  </defs>
  <polygon class="cls-1" points="13.45 4.45 6.01 4.45 6.01 20.52 17.68 20.52 17.68 9.08 13.45 4.45"/>
  <g>
    <path d="M15.6,12.37h-7.2c-.22,0-.4.22-.4.5v.5c0,.28.18.5.4.5h7.2c.22,0,.4-.22.4-.5v-.5c0-.28-.18-.5-.4-.5h0Z"/>
    <path d="M15.6,16.37h-7.2c-.22,0-.4.22-.4.5v.5c0,.28.18.5.4.5h7.2c.22,0,.4-.22.4-.5v-.5c0-.28-.18-.5-.4-.5h0Z"/>
    <path d="M17.8,20.17H6.2V4.57h8l-1.2-1.2h-7.6c-.22,0-.4.18-.4.4v17.2c0,.22.18.4.4.4h13.2c.22,0,.4-.18.4-.4v-11.6l-1.2-1.2v12Z"/>
    <polygon points="19 9.37 13 9.37 13 3.37 19 9.37"/>
    <path d="M17.5,8.99v10.88H6.5V4.87h6.88l4.12,4.12ZM13,3.37h-7.6c-.22,0-.4.18-.4.4v17.2c0,.22.18.4.4.4h13.2c.22,0,.4-.18.4-.4v-11.6l-6-6h0Z"/>
  </g>
</svg>