<?xml version="1.0" encoding="UTF-8"?>
<svg id="Layer_1" data-name="Layer 1" xmlns="http://www.w3.org/2000/svg" viewBox="0 0 24 24">
  <defs>
    <style>
      .cls-1 {
        fill: #fff;
      }
    </style>
  </defs>
  <circle class="cls-1" cx="12" cy="12.48" r="8.75"/>
  <g>
    <path d="M12,21.75c-5.38,0-9.75-4.37-9.75-9.75S6.62,2.25,12,2.25s9.75,4.37,9.75,9.75-4.37,9.75-9.75,9.75ZM12,3.75C7.45,3.75,3.75,7.45,3.75,12s3.7,8.25,8.25,8.25,8.25-3.7,8.25-8.25S16.55,3.75,12,3.75Z"/>
    <path d="M13.04,12.02l3.15-3.15c.29-.29.29-.77,0-1.06s-.77-.29-1.06,0l-3.15,3.15-3.15-3.15c-.29-.29-.77-.29-1.06,0s-.29.77,0,1.06l3.15,3.15-3.15,3.15c-.15.15-.22.34-.22.53s.07.38.22.53c.29.29.77.29,1.06,0l3.15-3.15,3.15,3.15c.15.15.34.22.53.22s.38-.07.53-.22c.29-.29.29-.77,0-1.06l-3.15-3.15Z"/>
  </g>
</svg>