<svg width="24" height="24" viewBox="0 0 24 24" fill="none" xmlns="http://www.w3.org/2000/svg">
<path fill-rule="evenodd" clip-rule="evenodd" d="M20.72 13.6H13.29V13.61C13.07 13.61 12.89 13.43 12.89 13.21V11.76H7.75001V18.26H12.89V16.81C12.89 16.59 13.07 16.41 13.29 16.41H20.72C20.94 16.41 21.12 16.59 21.12 16.81V21.21C21.12 21.43 20.94 21.61 20.72 21.61H13.29C13.07 21.61 12.89 21.43 12.89 21.21V19.76H7.00001C6.59001 19.76 6.25001 19.42 6.25001 19.01V7.60002H3.29001C3.07001 7.60002 2.89001 7.42002 2.89001 7.20002V2.80002C2.89001 2.58002 3.07001 2.40002 3.29001 2.40002H10.71C10.93 2.40002 11.11 2.58002 11.11 2.80002V7.19002C11.11 7.41002 10.93 7.59002 10.71 7.59002H7.75001V10.25H12.89V8.80002C12.89 8.58002 13.07 8.40002 13.29 8.40002H20.72C20.94 8.40002 21.12 8.58002 21.12 8.80002V13.2C21.12 13.42 20.94 13.6 20.72 13.6ZM9.62001 3.90002H4.39001V6.10002H9.62001V3.90002ZM19.62 17.91H14.39V20.11H19.62V17.91ZM19.62 9.91002H14.39V12.11H19.62V9.91002Z" fill="black"/>
</svg>
