<svg width="24" height="24" viewBox="0 0 24 24" fill="none" xmlns="http://www.w3.org/2000/svg">
<path fill-rule="evenodd" clip-rule="evenodd" d="M21.1 8.80002V13.2C21.1 13.42 20.92 13.6 20.7 13.6H13.3C13.08 13.6 12.9 13.42 12.9 13.2V11.73H7.77002V18.25H12.9V16.8C12.9 16.58 13.08 16.4 13.3 16.4H20.7C20.92 16.4 21.1 16.58 21.1 16.8V21.2C21.1 21.42 20.92 21.6 20.7 21.6H13.3C13.08 21.6 12.9 21.42 12.9 21.2V19.75H6.67002C6.45002 19.75 6.27002 19.57 6.27002 19.35V7.60002H3.30002C3.08002 7.60002 2.90002 7.42002 2.90002 7.20002V2.80002C2.90002 2.58002 3.08002 2.40002 3.30002 2.40002H10.7C10.92 2.40002 11.1 2.58002 11.1 2.80002V7.20002C11.1 7.42002 10.92 7.60002 10.7 7.60002H7.77002V10.23H12.9V8.80002C12.9 8.58002 13.08 8.40002 13.3 8.40002H20.7C20.92 8.40002 21.1 8.58002 21.1 8.80002Z" fill="black"/>
</svg>
