<svg width="24" height="24" viewBox="0 0 24 24" fill="none" xmlns="http://www.w3.org/2000/svg">
<path fill-rule="evenodd" clip-rule="evenodd" d="M12.89 18.85H7.75V12.35H12.89V13.8C12.89 14.02 13.07 14.2 13.29 14.2H20.72C20.94 14.2 21.12 14.02 21.12 13.8V9.4C21.12 9.18 20.94 9 20.72 9H13.29C13.07 9 12.89 9.18 12.89 9.4V10.85H7.75V8.19H10.71C10.93 8.19 11.11 8.01 11.11 7.79V3.4C11.11 3.18 10.93 3 10.71 3H3.29C3.07 3 2.89 3.18 2.89 3.4V7.8C2.89 8.02 3.07 8.2 3.29 8.2H6.25V19.61C6.25 20.02 6.59 20.36 7 20.36H12.89V18.85ZM4.39 4.5H9.62V6.7H4.39V4.5ZM14.39 10.51H19.62V12.71H14.39V10.51ZM14.03 15.7L16.54 22.66C16.7 23.12 17.35 23.12 17.52 22.66L18.64 19.64L21.66 18.52C22.11 18.35 22.11 17.71 21.66 17.54L14.7 15.03C14.29 14.88 13.89 15.28 14.04 15.69L14.03 15.7Z" fill="black"/>
</svg>
