<svg width="24" height="24" viewBox="0 0 24 24" fill="none" xmlns="http://www.w3.org/2000/svg">
<path fill-rule="evenodd" clip-rule="evenodd" d="M12.89 18.85H7.75001V12.35H12.89V13.8C12.89 14.02 13.07 14.2 13.29 14.2H20.72C20.94 14.2 21.12 14.02 21.12 13.8V9.4C21.12 9.18 20.94 9 20.72 9H13.29C13.07 9 12.89 9.18 12.89 9.4V10.85H7.75001V8.19H10.71C10.93 8.19 11.11 8.01 11.11 7.79V3.4C11.11 3.18 10.93 3 10.71 3H3.29001C3.07001 3 2.89001 3.18 2.89001 3.4V7.8C2.89001 8.02 3.07001 8.2 3.29001 8.2H6.25001V19.61C6.25001 20.02 6.59001 20.36 7.00001 20.36H12.89V18.85ZM4.39001 4.5H9.62001V6.7H4.39001V4.5ZM14.39 10.51H19.62V12.71H14.39V10.51ZM21.29 18.25H18.75V15.71C18.75 15.32 18.41 15 18 15C17.59 15 17.25 15.32 17.25 15.71V18.25H14.71C14.32 18.25 14 18.59 14 19C14 19.41 14.32 19.75 14.71 19.75H17.25V22.29C17.25 22.68 17.59 23 18 23C18.41 23 18.75 22.68 18.75 22.29V19.75H21.29C21.68 19.75 22 19.41 22 19C22 18.59 21.68 18.25 21.29 18.25Z" fill="black"/>
</svg>
