<svg width="24" height="24" viewBox="0 0 24 24" fill="none" xmlns="http://www.w3.org/2000/svg">
<path fill-rule="evenodd" clip-rule="evenodd" d="M17.4 3.77002H20.45V6.59002H21.95V3.02002C21.95 2.61002 21.61 2.27002 21.2 2.27002H17.4V3.77002ZM3.54999 3.78003V6.60003H2.04999V3.03003C2.04999 2.62003 2.38999 2.28003 2.79999 2.28003H6.59999V3.78003H3.54999ZM13.23 11.62L14.3 11.42L14.29 11.41C14.23 10.94 14.08 10.57 13.85 10.28C13.5 9.82999 12.97 9.60999 12.32 9.60999C11.67 9.60999 11.15 9.83999 10.78 10.3C10.35 10.83 10.14 11.58 10.14 12.54C10.14 13.33 10.29 13.96 10.58 14.44C10.94 15.03 11.53 15.33 12.3 15.33C13.07 15.33 13.63 15.06 13.99 14.54C14.19 14.26 14.31 13.91 14.36 13.47L13.27 13.27C13.23 13.53 13.16 13.73 13.08 13.87C12.91 14.18 12.66 14.33 12.32 14.33C12.02 14.33 11.78 14.19 11.6 13.89C11.41 13.58 11.31 13.11 11.31 12.49C11.31 11.93 11.4 11.48 11.57 11.15C11.75 10.8 12.01 10.62 12.33 10.62C12.61 10.62 12.83 10.75 13 11C13.1 11.14 13.17 11.35 13.23 11.62ZM8.87997 10.44C8.47997 9.89999 7.90997 9.63 7.17997 9.63L7.18997 9.62C6.72997 9.62 6.34997 9.72 6.02997 9.92C5.64997 10.16 5.35997 10.52 5.16997 10.99C4.99997 11.42 4.90997 11.91 4.90997 12.45C4.90997 13.33 5.09997 14.02 5.47997 14.53C5.87997 15.07 6.44997 15.34 7.17997 15.34C7.84997 15.34 8.38997 15.11 8.78997 14.65C9.22997 14.13 9.44997 13.41 9.44997 12.48C9.44997 11.63 9.25997 10.95 8.87997 10.44ZM6.32997 11.22C6.52997 10.83 6.80997 10.63 7.17997 10.63C7.51997 10.63 7.78997 10.8 7.98997 11.14C8.17997 11.47 8.27997 11.92 8.27997 12.49C8.27997 13.01 8.19997 13.43 8.02997 13.76C7.82997 14.15 7.54997 14.35 7.17997 14.35C6.83997 14.35 6.56997 14.18 6.36997 13.84C6.17997 13.51 6.07997 13.05 6.07997 12.47C6.07997 11.96 6.15997 11.54 6.32997 11.22ZM15.27 9.71997H17.06C17.61 9.71997 18.04 9.80997 18.35 9.98997C18.8 10.25 19.02 10.73 19.02 11.44C19.02 12.03 18.86 12.46 18.54 12.73C18.4 12.85 18.23 12.94 18.03 13C18.006 13.0096 17.9704 13.0192 17.9267 13.031L17.9266 13.031L17.9266 13.031C17.8793 13.0438 17.8223 13.0592 17.76 13.08C17.89 13.17 17.98 13.25 18.04 13.31C18.09 13.37 18.17 13.49 18.27 13.66L19.17 15.27H17.93L17.21 13.87C17.06 13.57 16.95 13.39 16.89 13.32C16.79 13.22 16.67 13.16 16.51 13.16H16.41V15.27H15.28V9.72997L15.27 9.71997ZM16.4 12.27H17.15C17.4 12.27 17.58 12.2 17.69 12.07C17.82 11.92 17.89 11.72 17.89 11.46C17.89 11.18 17.81 10.97 17.66 10.82C17.56 10.72 17.39 10.67 17.17 10.67H16.4V12.26V12.27ZM3.54999 21.04H6.59999V22.54H2.79999C2.38999 22.54 2.04999 22.2 2.04999 21.79V17.41H3.54999V21.04ZM20.45 17.4V21.03H17.4V22.53H21.2C21.61 22.53 21.95 22.19 21.95 21.78V17.4H20.45Z" fill="black"/>
</svg>
