<svg width="24" height="24" viewBox="0 0 24 24" fill="none" xmlns="http://www.w3.org/2000/svg">
<path fill-rule="evenodd" clip-rule="evenodd" d="M19.5 19C19.5 19.28 19.28 19.5 19 19.5H4.99998C4.71999 19.5 4.49998 19.28 4.49998 19V5C4.49998 4.72 4.71999 4.5 4.99998 4.5H19C19.28 4.5 19.5 4.72 19.5 5V6.5H21V5C21 3.9 20.1 3 19 3H4.99998C3.89998 3 2.99998 3.9 2.99998 5V19C2.99998 20.1 3.89998 21 4.99998 21H19C20.1 21 21 20.1 21 19V17.5H19.5V19ZM18.52 16.27L21.9 12.26C22.03 12.11 22.03 11.89 21.9 11.74L18.52 7.74C18.25 7.42 17.78 7.38 17.46 7.65C17.14 7.92 17.1 8.39 17.37 8.71L19.52 11.25H9.73997C9.32998 11.25 8.98997 11.59 8.98997 12C8.98997 12.41 9.32998 12.75 9.73997 12.75H19.52L17.37 15.3C17.25 15.44 17.19 15.61 17.19 15.78C17.19 15.99 17.28 16.2 17.46 16.35C17.78 16.62 18.25 16.58 18.52 16.26V16.27Z" fill="black"/>
</svg>
