<svg width="24" height="24" viewBox="0 0 24 24" fill="none" xmlns="http://www.w3.org/2000/svg">
<path fill-rule="evenodd" clip-rule="evenodd" d="M12 19.43H4.48001V3.97998H19.19V12H20.69V3.22998C20.69 2.81998 20.35 2.47998 19.94 2.47998H3.73001C3.32001 2.47998 2.98001 2.81998 2.98001 3.22998V20.18C2.98001 20.59 3.32001 20.93 3.73001 20.93H12V19.43ZM21.29 18.75H14.7C14.31 18.75 13.99 18.41 13.99 18C13.99 17.59 14.31 17.25 14.7 17.25H21.29C21.68 17.25 22 17.59 22 18C22 18.41 21.68 18.75 21.29 18.75Z" fill="black"/>
</svg>
