<svg width="24" height="24" viewBox="0 0 24 24" fill="none" xmlns="http://www.w3.org/2000/svg">
<path fill-rule="evenodd" clip-rule="evenodd" d="M20.9951 19.75L21 19.75H20.99L20.9951 19.75ZM21.44 19.6C21.3114 19.699 21.1534 19.749 20.9951 19.75C20.9267 19.7495 20.8581 19.7396 20.78 19.72C20.7778 19.7196 20.7665 19.7164 20.7465 19.7107L20.7226 19.7039C20.1607 19.544 15.6151 18.25 12 18.25C8.16001 18.25 3.26001 19.7 3.22001 19.72C2.99001 19.79 2.75001 19.75 2.56001 19.6C2.37001 19.46 2.26001 19.24 2.26001 19V5.00002C2.26001 4.77002 2.37001 4.55002 2.55001 4.40002C2.74001 4.26002 2.98001 4.21002 3.20001 4.27002C3.2028 4.27058 3.22219 4.27564 3.2569 4.28469C3.84531 4.43816 8.83664 5.74002 12 5.74002C15.1634 5.74002 20.1547 4.43817 20.7431 4.28469L20.7431 4.28469L20.7431 4.28469C20.7778 4.27564 20.7972 4.27058 20.8 4.27002C21.03 4.21002 21.27 4.26002 21.45 4.40002C21.64 4.54002 21.74 4.76002 21.74 5.00002V19C21.74 19.24 21.63 19.46 21.44 19.6ZM20.25 18.01C18.58 17.57 15.04 16.75 12 16.75V16.76C8.96001 16.76 5.42001 17.58 3.75001 18.02V5.97002C5.50001 6.40002 9.29001 7.25002 12 7.25002C14.71 7.25002 18.5 6.40002 20.25 5.97002V18.01ZM14.49 9.50002L19 16.26C17.49 15.88 14.68 15.35 12 15.35C8.94 15.35 5.13 16.26 5.13 16.26L8.75 10.5L11.25 13.86L14.49 9.50002ZM11.04 10.52C11.6033 10.52 12.06 10.0634 12.06 9.50002C12.06 8.93669 11.6033 8.48002 11.04 8.48002C10.4767 8.48002 10.02 8.93669 10.02 9.50002C10.02 10.0634 10.4767 10.52 11.04 10.52Z" fill="black"/>
</svg>
