<svg width="24" height="24" viewBox="0 0 24 24" fill="none" xmlns="http://www.w3.org/2000/svg">
<path fill-rule="evenodd" clip-rule="evenodd" d="M14.89 3.44997H19.8C20.21 3.44997 20.55 3.78997 20.55 4.19997V19.79C20.55 20.2 20.21 20.54 19.8 20.54H4.20999C3.79999 20.54 3.45999 20.2 3.45999 19.79V4.19997C3.45999 3.78997 3.79999 3.44997 4.20999 3.44997H9.11999C9.22999 3.24997 9.35999 3.05997 9.52999 2.88997L10.28 2.12997C11.23 1.15997 12.78 1.15997 13.73 2.12997L14.48 2.88997C14.65 3.05997 14.78 3.24997 14.89 3.44997ZM13 3.49997C13 2.94997 12.55 2.49997 12 2.49997C11.45 2.49997 11 2.94997 11 3.49997C11 4.04997 11.45 4.49997 12 4.49997C12.55 4.49997 13 4.04997 13 3.49997ZM4.94999 19.05H19.05V19.04V4.94997H17V7.59997C17 7.81997 16.82 7.99997 16.6 7.99997H7.39999C7.17999 7.99997 6.99999 7.81997 6.99999 7.59997V4.94997H4.94999V19.05Z" fill="black"/>
</svg>
