<svg width="24" height="24" viewBox="0 0 24 24" fill="none" xmlns="http://www.w3.org/2000/svg">
<path fill-rule="evenodd" clip-rule="evenodd" d="M3.29999 21.35H20.2C20.42 21.35 20.6 21.17 20.6 20.95V20.9466C20.694 20.8213 20.75 20.6665 20.75 20.5V3.50003C20.75 3.3336 20.694 3.17871 20.6 3.05341V3.05002C20.6 2.83002 20.42 2.65002 20.2 2.65002H3.29999C3.07999 2.65002 2.89999 2.83002 2.89999 3.05002V3.05343C2.80602 3.17873 2.75 3.33361 2.75 3.50003V20.5C2.75 20.6664 2.80602 20.8213 2.89999 20.9466V20.95C2.89999 21.17 3.07999 21.35 3.29999 21.35ZM6.03 9.52002V14.44H7.03V12.78H7.62C8.17 12.78 8.58 12.68 8.85 12.49C9.2 12.24 9.37 11.8 9.37 11.18C9.37 10.07 8.83 9.52002 7.74 9.52002H6.03ZM7.75 11.91H7.03L7.02 11.92V10.39H7.82C7.95 10.39 8.06 10.44 8.16 10.56C8.28 10.7 8.34 10.9 8.34 11.14C8.34 11.38 8.29 11.57 8.18 11.71C8.08 11.84 7.94 11.91 7.75 11.91ZM10.06 14.44V9.52002H11.62C12.01 9.52002 12.34 9.57002 12.59 9.68002C13.02 9.85002 13.32 10.18 13.5 10.66C13.65 11.05 13.73 11.51 13.73 12.02C13.73 13.64 13.05 14.45 11.68 14.45H10.06V14.44ZM11.06 13.53H11.66C11.99 13.53 12.24 13.41 12.4 13.17C12.59 12.9 12.69 12.51 12.69 12.02C12.69 11.53 12.59 11.13 12.4 10.84C12.29 10.67 12.15 10.55 11.98 10.49C11.89 10.46 11.76 10.45 11.61 10.45H11.05V13.54L11.06 13.53ZM14.79 9.52002V14.44H15.79V12.51H17.78V11.65H15.79V10.41H17.96V9.52002H14.79ZM4.25 19.75H19.25V4.25003H4.25V19.75Z" fill="black"/>
</svg>
