<svg width="24" height="24" viewBox="0 0 24 24" fill="none" xmlns="http://www.w3.org/2000/svg">
<path fill-rule="evenodd" clip-rule="evenodd" d="M6.39998 2H21.6C21.82 2 22 2.18 22 2.4V17.6C22 17.82 21.82 18 21.6 18H6.39998C6.17998 18 5.99998 17.82 5.99998 17.6V2.4C5.99998 2.18 6.17998 2 6.39998 2ZM9.77998 13.98H14.75H14.77H18.23C18.55 13.98 18.74 13.61 18.55 13.35L15.83 9.59C15.67 9.37 15.34 9.37 15.18 9.59L13.38 12.08L12.2 10.45C12.04 10.23 11.71 10.23 11.55 10.45L9.45998 13.35C9.25998 13.61 9.44998 13.98 9.77998 13.98ZM2.39998 6H2.62131C2.74137 5.91812 2.88572 5.87 3.03998 5.87C3.19423 5.87 3.33858 5.91812 3.45864 6H3.59998V6.12441C3.71785 6.25716 3.78998 6.43116 3.78998 6.62V20.25H17.55C17.7164 20.25 17.8713 20.306 17.9966 20.4H18V20.4026C18.1815 20.5403 18.3 20.7579 18.3 21C18.3 21.2421 18.1815 21.4597 18 21.5974V21.6H17.9966C17.8713 21.694 17.7164 21.75 17.55 21.75H3.03998C2.62998 21.75 2.28998 21.41 2.28998 21V6.62C2.28998 6.47876 2.33032 6.34583 2.39998 6.23225V6Z" fill="black"/>
</svg>
