<svg width="24" height="24" viewBox="0 0 24 24" fill="none" xmlns="http://www.w3.org/2000/svg">
<path fill-rule="evenodd" clip-rule="evenodd" d="M4.4 2H19.6C19.82 2 20 2.18 20 2.4V21.6C20 21.82 19.82 22 19.6 22H4.4C4.18 22 4 21.82 4 21.6V2.4C4 2.18 4.18 2 4.4 2ZM16 10.29V3.4C16 3.18 15.82 3 15.6 3H11.4C11.18 3 11 3.18 11 3.4V10.29C11 10.6 11.34 10.79 11.61 10.63L13.5 9.49L15.39 10.63C15.66 10.79 16 10.6 16 10.29ZM7.78 17.85H12.75H12.77H16.23C16.55 17.85 16.74 17.48 16.55 17.22L13.83 13.46C13.67 13.24 13.34 13.24 13.18 13.46L11.38 15.95L10.2 14.32C10.04 14.1 9.71 14.1 9.55 14.32L7.46 17.22C7.26 17.48 7.45 17.85 7.78 17.85Z" fill="black"/>
</svg>
