<svg width="24" height="24" viewBox="0 0 24 24" fill="none" xmlns="http://www.w3.org/2000/svg">
<path fill-rule="evenodd" clip-rule="evenodd" d="M21.75 13C21.75 9.24 19.63 8.33 17.75 8.26V4C17.75 3.59 17.41 3.25 17 3.25H7C6.59 3.25 6.25 3.59 6.25 4V8.27C3.67 8.37 2.25 10.04 2.25 13V15.94C2.25 16.35 2.59 16.69 3 16.69H6.25V20C6.25 20.41 6.59 20.75 7 20.75H17C17.41 20.75 17.75 20.41 17.75 20V16.69H21.04C21.24 16.69 21.44 16.61 21.58 16.46C21.72 16.31 21.8 16.12 21.79 15.92C21.79 15.92 21.75 13.99 21.75 13ZM7.75 4.75H16.25V8.25H7.75V4.75ZM16.25 19.25H7.75V14.75H16.25V19.25ZM17.75 15.19V14C17.75 13.59 17.41 13.25 17 13.25H7C6.59 13.25 6.25 13.59 6.25 14V15.19H3.75V13C3.75 10.12 5.22 9.75 6.5 9.75H17.5C19.92 9.75 20.25 11.39 20.25 13C20.25 13.4371 20.2606 14.0492 20.2702 14.6046L20.2702 14.605C20.2738 14.8119 20.2773 15.0109 20.28 15.19H17.75ZM18.6 11H17.4C17.1791 11 17 11.1791 17 11.4V12.1C17 12.3209 17.1791 12.5 17.4 12.5H18.6C18.8209 12.5 19 12.3209 19 12.1V11.4C19 11.1791 18.8209 11 18.6 11Z" fill="black"/>
</svg>
