<?xml version="1.0" encoding="UTF-8"?>
<svg id="a" data-name="レイヤー 2" xmlns="http://www.w3.org/2000/svg" width="24" height="24" viewBox="0 0 24 24">
  <path d="M9.5,5v4.5h-4.5v-4.5h4.5M10.6,3.5H3.9c-.22,0-.4.18-.4.4v6.7c0,.22.18.4.4.4h6.7c.22,0,.4-.18.4-.4V3.9c0-.22-.18-.4-.4-.4h0Z"/>
  <path d="M9.5,14.5v4.5h-4.5v-4.5h4.5M10.6,13H3.9c-.22,0-.4.18-.4.4v6.7c0,.22.18.4.4.4h6.7c.22,0,.4-.18.4-.4v-6.7c0-.22-.18-.4-.4-.4h0Z"/>
  <rect x="13" y="13" width="3" height="3" rx=".4" ry=".4"/>
  <rect x="13" y="17.5" width="3" height="3" rx=".4" ry=".4"/>
  <rect x="17.5" y="17.5" width="3" height="3" rx=".4" ry=".4"/>
  <rect x="17.5" y="13" width="3" height="3" rx=".4" ry=".4"/>
  <path d="M19,5v4.5h-4.5v-4.5h4.5M20.1,3.5h-6.7c-.22,0-.4.18-.4.4v6.7c0,.22.18.4.4.4h6.7c.22,0,.4-.18.4-.4V3.9c0-.22-.18-.4-.4-.4h0Z"/>
</svg>