<svg width="24" height="24" viewBox="0 0 24 24" fill="none" xmlns="http://www.w3.org/2000/svg">
<path fill-rule="evenodd" clip-rule="evenodd" d="M18.23 5C18.23 4.59 18.57 4.25 18.98 4.25V4.26C19.39 4.26 19.73 4.6 19.73 5.01V10.34C19.73 10.56 19.55 10.74 19.33 10.74H14.03C13.62 10.74 13.28 10.4 13.28 9.99C13.28 9.58 13.62 9.24 14.03 9.24H17.59C16.83 7.67 14.97 5.79 12 5.79C7.98997 5.79 5.77997 9.48 5.77997 12.01C5.77997 14.54 7.76997 18.27 12.04 18.27C15.67 18.27 17.23 15.71 17.84 14.18C17.99 13.79 18.43 13.61 18.81 13.76C19.2 13.91 19.38 14.35 19.23 14.73C17.95 17.93 15.33 19.76 12.04 19.76C7.23997 19.76 4.27997 15.65 4.27997 12C4.27997 8.35 7.44997 4.28 12 4.28C14.95 4.28 17.03 5.8 18.23 7.42V5Z" fill="black"/>
</svg>
