<svg width="24" height="24" viewBox="0 0 24 24" fill="none" xmlns="http://www.w3.org/2000/svg">
<path fill-rule="evenodd" clip-rule="evenodd" d="M16.07 5.57001L18.22 7.72001C18.38 7.88001 18.38 8.13001 18.22 8.29001L17.03 9.48001L14.31 6.76001L15.5 5.57001C15.66 5.41001 15.91 5.41001 16.07 5.57001ZM18.2 18.25L10.47 18.24L13.28 15.43C13.35 15.35 13.45 15.31 13.56 15.31H18.2C18.42 15.31 18.6 15.49 18.6 15.71V17.85C18.6 18.07 18.42 18.25 18.2 18.25ZM13.25 7.81L5.53003 15.53V18.26H8.26003V18.24L15.97 10.53L13.25 7.81Z" fill="black"/>
</svg>
