<svg width="24" height="24" viewBox="0 0 24 24" fill="none" xmlns="http://www.w3.org/2000/svg">
<path fill-rule="evenodd" clip-rule="evenodd" d="M20.03 5.47L17.03 2.47C16.74 2.18 16.26 2.18 15.97 2.47C15.68 2.76 15.68 3.24 15.97 3.53L17.69 5.25H6C5.59 5.25 5.25 5.59 5.25 6V10.5C5.25 10.91 5.59 11.25 6 11.25C6.41 11.25 6.75 10.91 6.75 10.5V6.75H17.69L15.97 8.47C15.68 8.76 15.68 9.24 15.97 9.53C16.12 9.68 16.31 9.75 16.5 9.75C16.69 9.75 16.88 9.68 17.03 9.53L20.03 6.53C20.32 6.24 20.32 5.76 20.03 5.47ZM4 18.52L7 21.52C7.29 21.81 7.77 21.81 8.06 21.52C8.35 21.23 8.35 20.75 8.06 20.46L6.34 18.74H18.03C18.44 18.74 18.78 18.4 18.78 17.99V13.49C18.78 13.08 18.44 12.74 18.03 12.74C17.62 12.74 17.28 13.08 17.28 13.49V17.24H6.34L8.06 15.52C8.35 15.23 8.35 14.75 8.06 14.46C7.91 14.31 7.72 14.24 7.53 14.24C7.34 14.24 7.15 14.31 7 14.46L4 17.46C3.71 17.75 3.71 18.23 4 18.52Z" fill="black"/>
</svg>
