<svg width="24" height="24" viewBox="0 0 24 24" fill="none" xmlns="http://www.w3.org/2000/svg">
<path fill-rule="evenodd" clip-rule="evenodd" d="M14.73 11.29H13.39L13.01 10.01H10.99L10.62 11.29H9.28L11.28 4.91998H12.72L14.73 11.29ZM12.76 9.07998L12 6.44998L11.25 9.07998H12.76ZM16.29 8.01999C16.42 7.62999 16.85 7.41999 17.24 7.54999C20.06 8.48999 21.75 10.16 21.75 12C21.75 13.98 19.87 15.71 16.71 16.62C16.64 16.65 16.57 16.65 16.5 16.65C16.17 16.65 15.88 16.44 15.78 16.11C15.66 15.71 15.89 15.3 16.29 15.18C18.7 14.48 20.25 13.24 20.25 12C20.25 10.85 18.91 9.68999 16.76 8.96999C16.37 8.83999 16.16 8.40999 16.29 8.01999ZM12.68 16.2C12.73 16.29 12.75 16.39 12.75 16.5V16.52C12.75 16.63 12.72 16.73 12.68 16.82C12.6741 16.8378 12.6611 16.852 12.6495 16.8649C12.6415 16.8737 12.6341 16.8818 12.63 16.89C12.59 16.95 12.55 17.01 12.5 17.06C12.48 17.06 12.48 17.08 12.48 17.08L8.97999 20.08C8.83999 20.2 8.65999 20.26 8.48999 20.26C8.27999 20.26 8.06999 20.17 7.91999 20C7.64999 19.68 7.68999 19.21 7.99999 18.94L10.08 17.16C5.55999 16.7 2.23999 14.6 2.23999 12.01C2.23999 10.18 3.91999 8.51999 6.71999 7.56999C7.10999 7.43999 7.53999 7.64999 7.66999 8.03999C7.79999 8.42999 7.58999 8.85999 7.19999 8.98999C5.06999 9.70999 3.73999 10.87 3.73999 12.01C3.73999 13.5 6.13999 15.13 9.78999 15.61L7.99999 14.08C7.68999 13.81 7.64999 13.33 7.91999 13.02C8.18999 12.71 8.66999 12.67 8.97999 12.94L12.48 15.94C12.5 15.94 12.5 15.96 12.5 15.96C12.55 16.01 12.59 16.07 12.63 16.13C12.65 16.15 12.67 16.17 12.68 16.2Z" fill="black"/>
</svg>
