<svg width="24" height="24" viewBox="0 0 24 24" fill="none" xmlns="http://www.w3.org/2000/svg">
<path fill-rule="evenodd" clip-rule="evenodd" d="M4.10999 20.69H19.97V20.68C20.38 20.68 20.72 20.34 20.72 19.93V7.54998C20.72 7.36998 20.66 7.19998 20.55 7.06998L17.58 3.49998C17.43 3.32998 17.22 3.22998 17 3.22998H4.10999C3.69999 3.22998 3.35999 3.56998 3.35999 3.97998V19.94C3.35999 20.35 3.69999 20.69 4.10999 20.69ZM19.22 19.19H4.85999V19.18V4.71998H16.65L19.22 7.81998V19.19ZM6.4 5.99997H14.6C14.8209 5.99997 15 6.17906 15 6.39997V9.59997C15 9.82088 14.8209 9.99997 14.6 9.99997H6.4C6.17909 9.99997 6 9.82088 6 9.59997V6.39997C6 6.17906 6.17909 5.99997 6.4 5.99997ZM12 17.5C13.3807 17.5 14.5 16.3807 14.5 15C14.5 13.6193 13.3807 12.5 12 12.5C10.6193 12.5 9.5 13.6193 9.5 15C9.5 16.3807 10.6193 17.5 12 17.5Z" fill="black"/>
</svg>
