<svg width="24" height="24" viewBox="0 0 24 24" fill="none" xmlns="http://www.w3.org/2000/svg">
<path fill-rule="evenodd" clip-rule="evenodd" d="M20.6 2.25H7.9C7.27 2.25 6.75 2.77 6.75 3.4V11.75H3.4C2.77 11.75 2.25 12.27 2.25 12.9V20.6C2.25 21.23 2.77 21.75 3.4 21.75H11.1C11.73 21.75 12.25 21.23 12.25 20.6V17.25H20.6C21.23 17.25 21.75 16.73 21.75 16.1V3.4C21.75 2.77 21.23 2.25 20.6 2.25ZM11.1 11.75H8.25V3.75H20.25V15.75H12.25V12.9C12.25 12.27 11.73 11.75 11.1 11.75ZM18.04 5.94998C18.11 6.01998 18.16 6.10998 18.2 6.19998V6.17998C18.24 6.27998 18.26 6.36998 18.26 6.46998H18.25V10.98C18.25 11.4 17.91 11.73 17.5 11.73C17.09 11.73 16.76 11.39 16.76 10.98V8.28998L13.53 11.52C13.38 11.67 13.19 11.74 13 11.74C12.81 11.74 12.62 11.67 12.47 11.52C12.18 11.23 12.18 10.75 12.47 10.46L15.7 7.23998H13C12.59 7.23998 12.25 6.89998 12.25 6.48998C12.25 6.07998 12.59 5.73998 13 5.72998H17.51C17.6 5.72998 17.7 5.74998 17.79 5.78998C17.89 5.81998 17.97 5.87998 18.04 5.94998ZM10.75 20.25H3.75V13.25H10.75V20.25Z" fill="black"/>
</svg>
