<svg width="24" height="24" viewBox="0 0 24 24" fill="none" xmlns="http://www.w3.org/2000/svg">
<path fill-rule="evenodd" clip-rule="evenodd" d="M15.45 14.48L20.29 19.32C20.58 19.61 20.58 20.09 20.29 20.38C20.14 20.53 19.95 20.6 19.76 20.6C19.57 20.6 19.38 20.53 19.23 20.38L14.37 15.52C13.16 16.46 11.65 17.03 10 17.03C6.08001 17.03 2.89001 13.84 2.89001 9.92C2.89001 6 6.08001 2.81 10 2.81C13.92 2.81 17.11 6 17.11 9.92C17.11 11.65 16.49 13.24 15.45 14.48ZM10 4.31C6.91001 4.31 4.39001 6.83 4.39001 9.92C4.39001 13.01 6.91001 15.53 10 15.53C13.09 15.53 15.61 13.01 15.61 9.92C15.61 6.83 13.09 4.31 10 4.31Z" fill="black"/>
</svg>
