<svg width="24" height="24" viewBox="0 0 24 24" fill="none" xmlns="http://www.w3.org/2000/svg">
<path fill-rule="evenodd" clip-rule="evenodd" d="M17.75 15.75H9.25V4.25H19.25V3.5C19.25 3.09 18.91 2.75 18.5 2.75H8.5C8.09 2.75 7.75 3.09 7.75 3.5V16.5C7.75 16.91 8.09 17.25 8.5 17.25H18.5C18.91 17.25 19.25 16.91 19.25 16.5V15.75H17.75ZM4 21.75H16.5C16.91 21.75 17.25 21.41 17.25 21C17.25 20.59 16.91 20.25 16.5 20.25H4.75V6.5C4.75 6.09 4.41 5.75 4 5.75C3.59 5.75 3.25 6.09 3.25 6.5V21C3.25 21.41 3.59 21.75 4 21.75ZM16.54 14.33L14.03 7.37L14.04 7.36C13.89 6.95 14.29 6.55 14.7 6.7L21.66 9.21C22.11 9.38 22.11 10.02 21.66 10.19L18.64 11.31L17.52 14.33C17.35 14.79 16.7 14.79 16.54 14.33Z" fill="black"/>
</svg>
