<svg width="24" height="24" viewBox="0 0 24 24" fill="none" xmlns="http://www.w3.org/2000/svg">
<path fill-rule="evenodd" clip-rule="evenodd" d="M5.78 5.29994L20.78 11.2999C21.06 11.4199 21.25 11.6899 21.25 11.9999C21.25 12.3099 21.07 12.5899 20.78 12.6999L5.78 18.6999C5.69 18.7299 5.59 18.7499 5.5 18.7499C5.35 18.7499 5.21 18.7099 5.08 18.6199C4.87 18.4799 4.75 18.2499 4.75 17.9999V5.99994C4.75 5.74994 4.87 5.51994 5.08 5.37994C5.29 5.23994 5.55 5.20994 5.78 5.29994ZM6.25 13.6999V16.8899L18.48 11.9999L6.25 7.10994V10.2999L9.57 11.6299C9.91 11.7599 9.91 12.2399 9.57 12.3699L6.25 13.6999Z" fill="black"/>
</svg>
