<svg width="24" height="24" viewBox="0 0 24 24" fill="none" xmlns="http://www.w3.org/2000/svg">
<path fill-rule="evenodd" clip-rule="evenodd" d="M14.59 2H9.36001V5.11C8.65001 5.38 8.00001 5.76 7.42001 6.22L4.66001 4.62L1.98001 9.28L4.75001 10.88C4.70001 11.23 4.66001 11.6 4.66001 11.96C4.66001 12.32 4.69001 12.67 4.74001 13.02L2.04001 14.58L4.74001 19.28L7.44001 17.72C8.02001 18.18 8.66001 18.55 9.36001 18.82V21.93H14.59V18.82C15.3 18.55 15.95 18.17 16.53 17.71L19.29 19.31L21.97 14.65L19.2 13.05C19.25 12.7 19.29 12.33 19.29 11.97C19.29 11.61 19.25 11.24 19.2 10.89L21.97 9.29L19.29 4.63L16.53 6.23C15.95 5.77 15.29 5.39 14.59 5.12V2.01V2ZM11.98 15C10.32 15 8.98001 13.66 8.98001 12C8.98001 10.34 10.32 9 11.98 9C13.64 9 14.98 10.34 14.98 12C14.98 13.66 13.64 15 11.98 15Z" fill="black"/>
</svg>
