<svg width="24" height="24" viewBox="0 0 24 24" fill="none" xmlns="http://www.w3.org/2000/svg">
<path fill-rule="evenodd" clip-rule="evenodd" d="M13.11 3.5V6.14L14.07 6.51C14.63 6.73 15.15 7.02 15.61 7.39L16.41 8.03L17.3 7.52L18.76 6.67L19.94 8.73L18.47 9.58L17.59 10.09L17.74 11.1C17.79 11.43 17.81 11.71 17.81 11.97C17.81 12.23 17.79 12.5 17.74 12.84L17.59 13.85L18.47 14.36L19.94 15.21L18.76 17.27L17.3 16.42L16.41 15.91L15.61 16.55C15.15 16.92 14.63 17.22 14.07 17.43L13.11 17.8V20.44H10.88V17.8L9.92001 17.43C9.37001 17.22 8.85001 16.92 8.39001 16.56L7.59001 15.92L6.71001 16.43L5.31001 17.24L4.10001 15.14L5.50001 14.33L6.38001 13.82L6.23001 12.82C6.18001 12.49 6.16001 12.22 6.16001 11.97C6.16001 11.72 6.18001 11.44 6.23001 11.1L6.38001 10.09L5.50001 9.58L4.03001 8.73L5.21001 6.67L6.67001 7.52L7.56001 8.03L8.36001 7.39C8.82001 7.02 9.34001 6.72 9.90001 6.51L10.86 6.14V3.5H13.09H13.11ZM14.59 2H9.36001V5.11C8.65001 5.38 8.00001 5.76 7.42001 6.22L4.66001 4.62L1.98001 9.28L4.75001 10.88C4.70001 11.23 4.66001 11.6 4.66001 11.96C4.66001 12.32 4.69001 12.67 4.74001 13.02L2.04001 14.58L4.74001 19.28L7.44001 17.72C8.02001 18.18 8.66001 18.55 9.36001 18.82V21.93H14.59V18.82C15.3 18.55 15.95 18.17 16.53 17.71L19.29 19.31L21.97 14.65L19.2 13.05C19.25 12.7 19.29 12.33 19.29 11.97C19.29 11.61 19.25 11.24 19.2 10.89L21.97 9.29L19.29 4.63L16.53 6.23C15.95 5.77 15.29 5.39 14.59 5.12V2.01V2ZM12 15.75C9.93002 15.75 8.25002 14.07 8.25002 12C8.25002 9.93 9.93002 8.25 12 8.25C14.07 8.25 15.75 9.93 15.75 12C15.75 14.07 14.07 15.75 12 15.75ZM12 9.75C10.76 9.75 9.75002 10.76 9.75002 12C9.75002 13.24 10.76 14.25 12 14.25C13.24 14.25 14.25 13.24 14.25 12C14.25 10.76 13.24 9.75 12 9.75Z" fill="black"/>
</svg>
