<svg width="24" height="24" viewBox="0 0 24 24" fill="none" xmlns="http://www.w3.org/2000/svg">
<path fill-rule="evenodd" clip-rule="evenodd" d="M15.87 16.89C16.41 16.34 17.17 16 18 16C19.66 16 21 17.34 21 19C21 20.66 19.66 22 18 22C16.34 22 15 20.66 15 19C15 18.72 15.05 18.45 15.12 18.19L8.13 14.11C7.59 14.66 6.83 15 6 15C4.34 15 3 13.66 3 12C3 10.34 4.34 9 6 9C6.83 9 7.59 9.34 8.13 9.89L15.12 5.81C15.05 5.55 15 5.28 15 5C15 3.34 16.34 2 18 2C19.66 2 21 3.34 21 5C21 6.66 19.66 8 18 8C17.17 8 16.41 7.66 15.87 7.11L8.88 11.19C8.95 11.45 9 11.72 9 12C9 12.28 8.95 12.55 8.88 12.81L15.87 16.89Z" fill="black"/>
</svg>
