<svg width="24" height="24" viewBox="0 0 24 24" fill="none" xmlns="http://www.w3.org/2000/svg">
<path fill-rule="evenodd" clip-rule="evenodd" d="M16.62 19H16.72C17.1066 19 17.42 18.6866 17.42 18.3V5.7C17.42 5.3134 17.1066 5 16.72 5H16.62C16.2334 5 15.92 5.3134 15.92 5.7V18.3C15.92 18.6866 16.2334 19 16.62 19ZM7.85999 5.46005C7.56999 5.17005 7.08999 5.17005 6.79999 5.46005C6.50999 5.75005 6.50999 6.23005 6.79999 6.52005L12.28 12.0001L6.79999 17.4801C6.50999 17.7701 6.50999 18.2501 6.79999 18.5401C7.08999 18.8301 7.56999 18.8301 7.85999 18.5401L13.34 13.0601L14.4 12.0001L7.85999 5.46005Z" fill="black"/>
</svg>
