<svg width="24" height="24" viewBox="0 0 24 24" fill="none" xmlns="http://www.w3.org/2000/svg">
<path fill-rule="evenodd" clip-rule="evenodd" d="M18.54 6.80002C18.25 6.51002 17.77 6.51002 17.48 6.80002L12 12.28L6.51999 6.80002C6.22999 6.51002 5.74999 6.51002 5.45999 6.80002C5.16999 7.09002 5.16999 7.57002 5.45999 7.86002L10.94 13.34L12 14.4L13.06 13.34L18.54 7.86002C18.83 7.57002 18.83 7.09002 18.54 6.80002ZM5 16.62V16.72C5 17.1066 5.3134 17.42 5.7 17.42H18.3C18.6866 17.42 19 17.1066 19 16.72V16.62C19 16.2334 18.6866 15.92 18.3 15.92H5.7C5.3134 15.92 5 16.2334 5 16.62Z" fill="black"/>
</svg>
