<svg width="24" height="24" viewBox="0 0 24 24" fill="none" xmlns="http://www.w3.org/2000/svg">
<path fill-rule="evenodd" clip-rule="evenodd" d="M19 7.37996V7.27996C19 6.89336 18.6866 6.57996 18.3 6.57996H5.7C5.3134 6.57996 5 6.89336 5 7.27996V7.37996C5 7.76656 5.3134 8.07996 5.7 8.07996H18.3C18.6866 8.07996 19 7.76656 19 7.37996ZM18.54 16.14L13.06 10.66L12 9.59998L10.94 10.66L5.45999 16.14C5.16999 16.43 5.16999 16.91 5.45999 17.2C5.74999 17.49 6.22999 17.49 6.51999 17.2L12 11.72L17.48 17.2C17.77 17.49 18.25 17.49 18.54 17.2C18.83 16.91 18.83 16.43 18.54 16.14Z" fill="black"/>
</svg>
