<svg width="24" height="24" viewBox="0 0 24 24" fill="none" xmlns="http://www.w3.org/2000/svg">
<path fill-rule="evenodd" clip-rule="evenodd" d="M7.31001 5H7.21001C6.82341 5 6.51001 5.3134 6.51001 5.7V18.3C6.51001 18.6866 6.82341 19 7.21001 19H7.31001C7.69661 19 8.01001 18.6866 8.01001 18.3V5.7C8.01001 5.3134 7.69661 5 7.31001 5ZM11.65 12.0001L17.13 6.52005C17.42 6.23005 17.42 5.75005 17.13 5.46005C16.84 5.17005 16.36 5.17005 16.07 5.46005L10.59 10.9401L9.53001 12.0001L10.59 13.0601L16.07 18.5401C16.36 18.8301 16.84 18.8301 17.13 18.5401C17.42 18.2501 17.42 17.7701 17.13 17.4801L11.65 12.0001Z" fill="black"/>
</svg>
