<svg width="24" height="24" viewBox="0 0 24 24" fill="none" xmlns="http://www.w3.org/2000/svg">
<path fill-rule="evenodd" clip-rule="evenodd" d="M20.06 20.81H4.14001C3.73001 20.81 3.39001 20.47 3.39001 20.06V4.14001C3.39001 3.73001 3.73001 3.39001 4.14001 3.39001H20.07C20.48 3.39001 20.82 3.73001 20.82 4.14001V20.07C20.82 20.48 20.48 20.82 20.07 20.82L20.06 20.81ZM19.31 19.31H4.89001V4.89001H19.31V19.31ZM15.95 11.86L9.91001 7.72999C9.76001 7.62999 9.56001 7.72999 9.56001 7.90999V16.18C9.56001 16.36 9.76001 16.47 9.91001 16.36L15.95 12.23C16.08 12.14 16.08 11.95 15.95 11.86Z" fill="black"/>
</svg>
