<svg width="24" height="24" viewBox="0 0 24 24" fill="none" xmlns="http://www.w3.org/2000/svg">
<path fill-rule="evenodd" clip-rule="evenodd" d="M13.27 6.62997L9.26 3.24997C9.11 3.11997 8.89 3.11997 8.74 3.24997L4.74 6.62997C4.42 6.89997 4.38 7.36997 4.65 7.68997C4.92 8.00997 5.39 8.04997 5.71 7.77997L8.25 5.62997V12.57C8.25 12.98 8.59 13.32 9 13.32C9.41 13.32 9.75 12.98 9.75 12.57V5.62997L12.3 7.77997C12.44 7.89997 12.61 7.95997 12.78 7.95997C12.99 7.95997 13.2 7.86997 13.35 7.68997C13.62 7.36997 13.58 6.89997 13.26 6.62997H13.27ZM10.84 17.33L14.85 20.71C15 20.84 15.22 20.84 15.37 20.71L19.37 17.33C19.69 17.06 19.73 16.59 19.46 16.27C19.19 15.95 18.72 15.91 18.4 16.18L15.86 18.33V11.39C15.86 10.98 15.52 10.64 15.11 10.64C14.7 10.64 14.36 10.98 14.36 11.39V18.33L11.81 16.18C11.67 16.06 11.5 16 11.33 16C11.12 16 10.91 16.09 10.76 16.27C10.49 16.59 10.53 17.06 10.85 17.33H10.84Z" fill="black"/>
</svg>
