<svg width="24" height="24" viewBox="0 0 24 24" fill="none" xmlns="http://www.w3.org/2000/svg">
<path fill-rule="evenodd" clip-rule="evenodd" d="M3.64996 6.54004H20.34C20.75 6.54004 21.09 6.20004 21.09 5.79004C21.09 5.38004 20.75 5.04004 20.34 5.04004H3.64996C3.23996 5.04004 2.89996 5.38004 2.89996 5.79004C2.89996 6.20004 3.23996 6.54004 3.64996 6.54004ZM3.64996 12.75H20.34C20.75 12.75 21.09 12.41 21.09 12C21.09 11.59 20.75 11.25 20.34 11.25H3.64996C3.23996 11.25 2.89996 11.59 2.89996 12C2.89996 12.41 3.23996 12.75 3.64996 12.75ZM20.34 18.96H3.64996C3.23996 18.96 2.89996 18.62 2.89996 18.21C2.89996 17.8 3.23996 17.46 3.64996 17.46H20.34C20.75 17.46 21.09 17.8 21.09 18.21C21.09 18.62 20.75 18.96 20.34 18.96Z" fill="black"/>
</svg>
