<svg width="24" height="24" viewBox="0 0 24 24" fill="none" xmlns="http://www.w3.org/2000/svg">
<path fill-rule="evenodd" clip-rule="evenodd" d="M6.95001 8.72C6.76001 8.72 6.57001 8.65 6.42001 8.5C6.13001 8.21 6.13001 7.73 6.42001 7.44L11.74 2.12C11.9 1.96 12.15 1.96 12.31 2.12L17.58 7.39C17.87 7.68 17.87 8.16 17.58 8.45C17.29 8.74 16.81 8.74 16.52 8.45L12.02 3.95L7.48001 8.49C7.33001 8.64 7.14001 8.71 6.95001 8.71V8.72ZM17.05 15.28C17.24 15.28 17.43 15.35 17.58 15.5C17.87 15.79 17.87 16.27 17.58 16.56L12.26 21.88C12.1 22.04 11.85 22.04 11.69 21.88L6.42001 16.61C6.13001 16.32 6.13001 15.84 6.42001 15.55C6.71001 15.26 7.19001 15.26 7.48001 15.55L11.98 20.05L16.52 15.51C16.67 15.36 16.86 15.29 17.05 15.29V15.28Z" fill="black"/>
</svg>
