<svg width="24" height="24" viewBox="0 0 24 24" fill="none" xmlns="http://www.w3.org/2000/svg">
<path fill-rule="evenodd" clip-rule="evenodd" d="M4.4 3H14L20 9V20.6C20 20.82 19.82 21 19.6 21H4.4C4.18 21 4 20.82 4 20.6V3.4C4 3.18 4.18 3 4.4 3ZM7 17C7 17.55 7.45 18 8 18C8.55 18 9 17.55 9 17C9 16.45 8.55 16 8 16C7.45 16 7 16.45 7 17ZM7 12C7 12.55 7.45 13 8 13C8.55 13 9 12.55 9 12C9 11.45 8.55 11 8 11C7.45 11 7 11.45 7 12ZM7 7C7 7.55 7.45 8 8 8C8.55 8 9 7.55 9 7C9 6.45 8.55 6 8 6C7.45 6 7 6.45 7 7ZM13.4 9.2C13.4 9.42 13.58 9.6 13.8 9.6H18.5L13.4 4.5V9.2Z" fill="black"/>
</svg>
