<svg width="24" height="24" viewBox="0 0 24 24" fill="none" xmlns="http://www.w3.org/2000/svg">
<path fill-rule="evenodd" clip-rule="evenodd" d="M18.5 9.62L18.48 9.6H13.8C13.58 9.6 13.4 9.42 13.4 9.2V4.52L13.38 4.5H5.5V19.5H18.5V9.62ZM4.4 3H14L20 9V20.6C20 20.82 19.82 21 19.6 21H4.4C4.18 21 4 20.82 4 20.6V3.4C4 3.18 4.18 3 4.4 3ZM9 17C9 17.5523 8.55228 18 8 18C7.44772 18 7 17.5523 7 17C7 16.4477 7.44772 16 8 16C8.55228 16 9 16.4477 9 17ZM8 13C8.55228 13 9 12.5523 9 12C9 11.4477 8.55228 11 8 11C7.44772 11 7 11.4477 7 12C7 12.5523 7.44772 13 8 13ZM9 7C9 7.55228 8.55228 8 8 8C7.44772 8 7 7.55228 7 7C7 6.44772 7.44772 6 8 6C8.55228 6 9 6.44772 9 7Z" fill="black"/>
</svg>
