<svg width="24" height="24" viewBox="0 0 24 24" fill="none" xmlns="http://www.w3.org/2000/svg">
<path fill-rule="evenodd" clip-rule="evenodd" d="M17.7998 10.0726L17.7999 10.0726C18.7592 10.4418 19.7273 10.8144 20.19 10.96L20.18 10.97C21.21 11.29 22.22 12.85 21.25 16.8C20.9567 17.9875 20.2438 19.7891 19.7775 20.9674L19.7774 20.9675C19.5919 21.4363 19.4455 21.8065 19.38 22H12.77C12.77 22 6.87 17.58 5.87 16.85C3.9 15.42 4.64 13.42 6.13 13.42C6.28 13.42 6.44 13.44 6.6 13.48C7.25557 13.6555 7.54875 13.7697 7.75877 13.8515C7.95561 13.9282 8.07939 13.9765 8.36 14.02C8.43789 14.033 8.52 14.0512 8.60427 14.07C8.77964 14.1089 8.96438 14.15 9.14 14.15C9.54 14.15 9.88 13.92 9.88 12.91V3.95C9.88 2.66 11.01 2 12.13 2C13.22 2 14.3 2.63 14.31 3.91V7.97C14.31 8.67 14.71 8.96 15.57 9.24C16.0357 9.39362 16.9139 9.73163 17.7997 10.0726L17.7998 10.0726ZM18.4085 20.3487C18.8586 19.2183 19.5416 17.5033 19.8 16.44L19.77 16.42C20.51 13.41 19.87 12.44 19.71 12.37C19.25 12.2228 18.4006 11.8978 17.4733 11.5431L17.4733 11.5431L17.23 11.45C16.9959 11.3619 16.7602 11.2722 16.5326 11.1856L16.5325 11.1856L16.5325 11.1855L16.5325 11.1855C15.934 10.9578 15.3915 10.7514 15.08 10.65L15.0652 10.645C14.4338 10.4313 12.79 9.8748 12.79 7.96V6.4V3.9C12.79 3.54 12.37 3.48 12.12 3.48C12.09 3.48 11.37 3.49 11.37 3.93V8.14V12.89C11.37 15.5 9.5 15.63 9.13 15.63C8.8 15.63 8.5 15.57 8.29 15.52C8.26838 15.5164 8.24677 15.5115 8.22562 15.5067L8.22559 15.5067L8.22556 15.5067C8.18803 15.4982 8.15197 15.49 8.12 15.49C7.71 15.43 7.49 15.35 7.21 15.24C7.02 15.16 6.79 15.07 6.21 14.92H6.17C6.19 15.05 6.33 15.32 6.75 15.63C7.6 16.25 11.92 19.48 13.27 20.5H18.35C18.36 20.48 18.3675 20.4575 18.375 20.435C18.3825 20.4125 18.39 20.39 18.4 20.37L18.4085 20.3487ZM8 5.62H5.43V7.03L3 4.63L5.43 2.23V3.64H8V5.62ZM18.57 7.03L21 4.63L18.57 2.23V3.64H16V5.62H18.57V7.03Z" fill="black"/>
</svg>
