<svg width="24" height="24" viewBox="0 0 24 24" fill="none" xmlns="http://www.w3.org/2000/svg">
<path fill-rule="evenodd" clip-rule="evenodd" d="M16.9815 9.88488C18.2284 10.3079 19.6483 10.7896 20.19 10.96V10.95C21.22 11.27 22.23 12.83 21.26 16.78C20.9667 17.9675 20.2538 19.7691 19.7875 20.9474L19.7874 20.9476L19.7873 20.9478C19.6019 21.4165 19.4554 21.7865 19.39 21.98H12.78C12.78 21.98 6.88 17.56 5.88 16.83C3.71 15.25 4.82 12.99 6.61 13.46L6.62374 13.4637C7.88297 13.8008 8.2921 13.9103 8.87 14C8.94957 14.0128 9.03374 14.0313 9.12004 14.0502C9.70618 14.1785 10.39 14.3282 10.39 12.89V3.93C10.39 1.39 13.81 1.3 13.81 3.91V7.97C13.81 8.67 14.21 8.96 15.07 9.24C15.4494 9.36517 16.1793 9.61277 16.9807 9.88461L16.9814 9.88485L16.9814 9.88487L16.9815 9.88488ZM8 5.62H5.43V7.03L3 4.63L5.43 2.23V3.64H8V5.62ZM18.57 7.03L21 4.63L18.57 2.23V3.64H16V5.62H18.57V7.03Z" fill="black"/>
</svg>
