<svg width="24" height="24" viewBox="0 0 24 24" fill="none" xmlns="http://www.w3.org/2000/svg">
<path fill-rule="evenodd" clip-rule="evenodd" d="M20 11.25H18.71C18.36 8.13 15.88 5.64 12.75 5.29V4C12.75 3.59 12.41 3.25 12 3.25C11.59 3.25 11.25 3.59 11.25 4V5.29C8.13 5.64 5.64 8.12 5.29 11.25H4C3.59 11.25 3.25 11.59 3.25 12C3.25 12.41 3.59 12.75 4 12.75H5.29C5.64 15.87 8.12 18.36 11.25 18.71V20C11.25 20.41 11.59 20.75 12 20.75C12.41 20.75 12.75 20.41 12.75 20V18.71C15.87 18.36 18.36 15.88 18.71 12.75H20C20.41 12.75 20.75 12.41 20.75 12C20.75 11.59 20.41 11.25 20 11.25ZM12.75 17.17V16C12.75 15.59 12.41 15.25 12 15.25C11.59 15.25 11.25 15.59 11.25 16V17.17C8.96 16.84 7.16 15.04 6.83 12.75H8C8.41 12.75 8.75 12.41 8.75 12C8.75 11.59 8.41 11.25 8 11.25H6.83C7.16 8.96 8.96 7.16 11.25 6.83V8C11.25 8.41 11.59 8.75 12 8.75C12.41 8.75 12.75 8.41 12.75 8V6.83C15.04 7.16 16.84 8.96 17.17 11.25H16C15.59 11.25 15.25 11.59 15.25 12C15.25 12.41 15.59 12.75 16 12.75H17.17C16.84 15.04 15.04 16.84 12.75 17.17ZM12 13C12.5523 13 13 12.5523 13 12C13 11.4477 12.5523 11 12 11C11.4477 11 11 11.4477 11 12C11 12.5523 11.4477 13 12 13Z" fill="black"/>
</svg>
