<svg width="24" height="24" viewBox="0 0 24 24" fill="none" xmlns="http://www.w3.org/2000/svg">
<path fill-rule="evenodd" clip-rule="evenodd" d="M15.24 3.9C15.065 4.665 14.8875 5.43251 14.71 6.20001C14.5325 6.96751 14.355 7.735 14.18 8.5H20.26C21.5 8.5 22 9.5 22 10C22 12.09 19.5 18.5 19.07 19.36C18.99 19.52 18.78 19.89 18.35 20.17C17.91 20.46 17.48 20.49 17.3 20.5H7.5V8.5C9.1061 6.90964 11.2825 4.72423 12.3796 3.62252L12.3799 3.62227C12.6761 3.32476 12.8937 3.10632 13 3C13.2 2.8 13.56 2.5 14.04 2.5C14.43 2.5 14.91 2.71 15.13 3.16C15.29 3.47 15.25 3.77 15.23 3.9H15.24ZM6 8.5H2V20.5H6V8.5Z" fill="black"/>
</svg>
