<svg width="24" height="24" viewBox="0 0 24 24" fill="none" xmlns="http://www.w3.org/2000/svg">
<path fill-rule="evenodd" clip-rule="evenodd" d="M10.7064 7.43584C11.8185 6.32593 12.8942 5.25238 13.537 4.6031L13.25 5.87L12.72 8.17L12.3 10.01H20.27C20.36 10.01 20.46 10.02 20.51 10.1C20.44 11.87 18.24 17.7 17.74 18.7C17.71 18.77 17.65 18.86 17.54 18.92C17.43 18.99 17.31 19.01 17.31 19.01H9.01V9.13C9.5488 8.5912 10.1324 8.00876 10.7063 7.43599L10.7064 7.43584ZM14.03 2.5C13.56 2.5 13.2 2.8 13 3C12.8937 3.10635 12.6756 3.32489 12.3785 3.62252C11.2791 4.72423 9.09823 6.90964 7.5 8.5H2V20.5H7.5H9H17.3C17.48 20.5 17.91 20.46 18.35 20.17C18.78 19.89 18.99 19.52 19.07 19.36C19.5 18.5 22 12.1 22 10C22 9.5 21.5 8.5 20.26 8.5H14.18C14.355 7.735 14.5325 6.96751 14.71 6.20001C14.8875 5.43251 15.065 4.665 15.24 3.9C15.26 3.78 15.29 3.47 15.14 3.16C14.92 2.71 14.43 2.51 14.05 2.5H14.04H14.03ZM3.5 10H7.5V19H3.5V10Z" fill="black"/>
</svg>
