<?xml version="1.0" encoding="UTF-8"?>
<svg id="Layer_1" data-name="Layer 1" xmlns="http://www.w3.org/2000/svg" viewBox="0 0 60 60">
  <defs>
    <style>
      .cls-1 {
        fill: #fff;
      }
    </style>
  </defs>
  <path class="cls-1" d="M22.3,24.51c.38,0,.77-.15,1.06-.44l5.17-5.17v16.67c0,.83.67,1.5,1.5,1.5s1.5-.67,1.5-1.5v-16.67l5.12,5.12c.59.59,1.54.59,2.12,0s.59-1.54,0-2.12l-7.68-7.68c-.14-.14-.31-.25-.49-.33,0,0-.02,0-.02,0-.17-.07-.35-.11-.55-.11s-.38.04-.55.11c0,0-.02,0-.02,0-.18.08-.35.19-.49.33l-7.73,7.73c-.59.59-.59,1.54,0,2.12.29.29.68.44,1.06.44Z"/>
  <path class="cls-1" d="M42.59,29.92c-.83,0-1.5.67-1.5,1.5v10.67c-.05.38-.65,1.13-.98,1.13h-20.23c-.33,0-.93-.75-.98-1.1v-10.7c0-.83-.67-1.5-1.5-1.5s-1.5.67-1.5,1.5v10.7c0,1.61,1.71,4.1,3.98,4.1h20.23c2.27,0,3.98-2.49,3.98-4.1v-10.7c0-.83-.67-1.5-1.5-1.5Z"/>
</svg>