<svg width="24" height="24" viewBox="0 0 24 24" fill="none" xmlns="http://www.w3.org/2000/svg">
<path fill-rule="evenodd" clip-rule="evenodd" d="M16.15 20H3.85C2.83 20 2 19.16 2 18.12V5.88C2 4.84 2.83 4 3.85 4H16.15C17.17 4 18 4.84 18 5.88V8.39574L20.7 6.11001C21.07 5.79001 21.61 5.72001 22.06 5.94001C22.48 6.13001 22.74 6.53001 22.74 6.97001V17.04C22.74 17.48 22.48 17.88 22.06 18.07C21.8915 18.1493 21.7034 18.1893 21.515 18.19C21.2168 18.1889 20.9287 18.0889 20.7 17.89L18 15.6043V18.12C18 19.16 17.17 20 16.15 20ZM21.515 18.19L21.52 18.19H21.51L21.515 18.19ZM16.53 6.45V10.0129C16.5234 10.0613 16.52 10.1104 16.52 10.16V13.83C16.52 13.8811 16.5234 13.9316 16.53 13.9815V17.55C16.53 18.07 16.11 18.49 15.6 18.49H4.41V18.5C3.9 18.5 3.48 18.08 3.48 17.56V6.45C3.48 5.93 3.9 5.51 4.41 5.51H15.6C16.11 5.51 16.53 5.93 16.53 6.45ZM18.02 13.66L21.25 16.39V7.62001L18.02 10.35V13.65V13.66Z" fill="black"/>
</svg>
