<svg width="24" height="24" viewBox="0 0 24 24" fill="none" xmlns="http://www.w3.org/2000/svg">
<path fill-rule="evenodd" clip-rule="evenodd" d="M3.48999 3.69998C3.36999 3.70998 3.24999 3.76998 3.15999 3.86998L2.80999 4.21998C2.60999 4.41998 2.57999 4.69998 2.73999 4.85998L5.15143 7.27142C3.5223 8.48086 2.21898 10.1064 1.41998 12C3.16998 16.11 7.24998 19 12 19C13.4533 19 14.8394 18.7308 16.1171 18.2371L19.14 21.26C19.22 21.34 19.33 21.37 19.44 21.36C19.55 21.35 19.68 21.29 19.77 21.19L20.12 20.84C20.32 20.64 20.35 20.36 20.19 20.2L17.5546 17.563L17.56 17.56L16.44 16.44L16.4348 16.4425L14.8266 14.8333L14.83 14.83L13.77 13.77L13.7669 13.773L10.228 10.232L10.23 10.23L9.16998 9.16997L9.16834 9.17161L7.55845 7.56074L7.55998 7.55997L6.43998 6.43997L6.43895 6.44055L3.79999 3.79998C3.71999 3.71998 3.60999 3.68998 3.49999 3.69998H3.48999ZM3.06998 12C3.81949 10.5161 4.91862 9.2787 6.23286 8.35285L8.3161 10.4361C8.1129 10.9155 7.99998 11.444 7.99998 12C7.99998 14.21 9.78998 16 12 16C12.553 16 13.0808 15.8862 13.5616 15.6816L14.9283 17.0482C13.9967 17.3397 13.0127 17.5 12 17.5C8.19998 17.5 4.75998 15.36 3.06998 12ZM9.49998 12C9.49998 11.8794 9.50854 11.7609 9.52506 11.645L12.355 14.475C12.2389 14.4914 12.1204 14.5 12 14.5C10.62 14.5 9.49998 13.38 9.49998 12ZM12 6.49997C10.99 6.49997 10.01 6.65997 9.06999 6.94997H9.05999L7.86999 5.75997C9.14999 5.26997 10.54 4.99997 11.99 4.99997C16.74 4.99997 20.82 7.88997 22.57 12C21.77 13.89 20.47 15.52 18.84 16.73L17.76 15.65C19.08 14.72 20.18 13.49 20.93 12C19.24 8.63997 15.8 6.49997 12 6.49997ZM11.66 9.52997C11.77 9.50997 11.89 9.49997 12 9.49997C13.38 9.49997 14.5 10.62 14.5 12C14.5 12.0815 14.4907 12.1584 14.4817 12.2339L14.4817 12.2339L14.4817 12.2339C14.4774 12.2695 14.4732 12.3047 14.47 12.34L15.69 13.56C15.89 13.08 16.01 12.55 16.01 12C16.01 9.78997 14.22 7.99997 12.01 7.99997C11.46 7.99997 10.93 8.10997 10.45 8.31997L11.66 9.52997Z" fill="black"/>
</svg>
