<svg width="24" height="24" viewBox="0 0 24 24" fill="none" xmlns="http://www.w3.org/2000/svg">
<path fill-rule="evenodd" clip-rule="evenodd" d="M12 6.5C15.8 6.5 19.24 8.64 20.93 12C19.24 15.36 15.8 17.5 12 17.5C8.20001 17.5 4.76001 15.36 3.07001 12C4.76001 8.64 8.20001 6.5 12 6.5ZM12 5C7.25001 5 3.17001 7.89 1.42001 12C3.17001 16.11 7.25001 19 12 19C16.75 19 20.83 16.11 22.58 12C20.83 7.89 16.75 5 12 5ZM12 9.5C13.38 9.5 14.5 10.62 14.5 12C14.5 13.38 13.38 14.5 12 14.5C10.62 14.5 9.5 13.38 9.5 12C9.5 10.62 10.62 9.5 12 9.5ZM12 8C9.79 8 8 9.79 8 12C8 14.21 9.79 16 12 16C14.21 16 16 14.21 16 12C16 9.79 14.21 8 12 8Z" fill="black"/>
</svg>
