<svg width="24" height="24" viewBox="0 0 24 24" fill="none" xmlns="http://www.w3.org/2000/svg">
<path fill-rule="evenodd" clip-rule="evenodd" d="M14 20.25V18.75C16.62 18.75 18.75 15.72 18.75 12C18.75 8.28 16.62 5.25 14 5.25V3.75C17.45 3.75 20.25 7.45 20.25 12C20.25 16.55 17.45 20.25 14 20.25ZM11.47 19.53C11.61 19.67 11.81 19.75 12 19.75C12.1 19.75 12.2 19.73 12.29 19.69C12.57 19.58 12.75 19.3 12.75 19V5C12.75 4.7 12.57 4.43 12.29 4.31C12.01 4.19 11.68 4.26 11.47 4.47L6.69 9.25H4C3.59 9.25 3.25 9.59 3.25 10V14C3.25 14.41 3.59 14.75 4 14.75H6.69L11.47 19.53ZM7 13.25H4.75V10.75H7C7.2 10.75 7.39 10.67 7.53 10.53L11.25 6.81V17.19L7.53 13.47C7.39 13.33 7.2 13.25 7 13.25ZM16.5 12C16.5 9.79 15.38 8 14 8V16C15.38 16 16.5 14.21 16.5 12Z" fill="black"/>
</svg>
