<svg width="24" height="24" viewBox="0 0 24 24" fill="none" xmlns="http://www.w3.org/2000/svg">
<path fill-rule="evenodd" clip-rule="evenodd" d="M2.35999 19.5001H21.63C21.94 19.5001 22.13 19.1701 21.98 18.9001L12.34 2.20006C12.19 1.93006 11.8 1.93006 11.65 2.20006L2.00999 18.9001C1.85999 19.1701 2.04999 19.5001 2.35999 19.5001ZM19.74 18.0001H4.27999L12.01 4.60006L19.74 18.0001ZM11.25 13.7501C11.25 14.1601 11.59 14.5001 12 14.5001C12.41 14.5001 12.75 14.1601 12.75 13.7501V8.28006C12.75 7.87006 12.41 7.53006 12 7.53006C11.59 7.53006 11.25 7.87006 11.25 8.28006V13.7501ZM11.99 17.0401C12.4042 17.0401 12.74 16.7043 12.74 16.2901C12.74 15.8758 12.4042 15.5401 11.99 15.5401C11.5758 15.5401 11.24 15.8758 11.24 16.2901C11.24 16.7043 11.5758 17.0401 11.99 17.0401Z" fill="black"/>
</svg>
