<svg width="24" height="24" viewBox="0 0 24 24" fill="none" xmlns="http://www.w3.org/2000/svg">
<path fill-rule="evenodd" clip-rule="evenodd" d="M12.35 2.20006L21.99 18.9001C22.14 19.1701 21.95 19.5001 21.64 19.5001H2.35999C2.04999 19.5001 1.85999 19.1701 2.00999 18.9001L11.66 2.20006C11.81 1.93006 12.2 1.93006 12.35 2.20006ZM11.24 16.2901C11.24 16.7001 11.58 17.0401 11.99 17.0401C12.4 17.0401 12.74 16.7001 12.74 16.2901C12.74 15.8801 12.4 15.5401 11.99 15.5401C11.58 15.5401 11.24 15.8801 11.24 16.2901ZM12 14.5001C12.41 14.5001 12.75 14.1601 12.75 13.7501V8.28006C12.75 7.87006 12.41 7.53006 12 7.53006C11.59 7.53006 11.25 7.87006 11.25 8.28006V13.7501C11.25 14.1601 11.59 14.5001 12 14.5001Z" fill="black"/>
</svg>
