<svg width="24" height="24" viewBox="0 0 24 24" fill="none" xmlns="http://www.w3.org/2000/svg">
<path fill-rule="evenodd" clip-rule="evenodd" d="M21.475 22.5L21.48 22.5H21.47L21.475 22.5ZM21.99 22.29C21.8513 22.4288 21.6634 22.4988 21.475 22.5C21.2869 22.4988 21.1087 22.4288 20.96 22.29L18.6748 20H4.01002C2.97002 20 2.13002 19.16 2.13002 18.12V5.88002C2.13002 5.21178 2.47682 4.6261 3.00065 4.29278L1.99002 3.28002C1.70002 2.99002 1.70002 2.53002 1.99002 2.25002C2.28002 1.97002 2.74002 1.96002 3.02002 2.25002L4.76634 4.00002H4.79002L6.29002 5.51002H6.27316L9.6742 8.91823L9.68002 8.91003L13.5 12.74L13.493 12.745L15.4199 14.676C15.44 14.6873 15.46 14.6986 15.48 14.71L18.22 17.46L18.2463 17.5084L19.2259 18.49H19.25L20.64 19.88L20.6201 19.8872L21.99 21.26C22.28 21.55 22.28 22.01 21.99 22.29ZM11.9389 13.2499L12.4586 13.7707C12.281 13.757 12.1014 13.75 11.92 13.75C8.81002 13.75 6.16002 15.73 5.14002 18.49H4.57002C4.05002 18.49 3.63002 18.07 3.63002 17.55V6.45002C3.63002 6.03667 3.89541 5.6865 4.26546 5.56026L9.16025 10.4654L9.16002 10.5C9.16002 12.02 10.39 13.25 11.91 13.25L11.9389 13.2499ZM19.44 5.51002H8.35002L6.85002 4.00002H20.01C21.05 4.00002 21.89 4.84002 21.89 5.88002V18.12C21.89 18.4 21.83 18.66 21.72 18.9L20.38 17.56V6.45002C20.38 5.93002 19.96 5.51002 19.44 5.51002ZM10.81 7.98002C11.1486 7.83067 11.5168 7.75071 11.905 7.75003C13.4227 7.75271 14.65 8.98169 14.65 10.5C14.65 10.89 14.57 11.26 14.42 11.6L10.81 7.98002ZM11.905 7.75003L11.91 7.75002H11.9L11.905 7.75003Z" fill="black"/>
</svg>
