<svg width="24" height="24" viewBox="0 0 24 24" fill="none" xmlns="http://www.w3.org/2000/svg">
<path fill-rule="evenodd" clip-rule="evenodd" d="M20 20H4C2.96 20 2.12 19.16 2.12 18.12V5.88C2.12 4.84 2.96 4 4 4H20C21.04 4 21.88 4.84 21.88 5.88V18.12C21.88 19.16 21.04 20 20 20ZM4.56 18.49H5.12714C6.15177 15.7236 8.80965 13.75 11.92 13.75C15.0304 13.75 17.6882 15.7236 18.7129 18.49H19.43C19.95 18.49 20.37 18.07 20.37 17.55V6.45C20.37 5.93 19.95 5.51 19.43 5.51H4.56C4.04 5.51 3.62 5.93 3.62 6.45V17.56C3.62 18.08 4.04 18.5 4.56 18.5V18.49ZM9.16 10.5C9.16 12.02 10.39 13.25 11.91 13.25C13.43 13.25 14.66 12.02 14.66 10.5C14.66 8.98 13.43 7.75 11.91 7.75C10.39 7.75 9.16 8.98 9.16 10.5Z" fill="black"/>
</svg>
