<svg width="24" height="24" viewBox="0 0 24 24" fill="none" xmlns="http://www.w3.org/2000/svg">
<path fill-rule="evenodd" clip-rule="evenodd" d="M20.2901 19.3201L15.4501 14.4801C16.4901 13.2401 17.1101 11.6501 17.1101 9.92006C17.1101 6.00006 13.9201 2.81006 10.0001 2.81006C6.08014 2.81006 2.89014 6.00006 2.89014 9.92006C2.89014 13.8401 6.08014 17.0301 10.0001 17.0301C11.6501 17.0301 13.1601 16.4601 14.3701 15.5201L19.2301 20.3801C19.3801 20.5301 19.5701 20.6001 19.7601 20.6001C19.9501 20.6001 20.1401 20.5301 20.2901 20.3801C20.5801 20.0901 20.5801 19.6101 20.2901 19.3201ZM4.39014 9.92006C4.39014 6.83006 6.91014 4.31006 10.0001 4.31006C13.0901 4.31006 15.6101 6.83006 15.6101 9.92006C15.6101 13.0101 13.0901 15.5301 10.0001 15.5301C6.91014 15.5301 4.39014 13.0101 4.39014 9.92006ZM13.3401 10.67H6.68014C6.22014 10.67 5.85014 10.33 5.85014 9.92004C5.85014 9.51004 6.22014 9.17004 6.68014 9.17004H13.3401C13.8001 9.17004 14.1701 9.51004 14.1701 9.92004C14.1701 10.33 13.8001 10.67 13.3401 10.67Z" fill="#2E7D32"/>
</svg>
