<svg width="24" height="24" viewBox="0 0 24 24" fill="none" xmlns="http://www.w3.org/2000/svg">
<path fill-rule="evenodd" clip-rule="evenodd" d="M20.29 19.3201L15.45 14.4801C16.49 13.2401 17.11 11.6501 17.11 9.92006C17.11 6.00006 13.92 2.81006 10 2.81006C6.08001 2.81006 2.89001 6.00006 2.89001 9.92006C2.89001 13.8401 6.08001 17.0301 10 17.0301C11.65 17.0301 13.16 16.4601 14.37 15.5201L19.23 20.3801C19.38 20.5301 19.57 20.6001 19.76 20.6001C19.95 20.6001 20.14 20.5301 20.29 20.3801C20.58 20.0901 20.58 19.6101 20.29 19.3201ZM4.39001 9.92006C4.39001 6.83006 6.91001 4.31006 10 4.31006C13.09 4.31006 15.61 6.83006 15.61 9.92006C15.61 13.0101 13.09 15.5301 10 15.5301C6.91001 15.5301 4.39001 13.0101 4.39001 9.92006ZM13.42 9.17007H10.75V6.51007C10.75 6.10007 10.41 5.76007 10 5.76007C9.59002 5.76007 9.25002 6.10007 9.25002 6.51007V9.17007H6.58002C6.17002 9.17007 5.83002 9.51007 5.83002 9.92007C5.83002 10.3301 6.17002 10.6701 6.58002 10.6701H9.25002V13.3401C9.25002 13.7501 9.59002 14.0901 10 14.0901C10.41 14.0901 10.75 13.7501 10.75 13.3401V10.6701H13.42C13.83 10.6701 14.17 10.3301 14.17 9.92007C14.17 9.51007 13.83 9.17007 13.42 9.17007Z" fill="black"/>
</svg>
